<?xml version="1.0" encoding="utf-8"?>
<!-- Generator: Adobe Illustrator 23.0.0, SVG Export Plug-In . SVG Version: 6.00 Build 0)  -->
<svg version="1.1" xmlns="http://www.w3.org/2000/svg" xmlns:xlink="http://www.w3.org/1999/xlink" x="0px" y="0px"
	 viewBox="0 0 750 500" style="enable-background:new 0 0 750 500;" xml:space="preserve">
<g id="Background_Complete">
	<g>
		<g>
			<g>
				<g>
					<g>
						<g>
							<g>
								<path style="fill:#F5F5F5;" d="M720.28,125.93c0,0-8.36-5.1-17.6,14.78c-9.25,19.88-12.61,31.27-12.61,31.27
									s-2.48,4.19-5.39,1.61c-2.91-2.57-7.03-10.02-11.75-8.48c-4.9,1.59-6.33,7.18-5.1,15.27c1.24,8.09,3.3,25.91,3.48,27.52
									c0.18,1.58-0.65,3.95-2.91,2.52c-2.26-1.44-15.46-15.11-21.57-8.46c-6.11,6.65,1.04,28.62,1.77,31.03
									c0.74,2.42,0.3,3.48-0.84,4.12c-1.14,0.65-5.14-4.37-9.05-8.1c-3.91-3.74-9.11-7.38-12.31-3.25
									c-3.21,4.13-3.68,20.83,13.15,47.31l8.6,11.76l14.57-1.34c31.01-4.76,43.27-16.1,44.27-21.24c1-5.13-5.16-6.64-10.55-7.13
									c-5.39-0.49-11.8-0.2-12.06-1.48c-0.26-1.28,0.25-2.31,2.55-3.35c2.3-1.04,23.55-10.11,24.53-19.09
									c0.98-8.98-18-9.92-20.57-10.68c-2.57-0.76-1.33-2.94-0.02-3.85c1.33-0.93,16.11-11.1,23.01-15.49
									c6.9-4.39,10.17-9.15,8.14-13.89c-1.95-4.57-10.27-2.77-14.12-3.27c-3.85-0.49-2.33-5.12-2.33-5.12s6.36-10.03,15.25-30.08
									c8.88-20.05-0.71-23.01-0.71-23.01"/>
							</g>
						</g>
					</g>
				</g>
			</g>
		</g>
		<g>
			<g>
				<g>
					<g>
						<g>
							<g>
								<g>
									<path style="fill:#E0E0E0;" d="M711.97,143.72c0,0-0.05,0.15-0.16,0.43c-0.13,0.3-0.3,0.71-0.52,1.24
										c-0.48,1.11-1.17,2.71-2.06,4.76c-1.79,4.13-4.44,10.09-7.73,17.43c-6.58,14.7-15.84,34.92-26.14,57.22
										c-10.3,22.31-19.61,42.51-26.27,57.17c-3.32,7.32-6,13.25-7.87,17.37c-0.92,2.03-1.64,3.62-2.14,4.72
										c-0.24,0.52-0.43,0.93-0.57,1.22c-0.13,0.27-0.21,0.41-0.21,0.41s0.05-0.15,0.16-0.43c0.13-0.3,0.3-0.71,0.52-1.24
										c0.48-1.11,1.17-2.71,2.06-4.76c1.79-4.13,4.43-10.09,7.73-17.43c6.58-14.7,15.84-34.92,26.14-57.23
										c10.3-22.3,19.61-42.5,26.27-57.16c3.32-7.32,6-13.25,7.87-17.37c0.92-2.03,1.65-3.62,2.15-4.72
										c0.24-0.52,0.43-0.93,0.57-1.22C711.89,143.86,711.97,143.72,711.97,143.72z"/>
								</g>
							</g>
						</g>
					</g>
				</g>
			</g>
		</g>
		<g>
			<g>
				<g>
					<g>
						<g>
							<g>
								<g>
									<path style="fill:#E0E0E0;" d="M678.27,175.77c0.03-0.01,0.18,0.34,0.41,0.97c0.24,0.63,0.55,1.56,0.93,2.71
										c0.75,2.3,1.69,5.51,2.67,9.07c0.95,3.5,1.81,6.67,2.47,9.12c0.3,1.08,0.55,2,0.76,2.76c0.18,0.65,0.27,1.02,0.23,1.03
										c-0.03,0.01-0.18-0.33-0.42-0.97c-0.23-0.64-0.55-1.56-0.91-2.72c-0.72-2.31-1.63-5.53-2.61-9.09
										c-0.97-3.5-1.85-6.66-2.53-9.1c-0.3-1.08-0.56-2-0.77-2.76C678.32,176.14,678.24,175.78,678.27,175.77z"/>
								</g>
							</g>
						</g>
					</g>
				</g>
			</g>
		</g>
		<g>
			<g>
				<g>
					<g>
						<g>
							<g>
								<g>
									<path style="fill:#E0E0E0;" d="M687.09,201.64c-0.04-0.13,6.48-2.38,14.57-5.02c8.09-2.65,14.69-4.68,14.73-4.55
										c0.04,0.13-6.48,2.38-14.57,5.02C693.73,199.73,687.13,201.77,687.09,201.64z"/>
								</g>
							</g>
						</g>
					</g>
				</g>
			</g>
		</g>
		<g>
			<g>
				<g>
					<g>
						<g>
							<g>
								<g>
									<path style="fill:#E0E0E0;" d="M669.72,235.18c0-0.03,0.38-0.07,1.07-0.1c0.8-0.03,1.77-0.06,2.92-0.1
										c2.47-0.09,5.87-0.22,9.62-0.5c3.75-0.27,7.14-0.64,9.59-0.92c1.14-0.13,2.11-0.24,2.9-0.33c0.69-0.07,1.07-0.1,1.07-0.06
										c0.01,0.03-0.37,0.12-1.05,0.25c-0.68,0.13-1.66,0.3-2.89,0.48c-2.44,0.37-5.84,0.79-9.6,1.06
										c-3.76,0.28-7.18,0.36-9.65,0.36c-1.24-0.01-2.24-0.02-2.93-0.06C670.11,235.25,669.72,235.22,669.72,235.18z"/>
								</g>
							</g>
						</g>
					</g>
				</g>
			</g>
		</g>
		<g>
			<g>
				<g>
					<g>
						<g>
							<g>
								<g>
									<path style="fill:#E0E0E0;" d="M656.6,213.54c0.03-0.02,0.24,0.26,0.61,0.79c0.36,0.53,0.87,1.29,1.5,2.25
										c1.25,1.91,2.94,4.57,4.78,7.52c1.84,2.95,3.49,5.64,4.66,7.6c0.59,0.98,1.05,1.78,1.36,2.33
										c0.31,0.56,0.47,0.87,0.44,0.89c-0.03,0.02-0.24-0.26-0.61-0.79c-0.36-0.53-0.87-1.29-1.5-2.25
										c-1.25-1.91-2.94-4.57-4.78-7.53c-1.84-2.95-3.49-5.64-4.66-7.6c-0.58-0.98-1.05-1.78-1.36-2.33
										C656.73,213.87,656.57,213.55,656.6,213.54z"/>
								</g>
							</g>
						</g>
					</g>
				</g>
			</g>
		</g>
		<g>
			<g>
				<g>
					<g>
						<g>
							<g>
								<g>
									<path style="fill:#E0E0E0;" d="M637.5,241.2c0.03-0.02,0.3,0.35,0.76,1.02c0.51,0.76,1.16,1.73,1.93,2.88
										c1.61,2.44,3.8,5.83,6.2,9.6c2.4,3.76,4.55,7.19,6.08,9.68c0.72,1.19,1.32,2.18,1.8,2.96c0.41,0.71,0.63,1.1,0.6,1.12
										c-0.03,0.02-0.3-0.35-0.76-1.02c-0.51-0.76-1.16-1.73-1.93-2.88c-1.61-2.44-3.8-5.83-6.2-9.6
										c-2.4-3.76-4.55-7.18-6.08-9.67c-0.72-1.19-1.32-2.18-1.8-2.96C637.69,241.62,637.47,241.22,637.5,241.2z"/>
								</g>
							</g>
						</g>
					</g>
				</g>
			</g>
		</g>
		<g>
			<g>
				<g>
					<g>
						<g>
							<g>
								<g>
									<path style="fill:#E0E0E0;" d="M654.65,267.69c0-0.03,0.48-0.09,1.36-0.15c0.97-0.07,2.21-0.16,3.7-0.26
										c3.12-0.22,7.44-0.54,12.19-1.03c4.75-0.48,9.04-1.02,12.15-1.44c1.48-0.2,2.72-0.36,3.68-0.48
										c0.87-0.11,1.35-0.16,1.36-0.12c0.01,0.03-0.47,0.14-1.33,0.31c-0.86,0.17-2.11,0.39-3.66,0.64
										c-3.09,0.5-7.39,1.1-12.15,1.58c-4.76,0.49-9.09,0.75-12.22,0.88c-1.57,0.06-2.83,0.1-3.71,0.1
										C655.13,267.73,654.65,267.72,654.65,267.69z"/>
								</g>
							</g>
						</g>
					</g>
				</g>
			</g>
		</g>
	</g>
	<g>
		<g>
			<g>
				<g>
					<g>
						<g>
							<g>
								<g>
									<g>
										<g>
											<path style="fill:#EBEBEB;" d="M124.79,224.43c23.33-15.57,29.02-45.03,28.52-71.59c-0.08-4.44,0.48-9.1-1.59-13.02
												c-2.08-3.92-7.02-6.65-11.07-4.85c-3.36,1.5-4.87,5.31-6.79,8.45c-2.55,4.18-6.3,7.61-10.69,9.77
												c-2.88,1.42-6.43,2.26-9.23,0.68c-3.84-2.17-4.22-7.45-4.12-11.86c0.18-8.21,0.36-16.43,0.54-24.64
												c0.1-4.41,0.18-8.91-1.14-13.11c-1.32-4.2-4.33-8.14-8.56-9.38c-4.23-1.24-9.52,1.1-10.49,5.4
												c-0.4,1.79-0.06,3.66-0.21,5.49c-0.15,1.83-1.05,3.84-2.82,4.32c-1.79,0.49-3.56-0.79-4.87-2.1
												c-4.54-4.52-7.58-10.3-10.41-16.05c-2.84-5.75-5.58-11.62-9.69-16.54c-4.11-4.92-9.83-8.85-16.22-9.3
												c-6.39-0.45-13.27,3.34-14.98,9.52c-1.72,6.19,1.86,12.55,5.78,17.64c5.81,7.55,12.73,14.26,20.45,19.84
												c1.39,1.01,2.9,2.1,3.42,3.74c0.92,2.95-1.94,5.83-4.9,6.75c-3.35,1.04-6.95,0.65-10.44,1
												c-3.49,0.35-7.29,1.81-8.65,5.04c-1.9,4.48,1.85,9.26,5.55,12.41c7.43,6.31,15.94,11.33,25.05,14.78
												c3.27,1.24,6.71,2.33,9.32,4.65c2.61,2.32,4.15,6.3,2.5,9.38c-1.65,3.09-5.77,4.02-9.21,3.34
												c-3.43-0.68-6.48-2.57-9.74-3.84c-6.1-2.38-14.04-2.08-18.05,3.1c-2.64,3.4-2.94,8.19-1.7,12.31
												c1.24,4.12,3.84,7.69,6.6,10.99c9.66,11.54,22.11,20.9,36.27,25.98C97.39,227.81,110.56,229.33,124.79,224.43"/>
										</g>
									</g>
								</g>
							</g>
						</g>
					</g>
				</g>
			</g>
		</g>
		<g>
			<g>
				<g>
					<g>
						<g>
							<g>
								<g>
									<g>
										<g>
											<g>
												<path style="fill:#E0E0E0;" d="M122.96,224.94c-3.75-13.45-14.03-45.11-20.15-60c-1.54-3.71-3.07-7.39-4.58-11.01
													c-1.51-3.61-3-7.19-4.69-10.6c-3.33-6.84-7.07-13.16-10.8-19.05c-3.73-5.9-7.49-11.36-11.05-16.44
													c-3.57-5.08-6.98-9.75-10.27-13.87c-6.57-8.28-12.65-14.33-16.99-18.31c-2.17-2-3.9-3.5-5.09-4.5
													c-0.58-0.48-1.03-0.86-1.36-1.13c-0.31-0.25-0.48-0.37-0.48-0.37s0.14,0.15,0.43,0.42c0.32,0.28,0.75,0.68,1.31,1.18
													c1.16,1.04,2.86,2.56,5,4.59c4.29,4.04,10.3,10.12,16.8,18.41c3.26,4.13,6.65,8.81,10.19,13.9
													c3.53,5.09,7.27,10.56,10.98,16.45c3.71,5.89,7.42,12.2,10.74,19.01c1.67,3.4,3.15,6.95,4.66,10.57
													c1.5,3.62,3.03,7.29,4.57,11c6.12,14.88,16.4,46.5,20.18,59.91"/>
											</g>
										</g>
									</g>
								</g>
							</g>
						</g>
					</g>
				</g>
			</g>
		</g>
		<g>
			<g>
				<g>
					<g>
						<g>
							<g>
								<g>
									<g>
										<g>
											<g>
												<path style="fill:#E0E0E0;" d="M93.38,143.28c0.05,0.01,0.2-0.66,0.44-1.88c0.24-1.22,0.54-2.99,0.88-5.18
													c0.69-4.38,1.43-10.46,2.24-17.17c0.81-6.71,1.66-12.76,2.44-17.12c0.38-2.18,0.71-3.94,0.96-5.15
													c0.24-1.21,0.35-1.89,0.31-1.9c-0.04-0.01-0.24,0.65-0.56,1.85c-0.33,1.2-0.73,2.95-1.17,5.12
													c-0.9,4.35-1.83,10.41-2.64,17.13c-0.79,6.65-1.51,12.67-2.05,17.18c-0.27,2.1-0.5,3.85-0.68,5.2
													C93.4,142.59,93.34,143.27,93.38,143.28z"/>
											</g>
										</g>
									</g>
								</g>
							</g>
						</g>
					</g>
				</g>
			</g>
		</g>
		<g>
			<g>
				<g>
					<g>
						<g>
							<g>
								<g>
									<g>
										<g>
											<g>
												<path style="fill:#E0E0E0;" d="M36.12,131.83c0,0.02,0.2,0.06,0.59,0.1c0.47,0.05,1.03,0.1,1.7,0.17
													c1.47,0.14,3.6,0.34,6.23,0.67c5.25,0.62,12.48,1.75,20.39,3.34c7.91,1.61,15.01,3.37,20.11,4.81
													c2.55,0.7,4.6,1.32,6.02,1.74c0.65,0.19,1.19,0.35,1.64,0.48c0.38,0.1,0.58,0.15,0.59,0.12
													c0.01-0.02-0.18-0.11-0.54-0.25c-0.44-0.16-0.97-0.36-1.6-0.6c-1.39-0.5-3.43-1.19-5.97-1.95
													c-5.07-1.55-12.17-3.39-20.11-5.01c-7.93-1.6-15.19-2.65-20.47-3.16c-2.64-0.27-4.78-0.4-6.26-0.47
													c-0.68-0.02-1.24-0.03-1.71-0.05C36.33,131.8,36.13,131.81,36.12,131.83z"/>
											</g>
										</g>
									</g>
								</g>
							</g>
						</g>
					</g>
				</g>
			</g>
		</g>
		<g>
			<g>
				<g>
					<g>
						<g>
							<g>
								<g>
									<g>
										<g>
											<g>
												<path style="fill:#E0E0E0;" d="M117.42,206.63c0.02,0.01,0.15-0.23,0.39-0.69c0.26-0.53,0.59-1.21,1-2.04
													c0.86-1.77,2.05-4.37,3.48-7.6c2.86-6.46,6.53-15.49,10.46-25.52c3.93-10.03,7.53-19.08,10.27-25.58
													c1.36-3.18,2.47-5.79,3.28-7.68c0.36-0.85,0.66-1.55,0.89-2.09c0.2-0.48,0.29-0.74,0.27-0.75
													c-0.02-0.01-0.15,0.23-0.39,0.69c-0.26,0.53-0.59,1.21-1,2.04c-0.86,1.77-2.05,4.37-3.48,7.6
													c-2.86,6.46-6.53,15.49-10.46,25.52c-3.93,10.02-7.53,19.08-10.27,25.57c-1.36,3.18-2.47,5.79-3.28,7.68
													c-0.36,0.86-0.66,1.55-0.89,2.09C117.49,206.36,117.4,206.62,117.42,206.63z"/>
											</g>
										</g>
									</g>
								</g>
							</g>
						</g>
					</g>
				</g>
			</g>
		</g>
		<g>
			<g>
				<g>
					<g>
						<g>
							<g>
								<g>
									<g>
										<g>
											<g>
												<path style="fill:#E0E0E0;" d="M41.49,181.22c-0.01,0.02,0.25,0.13,0.76,0.31c0.57,0.19,1.3,0.44,2.21,0.75
													c2,0.67,4.76,1.59,8.14,2.71c6.87,2.3,16.32,5.59,26.75,9.25c10.43,3.66,19.91,6.89,26.83,9.07
													c3.46,1.09,6.26,1.95,8.21,2.51c0.92,0.26,1.67,0.47,2.25,0.63c0.52,0.14,0.79,0.2,0.8,0.18
													c0.01-0.02-0.25-0.13-0.76-0.31c-0.57-0.19-1.3-0.44-2.21-0.75c-2-0.67-4.76-1.59-8.14-2.71
													c-6.87-2.3-16.32-5.59-26.75-9.25c-10.43-3.66-19.91-6.88-26.82-9.07c-3.46-1.09-6.26-1.95-8.21-2.51
													c-0.92-0.26-1.67-0.47-2.25-0.63C41.77,181.26,41.5,181.2,41.49,181.22z"/>
											</g>
										</g>
									</g>
								</g>
							</g>
						</g>
					</g>
				</g>
			</g>
		</g>
	</g>
	<g>
		<g>
			<g>
				<path style="fill:#F5F5F5;" d="M508.76,70.37h94.1h31.98L610.17,87.9v14.64c0,14.95-12.3,27.07-27.47,27.07h-79.11
					c-15.17,0-27.47-12.12-27.47-27.07l0,0C476.1,84.77,490.72,70.37,508.76,70.37z"/>
			</g>
		</g>
		<g>
			<g>
				<g>
					<path style="fill:#E0E0E0;" d="M588.9,89.94c0,0.14-21.05,0.26-47.01,0.26c-25.97,0-47.01-0.12-47.01-0.26
						c0-0.14,21.04-0.26,47.01-0.26C567.85,89.68,588.9,89.79,588.9,89.94z"/>
				</g>
			</g>
		</g>
		<g>
			<g>
				<g>
					<path style="fill:#E0E0E0;" d="M588.9,99.68c0,0.14-21.05,0.26-47.01,0.26c-25.97,0-47.01-0.12-47.01-0.26
						c0-0.14,21.04-0.26,47.01-0.26C567.85,99.42,588.9,99.53,588.9,99.68z"/>
				</g>
			</g>
		</g>
	</g>
	<g>
		<g>
			<g>
				<path style="fill:#F5F5F5;" d="M317.49,370.42H199.82h-31.51l24.3,17.54v34.5c0,3.98,3.23,7.2,7.2,7.2h117.68
					c3.98,0,7.2-3.23,7.2-7.2v-44.83C324.7,373.65,321.47,370.42,317.49,370.42z"/>
			</g>
		</g>
		<g>
			<g>
				<g>
					<path style="fill:#E0E0E0;" d="M311.27,394.8c0,0.14-22.5,0.26-50.25,0.26c-27.76,0-50.25-0.12-50.25-0.26
						c0-0.14,22.5-0.26,50.25-0.26C288.77,394.54,311.27,394.66,311.27,394.8z"/>
				</g>
			</g>
		</g>
		<g>
			<g>
				<g>
					<path style="fill:#E0E0E0;" d="M311.27,408.05c0,0.14-22.5,0.26-50.25,0.26c-27.76,0-50.25-0.12-50.25-0.26
						c0-0.14,22.5-0.26,50.25-0.26C288.77,407.79,311.27,407.91,311.27,408.05z"/>
				</g>
			</g>
		</g>
	</g>
</g>
<g id="Background_Simple">
	<path style="fill:#EBEBEB;" d="M631.15,109.83l-3.08-5.05C603.35,64.2,558.65,39.5,511.19,41.73c-6.67,0.31-13.32,1.14-19.87,2.5
		c-43.68,9.05-81.79,41.5-97.69,83.18c-9.35,24.51-12.05,52.77-29.7,72.18c-22.96,25.27-61.78,25.91-95.91,24.73
		c-34.12-1.18-72.97-0.44-95.82,24.93c-14.31,15.89-18.93,38.54-17.86,59.9c2.82,56.54,42.52,107.25,93.15,132.57
		c50.64,25.32,110.36,27.81,165.93,16.97c77.84-15.18,151.98-57.41,196.7-122.91C654.84,270.29,666.44,180.85,631.15,109.83z"/>
</g>
<g id="Character_2">
	<g>
		<g>
			<g>
				<g>
					<path style="fill:#E8505B;" d="M622.08,420.08h-174.6c-21.42,0-38.79-17.37-38.79-38.79V239.18
						c0-21.42,17.37-38.79,38.79-38.79h174.6c21.42,0,38.79,17.37,38.79,38.79v142.11C660.87,402.71,643.5,420.08,622.08,420.08z"/>
				</g>
			</g>
			<g style="opacity:0.4;">
				<g>
					<path d="M622.08,420.08h-174.6c-21.42,0-38.79-17.37-38.79-38.79V239.18c0-21.42,17.37-38.79,38.79-38.79h174.6
						c21.42,0,38.79,17.37,38.79,38.79v142.11C660.87,402.71,643.5,420.08,622.08,420.08z"/>
				</g>
			</g>
			<g>
				<g>
					<g>
						<polygon style="fill:#E8505B;" points="660.8,276.98 698.57,276.98 659.95,315.61 						"/>
					</g>
				</g>
				<g style="opacity:0.4;">
					<g>
						<polygon points="660.8,276.98 698.57,276.98 659.95,315.61 						"/>
					</g>
				</g>
			</g>
		</g>
		<g>
			<g>
				<g>
					<g>
						<g>
							<g>
								<g>
									<path style="fill:#B78876;" d="M402.66,300.73l-15.83-17.96c-4.28-4.28-5.75-6.35-4.89-7.1c1.14-1,0.65-0.67,9.54,6.01
										c0,0-12.6-9.64-8.23-9.7c0.77-0.01,2.91,1.24,5.2,2.74c-3.12-2.65-3.98-4.44-3.39-5.29c1.02-1.47,8.73,3.87,12.27,6.45
										c-2.9-2.16-8.43-6.36-9.41-7.67c-1.33-1.8,1.37-1.65,3.57-0.9c2.47,0.84,16.12,7.81,20.16,9.61
										c2.78,1.24,3.76-1.28,3.76-1.28c1.49-6.25,5.99-10.33,7.72-10.86c1.74-0.53,3.05,1.68,1.82,3.27
										c-0.99,1.29-1.99,3.93-2.66,5.94c-0.55,1.66-0.84,3.39-0.81,5.13c0.03,2.02,0.14,3.73,0.27,5.18l14.46,19.85l-24.2,14.03
										L402.66,300.73z"/>
								</g>
							</g>
						</g>
					</g>
					<g>
						<g>
							<g>
								<g>
									<g>
										<g>
											<g>
												<path style="fill:#AA6550;" d="M396.97,284.44c-0.16,0.23-2.98-1.71-6.28-4.32c-3.31-2.61-5.84-4.9-5.65-5.11
													c0.18-0.21,3,1.72,6.28,4.32C394.6,281.92,397.14,284.21,396.97,284.44z"/>
											</g>
										</g>
									</g>
								</g>
							</g>
						</g>
					</g>
					<g>
						<g>
							<g>
								<g>
									<g>
										<g>
											<g>
												<path style="fill:#AA6550;" d="M400.06,281.28c-0.16,0.23-3.27-1.66-6.95-4.23c-3.68-2.56-6.53-4.83-6.37-5.06
													c0.16-0.23,3.27,1.66,6.95,4.23C397.36,278.79,400.22,281.05,400.06,281.28z"/>
											</g>
										</g>
									</g>
								</g>
							</g>
						</g>
					</g>
					<g>
						<g>
							<g>
								<g>
									<g>
										<g>
											<g>
												<path style="fill:#AA6550;" d="M402.3,277.92c-0.16,0.23-3.13-1.51-6.65-3.89c-3.51-2.38-6.24-4.5-6.08-4.73
													c0.16-0.23,3.13,1.51,6.65,3.89C399.73,275.57,402.45,277.69,402.3,277.92z"/>
											</g>
										</g>
									</g>
								</g>
							</g>
						</g>
					</g>
				</g>
				<g>
					<g>
						<path style="fill:#B78876;" d="M423.11,287.03l57.68,73.14l-13.21,30.75c0,0-15.82-3.5-20.62-10.17
							c-4.8-6.67-44.3-80.03-44.3-80.03L423.11,287.03z"/>
					</g>
				</g>
			</g>
			<g>
				<g>
					<g>
						<g>
							<g>
								<g>
									<g>
										<g>
											<path style="fill:#263238;" d="M569.53,184.68c4.15,3.6,4.14,9.94,3.66,15.41c-0.48,5.47-0.84,11.7,2.94,15.68
												c3.12,3.28,8.79,4.71,9.52,9.18c0.34,2.08-0.75,4.33-2.61,5.34c-1.85,1.02-4.33,0.73-5.91-0.67
												c1.22,3.53,0.38,7.94-2.68,10.08c-3.06,2.14-8.18,0.82-9.13-2.79c0.58,2.39-1.17,5.08-3.59,5.52
												c-2.42,0.44-5.01-1.46-5.31-3.9"/>
										</g>
									</g>
								</g>
							</g>
							<g>
								<g>
									<g>
										<g>
											<path style="fill:#263238;" d="M510.1,221.6c-1.03,2.73-4.51,4.22-7.2,3.1c-2.69-1.12-4.07-4.65-2.85-7.3
												c0.95-2.08,3.2-3.58,3.42-5.86c0.26-2.76-2.55-4.72-5.05-5.92c-2.5-1.2-5.41-2.76-5.68-5.52
												c-0.26-2.66,2.12-4.73,4.11-6.51c1.99-1.78,3.96-4.53,2.73-6.91c-0.63-1.21-1.94-1.91-2.78-2.99
												c-1.87-2.38-0.89-6.17,1.49-8.04c2.38-1.87,5.69-2.13,8.67-1.59c2.98,0.54,5.78,1.77,8.69,2.63
												c9.57,2.85,20.33,1.44,28.84-3.78"/>
										</g>
									</g>
								</g>
							</g>
							<g>
								<g>
									<g>
										<g>
											<g>
												<g>
													<g>
														<g>
															<g>
																<g>
																	<g>
																		<g>
																			<g>
																				<g>
																					<g>
																						<path style="fill:#B78876;" d="M527.81,286.09c10.75,2.17,21.26-4.68,23.59-15.4l14.19-65.06
																							c3.73-15.83-6.34-31.61-22.26-34.9l-1.49-0.22c-14.99-2.2-29.15,7.49-32.54,22.25
																							c-3.16,13.73-6.47,28.95-7.47,36.42c-2.07,15.46,13.02,20.13,13.02,20.13l-2.71,13.03
																							C509.87,273.22,516.9,283.88,527.81,286.09L527.81,286.09z"/>
																					</g>
																				</g>
																			</g>
																		</g>
																	</g>
																</g>
															</g>
														</g>
													</g>
												</g>
											</g>
										</g>
									</g>
								</g>
								<g>
									<g>
										<g>
											<g>
												<g>
													<g>
														<g>
															<g>
																<g>
																	<g>
																		<g>
																			<g>
																				<g>
																					<g>
																						<g>
																							<g>
																								<g>
																									<path style="fill:#263238;" d="M512.07,202.95c-0.21,1.16,0.59,2.29,1.8,2.54c1.2,0.24,2.35-0.5,2.56-1.65
																										c0.21-1.16-0.59-2.29-1.8-2.54C513.43,201.06,512.28,201.8,512.07,202.95z"/>
																								</g>
																							</g>
																						</g>
																					</g>
																				</g>
																			</g>
																		</g>
																	</g>
																</g>
															</g>
														</g>
														<g>
															<g>
																<g>
																	<g>
																		<g>
																			<g>
																				<g>
																					<g>
																						<g>
																							<g>
																								<g>
																									<g>
																										<path style="fill:#263238;" d="M511.5,200.8c0.23,0.33,2.08-0.66,4.45-0.31
																											c2.37,0.32,3.94,1.79,4.24,1.54c0.15-0.11-0.06-0.67-0.73-1.33c-0.67-0.66-1.86-1.38-3.34-1.59
																											c-1.48-0.21-2.8,0.15-3.6,0.61C511.71,200.17,511.39,200.65,511.5,200.8z"/>
																									</g>
																								</g>
																							</g>
																						</g>
																					</g>
																				</g>
																			</g>
																		</g>
																	</g>
																</g>
															</g>
														</g>
													</g>
													<g>
														<g>
															<g>
																<g>
																	<g>
																		<g>
																			<g>
																				<g>
																					<g>
																						<g>
																							<g>
																								<g>
																									<path style="fill:#263238;" d="M535.26,206.8c-0.21,1.16,0.59,2.29,1.8,2.54c1.2,0.24,2.35-0.5,2.56-1.65
																										c0.21-1.16-0.59-2.29-1.8-2.54C536.62,204.9,535.47,205.64,535.26,206.8z"/>
																								</g>
																							</g>
																						</g>
																					</g>
																				</g>
																			</g>
																		</g>
																	</g>
																</g>
															</g>
														</g>
														<g>
															<g>
																<g>
																	<g>
																		<g>
																			<g>
																				<g>
																					<g>
																						<g>
																							<g>
																								<g>
																									<g>
																										<path style="fill:#263238;" d="M534.76,204.66c0.23,0.33,2.08-0.66,4.45-0.31
																											c2.37,0.32,3.94,1.79,4.24,1.54c0.14-0.11-0.05-0.67-0.74-1.33c-0.67-0.66-1.86-1.38-3.34-1.59
																											c-1.48-0.21-2.8,0.15-3.6,0.61C534.96,204.02,534.64,204.51,534.76,204.66z"/>
																									</g>
																								</g>
																							</g>
																						</g>
																					</g>
																				</g>
																			</g>
																		</g>
																	</g>
																</g>
															</g>
														</g>
													</g>
													<g>
														<g>
															<g>
																<g>
																	<g>
																		<g>
																			<g>
																				<g>
																					<g>
																						<g>
																							<g>
																								<g>
																									<path style="fill:#263238;" d="M523.57,220.99c0.03-0.13-1.41-0.6-3.75-1.26
																										c-0.6-0.15-1.15-0.36-1.19-0.78c-0.08-0.46,0.27-1.07,0.67-1.74c0.78-1.38,1.61-2.83,2.47-4.35
																										c3.45-6.2,6.04-11.34,5.79-11.48c-0.25-0.14-3.25,4.78-6.7,10.98c-0.84,1.53-1.63,2.99-2.4,4.39
																										c-0.33,0.65-0.84,1.38-0.66,2.33c0.1,0.48,0.49,0.87,0.87,1.03c0.37,0.18,0.71,0.23,1.01,0.29
																										C522.05,220.89,523.54,221.12,523.57,220.99z"/>
																								</g>
																							</g>
																						</g>
																					</g>
																				</g>
																			</g>
																		</g>
																	</g>
																</g>
															</g>
														</g>
													</g>
												</g>
											</g>
										</g>
										<g>
											<g>
												<g>
													<g>
														<g>
															<g>
																<g>
																	<g>
																		<g>
																			<g>
																				<g>
																					<path style="fill:#263238;" d="M535.5,195.27c0.14,0.68,2.55,0.72,5.29,1.46c2.75,0.69,4.87,1.83,5.33,1.31
																						c0.21-0.25-0.1-0.92-0.91-1.67c-0.81-0.76-2.16-1.56-3.8-1.99c-1.64-0.43-3.21-0.39-4.29-0.12
																						C536.04,194.52,535.45,194.95,535.5,195.27z"/>
																				</g>
																			</g>
																		</g>
																	</g>
																</g>
															</g>
														</g>
													</g>
												</g>
											</g>
										</g>
										<g>
											<g>
												<g>
													<g>
														<g>
															<g>
																<g>
																	<g>
																		<g>
																			<g>
																				<g>
																					<path style="fill:#263238;" d="M513.38,194.06c0.34,0.6,2.05,0.28,4.02,0.54c1.98,0.19,3.58,0.89,4.04,0.39
																						c0.21-0.25,0.03-0.83-0.63-1.44c-0.64-0.61-1.78-1.2-3.14-1.36c-1.36-0.15-2.6,0.16-3.36,0.61
																						C513.54,193.25,513.23,193.77,513.38,194.06z"/>
																				</g>
																			</g>
																		</g>
																	</g>
																</g>
															</g>
														</g>
													</g>
												</g>
											</g>
										</g>
									</g>
								</g>
								<g>
									<g>
										<g>
											<g>
												<g>
													<path style="fill:#263238;" d="M551.31,186.24c0.02,0.03,0.05,0.05,0.07,0.08c2.17,2.3,3.39,5.35,3.36,8.51
														c0,0.11,0,0.22,0,0.32c-0.04,4.49-0.81,8.95-0.8,13.45c0,4.49,0.87,9.19,3.68,12.69c1.15,1.44,3.39,2.65,4.71,1.35
														c0.51-0.5,0.69-1.24,0.85-1.94c2.38-10.51,6.66-19.52,8.27-30.64c0.44-3.03-0.57-6.08-2.77-8.2
														c-2.08-2.01-4.67-4.15-7.44-3.31c-2.77,0.85-6.83,5.2-9.13,6.96"/>
												</g>
											</g>
										</g>
									</g>
								</g>
								<g>
									<g>
										<g>
											<g>
												<g>
													<g>
														<g>
															<g>
																<g>
																	<g>
																		<g>
																			<g>
																				<path style="fill:#B78876;" d="M559.36,211.85c0.28-0.08,11.07-1.58,9.18,8.92c-1.88,10.5-12.04,6.45-12,6.14
																					C556.57,226.61,559.36,211.85,559.36,211.85z"/>
																			</g>
																		</g>
																	</g>
																</g>
															</g>
														</g>
													</g>
												</g>
											</g>
										</g>
									</g>
									<g>
										<g>
											<g>
												<g>
													<g>
														<g>
															<g>
																<g>
																	<g>
																		<g>
																			<g>
																				<g>
																					<path style="fill:#AA6550;" d="M560.46,223.51c0.05-0.03,0.16,0.16,0.44,0.36c0.28,0.19,0.78,0.38,1.36,0.27
																						c1.18-0.21,2.43-1.8,2.82-3.69c0.2-0.95,0.16-1.9-0.04-2.71c-0.18-0.83-0.58-1.45-1.12-1.65
																						c-0.53-0.23-0.99,0.04-1.17,0.31c-0.19,0.27-0.16,0.49-0.22,0.5c-0.03,0.02-0.19-0.22-0.03-0.63
																						c0.08-0.2,0.25-0.43,0.53-0.58c0.29-0.16,0.68-0.2,1.06-0.09c0.8,0.2,1.4,1.08,1.62,1.97
																						c0.27,0.91,0.33,1.97,0.11,3.04c-0.45,2.1-1.88,3.89-3.48,4.06c-0.77,0.06-1.35-0.27-1.62-0.58
																						C560.43,223.76,560.42,223.52,560.46,223.51z"/>
																				</g>
																			</g>
																		</g>
																	</g>
																</g>
															</g>
														</g>
													</g>
												</g>
											</g>
										</g>
									</g>
								</g>
								<g>
									<g>
										<g>
											<g>
												<g>
													<path style="fill:#263238;" d="M561.35,180.25c3.22-3.84-3.01-10.95-7.98-13.35c-4.97-2.4-12.2-0.87-17.64,0.09
														c-3.43,0.61-6.91,1.64-10.33,1c-2.29-0.43-4.37-1.6-6.44-2.68c-2.07-1.09-4.23-2.14-6.56-2.32
														c-2.33-0.18-4.88,0.7-6.07,2.71c-1.19,2.01-0.36,5.12,1.88,5.78c-2.69-2.03-7.22-0.54-8.18,2.69
														c-0.96,3.23,2.03,6.95,5.39,6.71c-1.33-1.36-3.91,0.18-4,2.09c-0.09,1.9,1.41,3.51,3.02,4.52
														c4.12,2.58,9.34,2.71,14.12,1.85c4.78-0.87,9.35-2.64,14.11-3.62c4.76-0.98,12.75-2.83,17.05-0.57
														c3.17,1.67,4.9,6.03,6.91,5.41c1.95-0.59,3.38-2.33,4.03-4.26C561.33,184.36,561.34,182.28,561.35,180.25"/>
												</g>
											</g>
										</g>
									</g>
								</g>
							</g>
						</g>
						<g>
							<g>
								<g>
									<g>
										<g>
											<path style="fill:#455A64;" d="M581.92,229.02c0,0,0.21-0.03,0.55-0.24c0.34-0.2,0.8-0.61,1.14-1.3
												c0.32-0.68,0.53-1.64,0.34-2.71c-0.17-1.09-0.88-2.19-1.89-3.09c-1.02-0.9-2.34-1.6-3.78-2.21
												c-1.43-0.62-3.01-1.17-4.43-2.14c-1.42-0.95-2.54-2.43-3.21-4.17c-0.69-1.73-0.97-3.69-0.93-5.68
												c0.11-4.01,1.22-7.75,1.49-11.28c0.33-3.51-0.19-6.84-1.68-9.13c-1.48-2.29-3.54-3.42-4.99-3.75
												c-0.73-0.19-1.32-0.18-1.71-0.17c-0.39,0.04-0.6,0.07-0.59,0.09c0,0.07,0.84-0.12,2.25,0.28
												c1.39,0.38,3.34,1.52,4.72,3.75c1.39,2.22,1.87,5.44,1.51,8.89c-0.29,3.46-1.42,7.2-1.53,11.31
												c-0.04,2.05,0.25,4.08,0.98,5.89c0.71,1.81,1.91,3.39,3.42,4.38c1.5,1,3.11,1.55,4.53,2.14
												c1.43,0.58,2.72,1.24,3.71,2.08c0.98,0.84,1.65,1.86,1.84,2.86c0.2,1,0.04,1.91-0.24,2.57
												C582.81,228.74,581.86,228.96,581.92,229.02z"/>
										</g>
									</g>
								</g>
							</g>
						</g>
						<g>
							<g>
								<g>
									<g>
										<g>
											<path style="fill:#455A64;" d="M507.87,171.24c0.01-0.01-0.15-0.09-0.46-0.24c-0.15-0.08-0.35-0.16-0.59-0.23
												c-0.24-0.09-0.52-0.17-0.85-0.22c-1.27-0.26-3.41-0.05-5.3,1.62l0,0l-0.01,0.01c-1.28,1.45-2.11,3.74-1.89,6.26
												c0.17,2.53,1.55,5.21,3.86,7.13c2.29,1.95,5.41,3.17,8.74,3.52c3.34,0.37,6.85,0.03,10.38-0.64
												c5.75-1.1,10.98-3.3,15.3-5.91c2.18-1.26,4.24-2.47,6.31-3.28c2.06-0.83,4.12-1.19,6-1.23c3.79-0.07,6.76,1.06,8.62,2.04
												c1.87,1,2.75,1.82,2.79,1.76c0,0-0.82-0.88-2.69-1.94c-1.85-1.04-4.85-2.25-8.72-2.23c-1.92,0.01-4.05,0.36-6.16,1.19
												c-2.12,0.81-4.22,2.02-6.4,3.27c-4.31,2.57-9.47,4.73-15.16,5.81c-3.49,0.66-6.96,0.99-10.22,0.65
												c-3.26-0.33-6.27-1.5-8.49-3.36c-2.24-1.84-3.58-4.38-3.76-6.8c-0.24-2.42,0.53-4.62,1.72-6.03l-0.01,0.01
												c1.75-1.61,3.82-1.88,5.06-1.67C507.23,170.91,507.85,171.29,507.87,171.24z"/>
										</g>
									</g>
								</g>
							</g>
						</g>
						<g>
							<g>
								<g>
									<g>
										<g>
											<path style="fill:#455A64;" d="M513.72,162.49c0,0-0.11,0.88,0.37,2.36c0.49,1.46,1.77,3.48,4.14,4.98
												c1.17,0.76,2.58,1.4,4.19,1.74c1.6,0.35,3.37,0.42,5.19,0.27c3.67-0.28,7.52-1.53,11.55-2.58
												c4.02-1.05,8.06-1.59,11.54-0.66c3.48,0.89,6.14,3.01,7.84,5.09c1.73,2.1,2.59,4.18,3,5.64c0.4,1.47,0.45,2.33,0.51,2.32
												c0.02,0,0.01-0.21-0.03-0.62c-0.02-0.41-0.13-1-0.29-1.75c-0.35-1.5-1.18-3.64-2.91-5.83c-1.71-2.16-4.41-4.38-8.01-5.33
												c-3.6-0.99-7.75-0.44-11.79,0.62c-4.06,1.05-7.86,2.31-11.46,2.6c-1.79,0.16-3.51,0.1-5.06-0.21
												c-1.56-0.31-2.94-0.91-4.08-1.62c-2.32-1.42-3.61-3.33-4.15-4.73C513.76,163.36,513.79,162.48,513.72,162.49z"/>
										</g>
									</g>
								</g>
							</g>
						</g>
					</g>
					<g>
						<g>
							<path style="fill:#AA6550;" d="M518.83,228.85c0.18,1.02,0.36,2.06,0.81,2.99c0.46,0.93,1.24,1.76,2.24,2.02
								c1.07,0.28,2.25-0.14,3.04-0.92c0.79-0.77,1.23-1.85,1.41-2.94c0.16-0.99-0.04-2.25-0.99-2.57
								c-0.39-0.13-0.82-0.06-1.23,0.01c-1.85,0.33-3.69,0.67-5.54,1"/>
						</g>
					</g>
					<g>
						<g>
							<g>
								<path style="fill:#263238;" d="M519.8,233.05c0.08-0.15,1.02,0.64,2.75,0.52c0.84-0.06,1.84-0.39,2.59-1.18
									c0.74-0.78,1.23-1.99,1.11-3.23c-0.02-0.31-0.11-0.61-0.2-0.88c-0.13-0.27-0.1-0.25-0.32-0.29c-0.22-0.01-0.6,0.04-0.9,0.06
									c-0.31,0.02-0.62,0.05-0.92,0.07c-1.2,0.09-2.28,0.16-3.19,0.2c-1.82,0.09-2.95,0.08-2.97-0.05c-0.01-0.13,1.1-0.35,2.9-0.6
									c0.9-0.13,1.98-0.26,3.18-0.4c0.3-0.03,0.61-0.07,0.92-0.1c0.33-0.03,0.59-0.09,1.03-0.08c0.21,0.01,0.5,0.06,0.73,0.26
									c0.23,0.19,0.33,0.42,0.41,0.61c0.13,0.37,0.23,0.73,0.26,1.12c0.15,1.55-0.47,3-1.42,3.93c-0.97,0.94-2.21,1.25-3.17,1.23
									c-0.98-0.01-1.73-0.32-2.18-0.61C519.95,233.34,519.77,233.09,519.8,233.05z"/>
							</g>
						</g>
					</g>
				</g>
				<g>
					<g>
						<path style="fill:#AA6550;" d="M514.84,249.3c0,0,10.08,3.82,19.89,1.04c0,0-7.4,6.2-20.9,3.82L514.84,249.3z"/>
					</g>
				</g>
			</g>
			<g>
				<g>
					<g>
						<path style="fill:#FAFAFA;" d="M530.22,392.67c-0.02,0.03-0.52-0.35-1.38-1.05c-0.43-0.36-0.96-0.79-1.61-1.24
							c-0.64-0.46-1.35-1.02-2.19-1.55c-0.83-0.55-1.74-1.15-2.76-1.72c-1-0.62-2.12-1.17-3.29-1.77c-2.37-1.14-5.05-2.23-7.96-3.12
							c-2.91-0.86-5.76-1.41-8.37-1.76c-1.31-0.14-2.55-0.29-3.72-0.33c-1.17-0.09-2.26-0.08-3.25-0.08c-1-0.02-1.9,0.06-2.69,0.09
							c-0.79,0.03-1.47,0.09-2.03,0.16c-1.11,0.11-1.73,0.15-1.73,0.12c-0.01-0.04,0.6-0.15,1.71-0.32
							c0.55-0.09,1.23-0.19,2.03-0.24c0.79-0.06,1.7-0.17,2.7-0.17c1-0.03,2.1-0.06,3.28,0.01c1.18,0.01,2.44,0.16,3.76,0.28
							c2.63,0.33,5.51,0.88,8.46,1.74c2.93,0.89,5.64,2.02,8.02,3.19c1.17,0.62,2.3,1.19,3.3,1.83c1.02,0.59,1.93,1.21,2.75,1.79
							c0.84,0.55,1.53,1.14,2.16,1.63c0.64,0.48,1.15,0.93,1.56,1.32C529.8,392.21,530.24,392.64,530.22,392.67z"/>
					</g>
				</g>
			</g>
			<g>
				<g>
					<g>
						<path style="fill:none;stroke:#4E585D;stroke-width:0.05;stroke-miterlimit:10;" d="M509.85,268.41"/>
					</g>
				</g>
			</g>
			<g>
				<g>
					<g>
						<g>
							<path style="fill:#E8505B;" d="M471.45,341.31l8.21-35.53c3.14-13.36,6.86-26.2,13.11-27.72v4.13l-2.67,101.51
								c0,0-16.72,19.04-38.04,8.45c-6.66-3.31-18.81-26.56-18.81-26.56s-28.23-50.45-27.06-52.74
								c1.17-2.29,18.45-24.55,20.21-25.66L471.45,341.31z"/>
						</g>
					</g>
					<g>
						<g>
							<g>
								<g>
									<g>
										<path style="fill:#E8505B;" d="M555.83,268.04c16.3,3.12,34.65,12.63,43.1,36.98c3.08,8.9,25.53,74.5,25.53,74.5
											l-38.28-0.8l-6.23-13.53l3.04,21.94l2.59,31.31l-96.64,1.62l0.68-47.15l0.93-93.8c0,0,1.09-1.42,17.75-10.62
											C518.65,262.8,555.83,268.04,555.83,268.04z"/>
									</g>
								</g>
							</g>
						</g>
					</g>
					<g style="opacity:0.2;">
						<g>
							<g>
								<path d="M565.47,330.74c1.59,19.8,3.41,25.92,5,45.72c0.15,1.87,0.31,3.78,1.04,5.5c0.74,1.73,2.16,3.27,4,3.64
									c2.81,0.57,6.47,2.61,7.27-0.15l-2.67-19.07c0,0-0.63-3.59-2.64-8.05C571.54,345.17,569.35,344.4,565.47,330.74"/>
							</g>
						</g>
					</g>
					<g>
						<g>
							<path style="fill:#E8505B;" d="M508.3,278.66l0.32-2.06l3.09-19.76c0.19-1.19,1.26-2.04,2.46-1.94l38.05,3.18
								c2.39,0.2,4.17,2.29,4,4.68l-0.85,11.48l-11.88,15.5l-17.11,2.67"/>
						</g>
					</g>
					<g>
						<g>
							<g>
								<path style="fill:#263238;" d="M489.19,315.81c0.14,0,0.26,15.48,0.26,34.57c0,19.1-0.12,34.57-0.26,34.57
									c-0.14,0-0.26-15.48-0.26-34.57C488.93,331.29,489.05,315.81,489.19,315.81z"/>
							</g>
						</g>
					</g>
					<g>
						<g>
							<g>
								<path style="fill:#263238;" d="M586.99,381.89c-0.01,0-0.05-0.07-0.12-0.22c-0.08-0.18-0.19-0.4-0.31-0.68
									c-0.28-0.64-0.67-1.52-1.16-2.63c-1-2.33-2.43-5.64-4.18-9.71c-3.49-8.25-8.29-19.59-13.59-32.11
									c-2.63-6.28-5.14-12.26-7.43-17.71c-1.21-2.69-2.02-5.45-2.46-8.04c-0.46-2.6-0.64-5.05-0.66-7.29
									c-0.05-4.48,0.62-8.11,1.52-10.45c0.11-0.29,0.21-0.57,0.31-0.83c0.12-0.25,0.24-0.48,0.35-0.7c0.21-0.44,0.4-0.8,0.6-1.06
									c0.17-0.25,0.31-0.45,0.43-0.62c0.1-0.14,0.15-0.2,0.16-0.2c0.07,0.04-0.84,1.12-1.65,3.48c-0.83,2.34-1.44,5.93-1.35,10.38
									c0.12,4.42,0.72,9.8,3.19,15.15c2.3,5.44,4.82,11.42,7.46,17.69c5.25,12.55,10,23.9,13.45,32.17
									c1.69,4.1,3.06,7.43,4.02,9.77c0.45,1.13,0.81,2.02,1.07,2.67c0.11,0.28,0.2,0.51,0.27,0.7
									C586.97,381.81,587,381.89,586.99,381.89z"/>
							</g>
						</g>
					</g>
					<g>
						<g>
							<g>
								<path style="fill:#FAFAFA;" d="M567.69,271.49c0,0-0.35,0.37-1.11,0.96c-0.76,0.6-1.96,1.38-3.65,2.13
									c-1.69,0.73-3.86,1.38-6.43,1.8c-2.57,0.43-5.52,0.7-8.8,0.87c-3.27,0.15-6.86,0.08-10.7,0.16
									c-3.83,0.09-7.95,0.33-12.1,1.47c-4.11,1.11-8.36,3.16-11.38,6.71c-1.48,1.77-2.59,3.92-3.16,6.24
									c-0.59,2.31-0.6,4.82,0.11,7.15c0.38,1.16,0.96,2.24,1.68,3.2c0.73,0.95,1.66,1.73,2.7,2.28c1.03,0.55,2.21,0.83,3.34,0.7
									c1.13-0.11,2.2-0.67,2.93-1.51c1.5-1.71,1.78-4.17,1.48-6.33c-0.16-1.09-0.48-2.16-0.95-3.12
									c-0.48-0.96-1.11-1.86-1.78-2.68c-2.74-3.3-6.57-5.21-10.25-6.07c-3.71-0.88-7.36-0.7-10.5,0.12
									c-3.16,0.79-5.83,2.09-8.04,3.44c-2.21,1.34-3.95,2.75-5.32,3.96c-1.37,1.2-2.34,2.24-3.02,2.92
									c-0.31,0.34-0.56,0.6-0.75,0.8c-0.17,0.18-0.26,0.27-0.27,0.26c0,0,1.21-1.64,3.9-4.14c1.35-1.23,3.09-2.68,5.3-4.05
									c2.21-1.38,4.9-2.72,8.1-3.54c3.17-0.86,6.89-1.06,10.68-0.18c3.76,0.87,7.69,2.79,10.52,6.19
									c0.69,0.86,1.33,1.76,1.85,2.77c0.5,1.02,0.84,2.13,1,3.27c0.17,1.14,0.17,2.33-0.06,3.5c-0.23,1.16-0.7,2.32-1.53,3.24
									c-0.82,0.92-2,1.55-3.25,1.67c-1.25,0.14-2.53-0.17-3.64-0.76c-1.11-0.59-2.1-1.41-2.87-2.42
									c-0.76-1.01-1.36-2.14-1.76-3.36c-0.75-2.45-0.73-5.05-0.12-7.44c0.6-2.4,1.73-4.61,3.27-6.45
									c3.13-3.66,7.47-5.73,11.64-6.85c4.21-1.14,8.37-1.37,12.22-1.44c3.85-0.06,7.43,0.03,10.69-0.09
									c3.26-0.14,6.21-0.39,8.77-0.79c2.56-0.39,4.72-1.01,6.4-1.7c1.68-0.71,2.89-1.45,3.66-2.02c0.4-0.27,0.67-0.52,0.87-0.66
									C567.58,271.56,567.69,271.48,567.69,271.49z"/>
							</g>
						</g>
					</g>
					<g>
						<g>
							<g>
								<path style="fill:#FAFAFA;" d="M600.76,313.11c0,0.02-0.15,0.04-0.43,0.07c-0.28,0.02-0.69,0.08-1.23,0.09
									c-1.07,0.05-2.62,0.04-4.53-0.11c-1.91-0.14-4.17-0.43-6.67-0.77c-2.5-0.34-5.24-0.72-8.14-0.88
									c-2.89-0.14-5.65,0.08-8.1,0.61c-2.44,0.54-4.56,1.36-6.17,2.35c-3.27,1.96-4.45,4.16-4.56,4.04
									c-0.01-0.01,0.06-0.14,0.21-0.37c0.17-0.23,0.36-0.6,0.73-1c0.66-0.85,1.8-1.95,3.43-2.98c1.62-1.05,3.78-1.92,6.26-2.5
									c2.49-0.56,5.3-0.8,8.23-0.66c2.93,0.16,5.68,0.56,8.18,0.92c2.5,0.37,4.74,0.7,6.64,0.88c1.89,0.19,3.43,0.26,4.5,0.27
									C600.17,313.08,600.76,313.07,600.76,313.11z"/>
							</g>
						</g>
					</g>
					<g>
						<g>
							<g>
								<path style="fill:#FAFAFA;" d="M576.73,357.94c-0.01,0.13-2.01-0.71-5.74-0.49c-1.86,0.09-4.11,0.48-6.66,1.19
									c-2.56,0.69-5.4,1.7-8.6,2.69c-3.18,0.98-6.81,1.91-10.78,1.88c-3.95,0-8.2-0.78-12.28-2.55c-4.1-1.72-8.03-4.47-11.2-8.14
									c-1.59-1.82-2.98-3.91-3.97-6.22c-0.97-2.31-1.51-4.91-1.14-7.51c0.38-2.57,1.59-5.03,3.55-6.69
									c0.98-0.82,2.12-1.46,3.37-1.72c1.24-0.27,2.53-0.22,3.72,0.12c1.19,0.34,2.32,0.91,3.21,1.76c0.89,0.84,1.56,1.92,1.8,3.11
									c0.26,1.18,0.14,2.42-0.27,3.51c-0.41,1.1-1.09,2.05-1.87,2.87c-1.57,1.63-3.52,2.72-5.49,3.49
									c-0.99,0.37-2.01,0.66-3.01,0.83c-0.5,0.09-1,0.2-1.5,0.28c-0.5,0.06-0.99,0.12-1.49,0.17c-3.94,0.43-7.65,0-10.91-0.76
									c-3.27-0.78-6.09-1.96-8.43-3.24c-2.34-1.27-4.2-2.64-5.61-3.88c-0.35-0.31-0.68-0.6-1-0.87c-0.29-0.29-0.56-0.57-0.82-0.83
									c-0.52-0.5-0.93-0.95-1.24-1.34c-0.3-0.36-0.54-0.65-0.72-0.86c-0.16-0.2-0.24-0.3-0.23-0.3c0.01-0.01,0.1,0.09,0.27,0.27
									c0.19,0.2,0.44,0.48,0.75,0.83c0.32,0.37,0.74,0.81,1.27,1.3c0.26,0.25,0.54,0.52,0.83,0.8c0.32,0.27,0.65,0.55,1.01,0.85
									c1.42,1.21,3.28,2.54,5.62,3.78c2.33,1.24,5.13,2.39,8.37,3.14c3.23,0.73,6.9,1.14,10.78,0.69
									c0.48-0.06,0.97-0.12,1.46-0.18c0.49-0.08,0.98-0.19,1.47-0.28c1-0.17,1.97-0.46,2.94-0.82c1.91-0.75,3.81-1.82,5.31-3.39
									c0.74-0.78,1.38-1.69,1.76-2.71c0.38-1.02,0.49-2.15,0.24-3.24c-0.46-2.19-2.42-3.9-4.66-4.48
									c-1.12-0.32-2.33-0.36-3.47-0.1c-1.15,0.24-2.23,0.84-3.14,1.62c-1.84,1.57-3.01,3.91-3.37,6.37
									c-0.35,2.47,0.16,4.99,1.11,7.23c0.96,2.25,2.31,4.3,3.88,6.09c3.11,3.61,6.97,6.32,11,8.03c4.02,1.75,8.2,2.54,12.09,2.56
									c3.91,0.05,7.49-0.84,10.67-1.8c3.19-0.96,6.06-1.95,8.63-2.61c2.57-0.68,4.85-1.05,6.73-1.11
									c0.94-0.07,1.77,0.02,2.49,0.04c0.71,0.1,1.33,0.15,1.81,0.27c0.46,0.11,0.82,0.2,1.09,0.27
									C576.61,357.89,576.73,357.93,576.73,357.94z"/>
							</g>
						</g>
					</g>
					<g>
						<g>
							<g>
								<path style="fill:#FAFAFA;" d="M488.86,347.27c-0.08,0.04-0.54-1.06-1.51-2.69c-0.97-1.63-2.52-3.76-4.63-5.74
									c-2.12-1.97-4.35-3.37-6.05-4.22c-1.69-0.85-2.82-1.24-2.79-1.32c0.01-0.03,0.3,0.03,0.82,0.18
									c0.52,0.14,1.25,0.42,2.13,0.81c1.76,0.78,4.08,2.16,6.24,4.17c2.16,2.02,3.7,4.23,4.59,5.94c0.45,0.85,0.77,1.56,0.95,2.07
									C488.8,346.98,488.89,347.26,488.86,347.27z"/>
							</g>
						</g>
					</g>
					<g>
						<g>
							<g>
								<path style="fill:#FAFAFA;" d="M450.06,390.07c-0.01,0-0.06-0.08-0.16-0.25c-0.11-0.2-0.24-0.44-0.41-0.75
									c-0.36-0.67-0.88-1.65-1.52-2.94c-1.26-2.57-3.12-6.32-4.58-11.26c-0.7-2.47-1.29-5.26-1.43-8.29
									c-0.09-1.52-0.01-3.1,0.19-4.7c0.23-1.6,0.63-3.23,1.18-4.85c1.17-3.2,3.02-6.43,5.87-8.88c2.79-2.44,6.64-4.15,10.67-3.74
									c1.98,0.21,3.96,1.02,5.26,2.56c1.28,1.5,1.9,3.56,1.48,5.47c-0.21,0.95-0.72,1.83-1.42,2.47
									c-0.69,0.66-1.56,1.09-2.44,1.33c-1.79,0.5-3.69,0.18-5.22-0.63c-1.55-0.8-2.81-1.98-3.82-3.25
									c-1.01-1.28-1.8-2.66-2.4-4.06c-1.17-2.82-1.55-5.72-1.34-8.3c0.21-2.59,1.01-4.85,1.98-6.65c0.97-1.81,2.11-3.19,3.13-4.2
									c1.03-1.01,1.94-1.68,2.58-2.08c0.31-0.21,0.57-0.34,0.74-0.44c0.17-0.09,0.26-0.14,0.26-0.13
									c0.01,0.02-0.33,0.23-0.94,0.66c-0.62,0.43-1.49,1.12-2.49,2.14c-0.99,1.02-2.09,2.4-3.02,4.2
									c-0.93,1.79-1.69,4.01-1.87,6.54c-0.18,2.53,0.2,5.35,1.37,8.1c0.59,1.37,1.37,2.71,2.36,3.95
									c0.99,1.23,2.21,2.36,3.68,3.11c1.46,0.76,3.22,1.05,4.87,0.58c1.65-0.42,3.13-1.7,3.49-3.44c0.38-1.71-0.19-3.64-1.38-5.02
									c-1.18-1.4-3.04-2.18-4.92-2.38c-3.84-0.39-7.58,1.25-10.28,3.61c-2.77,2.38-4.59,5.53-5.75,8.66
									c-0.55,1.59-0.94,3.18-1.18,4.75c-0.2,1.58-0.3,3.12-0.21,4.62c0.12,2.99,0.69,5.75,1.36,8.21c1.4,4.92,3.2,8.68,4.41,11.27
									c0.61,1.27,1.08,2.26,1.43,2.98c0.15,0.32,0.27,0.58,0.37,0.78C450.03,389.98,450.06,390.07,450.06,390.07z"/>
							</g>
						</g>
					</g>
					<g>
						<g>
							<g>
								<path style="fill:#FAFAFA;" d="M437.71,301.79c0.02,0,0.05,0.14,0.09,0.42c0.04,0.28,0.11,0.68,0.15,1.21
									c0.1,1.06,0.15,2.6-0.01,4.49c-0.28,3.77-1.62,9.04-4.94,13.86c-3.32,4.82-7.76,7.96-11.18,9.57
									c-1.71,0.82-3.17,1.33-4.19,1.61c-0.51,0.16-0.91,0.23-1.18,0.3c-0.27,0.06-0.42,0.08-0.42,0.06
									c-0.01-0.04,0.55-0.21,1.54-0.55c1-0.34,2.42-0.9,4.09-1.75c3.33-1.68,7.66-4.81,10.92-9.54c3.25-4.73,4.62-9.89,5-13.6
									c0.2-1.87,0.21-3.39,0.17-4.44C437.71,302.38,437.67,301.79,437.71,301.79z"/>
							</g>
						</g>
					</g>
					<g>
						<g>
							<g>
								<path style="fill:#FAFAFA;" d="M609.51,345.15c0.07,0.09-1.89,0.9-3.86,3.53c-0.99,1.29-1.99,2.95-3.13,4.8
									c-1.14,1.85-2.56,3.8-4.27,5.65c-3.43,3.71-7.3,6.25-10.25,7.7c-1.47,0.75-2.72,1.22-3.58,1.53
									c-0.87,0.29-1.36,0.43-1.37,0.39s0.45-0.24,1.3-0.58c0.84-0.37,2.05-0.89,3.49-1.67c2.87-1.52,6.66-4.07,10.03-7.73
									c1.69-1.83,3.09-3.73,4.25-5.55c1.16-1.82,2.2-3.49,3.25-4.77c1.05-1.28,2.08-2.17,2.87-2.66c0.39-0.25,0.71-0.42,0.93-0.51
									C609.39,345.18,609.51,345.13,609.51,345.15z"/>
							</g>
						</g>
					</g>
				</g>
				<g>
					<g>
						<g>
							<path style="fill:#263238;" d="M555.47,269.2c0,0.02-0.16,0.06-0.46,0.12c-0.36,0.06-0.8,0.14-1.33,0.24
								c-1.16,0.19-2.84,0.45-4.91,0.73c-4.16,0.56-9.92,1.21-16.3,1.68c-3.19,0.23-6.24,0.44-9.03,0.33
								c-2.79-0.1-5.29-0.56-7.29-1.25c-2.01-0.67-3.5-1.56-4.45-2.25c-0.48-0.35-0.83-0.64-1.05-0.86
								c-0.23-0.21-0.34-0.33-0.33-0.34c0.03-0.04,0.52,0.4,1.49,1.03c0.97,0.63,2.46,1.45,4.45,2.07c1.98,0.63,4.44,1.04,7.19,1.12
								c2.75,0.09,5.79-0.13,8.98-0.36c6.37-0.47,12.13-1.06,16.3-1.53c2.02-0.23,3.68-0.42,4.93-0.56
								C554.82,269.22,555.46,269.17,555.47,269.2z"/>
						</g>
					</g>
				</g>
			</g>
			<g>
				<g>
					<g>
						<g>
							<g>
								<g>
									<path style="fill:#B78876;" d="M623.96,386.59c3.17,16.46-9.35,31.77-26.12,31.94l-75.74-0.84l1.99-24.53l64.94-9.69"/>
								</g>
							</g>
							<g>
								<g>
									<g>
										<path style="fill:#B78876;" d="M528.78,394.29c-0.35,0.12-4.72-1.85-8.64-3.66c-4.16-1.92-8.72-2.81-13.3-2.58
											l-18.06,0.92c0,0,1.11,2.98,3.03,4.04c1.91,1.06,13.14,1.29,13.14,1.29l-0.57,0.59c-2.37,2.44-5.59,3.85-8.99,3.93
											l-1.73,0.04c-1.28-0.1-2.54-0.35-3.77-0.74l-4.45-1.8c-1.35-0.61-2.77-0.51-3.36,0.85c-0.53,1.23-0.14,2.92,3.54,4.77
											c2.06,1.04,9.68,3.67,9.68,3.67s0.11,2.11,0.44,3.22c0.33,1.11,3.33,2.22,3.33,2.22s1.89,3.88,2.66,4.77
											c0.35,0.4,3.06,1.24,5.94,2.05c4.66,1.31,9.59,1.28,14.23-0.11l6.88-2.05v-20.96"/>
									</g>
								</g>
							</g>
						</g>
						<g>
							<g>
								<g>
									<path style="fill:#AA6550;" d="M504.08,407.98c-0.01,0.12-2.15,0.01-4.69-0.67c-2.55-0.67-4.47-1.62-4.42-1.73
										c0.05-0.12,2.02,0.64,4.53,1.29C502.01,407.54,504.09,407.85,504.08,407.98z"/>
								</g>
							</g>
						</g>
						<g>
							<g>
								<g>
									<path style="fill:#AA6550;" d="M503.44,412.21c0,0.12-1.17,0.19-2.54-0.18c-1.38-0.37-2.34-1.02-2.28-1.13
										c0.06-0.12,1.08,0.34,2.4,0.69C502.34,411.95,503.45,412.08,503.44,412.21z"/>
								</g>
							</g>
						</g>
					</g>
					<g>
						<g>
							<g>
								<path style="fill:#AA6550;" d="M506.74,392.66c0.04,0.04-0.48,0.63-1.39,1.49c-0.92,0.86-2.26,2-3.93,2.98
									c-1.68,0.98-3.37,1.53-4.61,1.78c-1.24,0.25-2.03,0.27-2.03,0.22c-0.04-0.16,3.13-0.46,6.42-2.39
									c1.64-0.95,2.98-2.04,3.95-2.83C506.1,393.12,506.7,392.61,506.74,392.66z"/>
							</g>
						</g>
					</g>
				</g>
				<g>
					<g>
						<path style="fill:#E8505B;" d="M530.62,390.98l-1.84,27.74l71.35,0.03c4.84,0,9.6-1.31,13.75-3.81l0,0
							c9.64-5.79,14.61-16.99,12.44-28.02c-0.73-4.51-2.45-9.78-4.6-15.39l-35.87,5.9l1.15,4.47L530.62,390.98z"/>
					</g>
				</g>
				<g>
					<g>
						<g>
							<path style="fill:#263238;" d="M603.52,379.58c0,0.02-0.25,0.07-0.72,0.17c-0.53,0.09-1.22,0.22-2.08,0.37
								c-1.87,0.31-4.48,0.75-7.68,1.28c-6.54,1.04-15.48,2.46-25.36,4.04c-9.89,1.51-18.84,2.88-25.39,3.89
								c-3.21,0.47-5.83,0.85-7.7,1.12c-0.87,0.12-1.57,0.21-2.1,0.28c-0.48,0.06-0.73,0.08-0.74,0.06c0-0.02,0.25-0.07,0.72-0.17
								c0.53-0.09,1.22-0.22,2.08-0.37c1.87-0.31,4.48-0.75,7.68-1.28c6.54-1.04,15.48-2.46,25.36-4.04
								c9.89-1.51,18.83-2.88,25.38-3.88c3.21-0.47,5.83-0.85,7.7-1.12c0.87-0.12,1.57-0.21,2.1-0.28
								C603.26,379.58,603.51,379.56,603.52,379.58z"/>
						</g>
					</g>
				</g>
				<g>
					<g>
						<g>
							<path style="fill:#FAFAFA;" d="M567.01,418.76c-0.12-0.02,0.43-2,0.5-5.27c0-0.82,0.02-1.71-0.1-2.66
								c-0.05-0.96-0.25-1.96-0.44-3.02c-0.46-2.1-1.21-4.36-2.32-6.58c-1.12-2.22-2.52-4.15-3.9-5.8c-0.36-0.4-0.71-0.79-1.05-1.17
								c-0.35-0.38-0.72-0.7-1.06-1.04c-0.67-0.69-1.38-1.24-2-1.77c-2.55-2.05-4.36-3-4.3-3.09c0.02-0.03,0.47,0.2,1.28,0.65
								c0.4,0.22,0.9,0.49,1.44,0.87c0.53,0.38,1.19,0.75,1.82,1.29c0.64,0.52,1.37,1.06,2.06,1.74c0.35,0.34,0.73,0.66,1.09,1.04
								c0.35,0.38,0.71,0.78,1.08,1.18c1.43,1.66,2.86,3.61,4,5.88c1.13,2.27,1.88,4.58,2.33,6.72c0.18,1.08,0.37,2.11,0.4,3.08
								c0.1,0.97,0.06,1.88,0.04,2.71c0.01,0.83-0.14,1.57-0.2,2.22c-0.06,0.65-0.19,1.21-0.29,1.66
								C567.17,418.28,567.04,418.77,567.01,418.76z"/>
						</g>
					</g>
				</g>
				<g>
					<g>
						<g>
							<path style="fill:#FAFAFA;" d="M610.44,416.67c0,0-1.2,0.05-3.31-0.4c-1.04-0.25-2.33-0.61-3.7-1.3
								c-1.37-0.69-2.85-1.68-4.17-3.11c-1.31-1.42-2.47-3.29-3.07-5.5c-0.28-1.11-0.51-2.28-0.53-3.49
								c-0.08-1.21,0.03-2.48,0.3-3.74c0.28-1.26,0.74-2.52,1.48-3.67c0.72-1.15,1.75-2.17,3-2.85c1.24-0.69,2.7-1.08,4.18-0.96
								c1.48,0.1,2.95,0.84,3.92,2.03c0.97,1.17,1.52,2.71,1.31,4.22c-0.2,1.53-1.24,2.78-2.46,3.51c-2.5,1.49-5.39,1.47-7.89,1.08
								c-5.11-0.85-9.09-3.9-11.16-7.15c-2.14-3.26-2.68-6.48-2.74-8.61c-0.06-2.16,0.28-3.32,0.28-3.32
								c0.07,0.01-0.21,1.18-0.08,3.31c0.13,2.1,0.71,5.25,2.85,8.42c2.07,3.14,5.97,6.08,10.93,6.88c2.43,0.37,5.23,0.35,7.54-1.04
								c1.12-0.68,2.04-1.81,2.21-3.15c0.18-1.33-0.31-2.74-1.2-3.81c-0.89-1.09-2.2-1.74-3.56-1.84c-1.36-0.12-2.73,0.25-3.89,0.89
								c-2.38,1.29-3.73,3.78-4.25,6.18c-0.27,1.21-0.38,2.44-0.31,3.62c0.01,1.18,0.22,2.32,0.49,3.39
								c0.56,2.15,1.67,3.97,2.92,5.37c1.27,1.41,2.7,2.39,4.03,3.09c1.34,0.7,2.59,1.08,3.62,1.37
								C609.25,416.58,610.45,416.6,610.44,416.67z"/>
						</g>
					</g>
				</g>
			</g>
		</g>
	</g>
</g>
<g id="Character_1">
	<g>
		<g>
			<g>
				<path style="fill:#E8505B;" d="M327.41,114.47H148.72c-21.75,0-39.38,17.63-39.38,39.38v63.68H70.79l38.56,38.56v43.28
					c0,21.75,17.63,39.38,39.38,39.38h178.69c21.75,0,39.38-17.63,39.38-39.38V153.85C366.79,132.1,349.16,114.47,327.41,114.47z"/>
			</g>
		</g>
		<g>
			<g>
				<g>
					<g>
						<g>
							<path style="fill:#263238;" d="M254.41,121.2c-1.13,2.92,0.81,6.12,2.99,8.37c2.18,2.26,4.81,4.4,5.5,7.46
								c0.57,2.57-0.38,5.24-0.15,7.86c0.24,2.68,1.68,5.09,2.5,7.65c1.49,4.64,0.89,9.71-0.44,14.4c-1.09,3.85-2.7,7.63-5.36,10.61
								c-2.66,2.98-6.49,5.09-10.48,5.02c-1.13-0.02-2.36-0.27-3.1-1.12c-0.64-0.74-0.78-1.78-0.9-2.75
								c-2.29-20.11-2.29-40.48-0.01-60.59"/>
						</g>
					</g>
					<g>
						<g>
							<path style="fill:#263238;" d="M252.3,186.09c8.7-0.38,16.74,7.95,16.05,16.63c8.81,2.14,15.03,11.84,13.31,20.74
								c-0.57,2.94-1.87,5.74-2.05,8.72c-0.2,3.26,0.96,6.42,1.59,9.63c1.14,5.79,0.52,11.91-1.74,17.36
								c-1.37,3.31-3.93,6.73-7.51,6.83c-2.43,0.07-4.68-1.51-6.04-3.53c-1.35-2.02-1.95-4.45-2.43-6.83
								c-1.55-7.81-2.02-15.84-4.16-23.51c-2.14-7.67-6.31-15.23-13.25-19.14c-3.83-2.16-8.43-3.18-11.48-6.36
								c-3.19-3.33-3.92-8.6-2.25-12.9c1.67-4.3,5.47-7.58,9.8-9.15"/>
						</g>
					</g>
					<g>
						<g>
							<g>
								<g>
									<path style="fill:#263238;" d="M192.08,128.37c-0.11-3.72,3.33-6.59,6.79-7.95c3.46-1.36,7.31-1.88,10.39-3.95
										c2.73-1.84,4.57-4.71,6.88-7.05c5.67-5.75,14.53-8.13,22.32-6.01c7.79,2.13,14.21,8.68,16.18,16.51
										c1.33,5.29,0.42,11.55-3.75,15.07c-4.84,4.08-12.02,3.18-18.23,1.91c-6.21-1.27-13.23-2.52-18.41,1.12
										c-3.12,2.2-4.92,5.77-6.83,9.08c-1.91,3.31-4.31,6.69-7.92,7.93c-3.61,1.24-8.52-0.9-8.66-4.72"/>
								</g>
							</g>
						</g>
						<g>
							<g>
								<g>
									<g>
										<g>
											<g>
												<g>
													<g>
														<g>
															<g>
																<g>
																	<g>
																		<g>
																			<g>
																				<g>
																					<g>
																						<path style="fill:#FFBE9D;" d="M206.74,129.13c-3.21,0.35-5.62,3.09-5.55,6.32l0,0l3.71,84
																							c0.16,9.92,14.66,15.5,25.28,15.25l0,0c10.73-0.25,11.07-5.51,11.21-14.95c0.22-15.77,0.21-21.69,0.21-21.6
																							c0,0,13.55-2.28,16.32-19.97c1.38-8.8,0.9-23.22,0.13-35c-0.69-10.61-7.75-23.61-18.32-22.47L206.74,129.13z"
																							/>
																					</g>
																				</g>
																			</g>
																		</g>
																	</g>
																</g>
															</g>
														</g>
													</g>
													<g>
														<g>
															<g>
																<g>
																	<g>
																		<g>
																			<g>
																				<g>
																					<g>
																						<g>
																							<path style="fill:#263238;" d="M255,154.29c0.05,1.2-0.93,2.22-2.18,2.29c-1.25,0.07-2.3-0.84-2.34-2.04
																								c-0.04-1.2,0.93-2.22,2.18-2.29C253.91,152.18,254.96,153.09,255,154.29z"/>
																						</g>
																					</g>
																				</g>
																			</g>
																		</g>
																	</g>
																</g>
															</g>
														</g>
														<g>
															<g>
																<g>
																	<g>
																		<g>
																			<g>
																				<g>
																					<g>
																						<g>
																							<g>
																								<path style="fill:#263238;" d="M254.94,150.69c-0.28,0.3-2-0.97-4.44-0.96c-2.44-0.02-4.23,1.24-4.49,0.94
																									c-0.13-0.13,0.16-0.67,0.93-1.24c0.77-0.57,2.07-1.12,3.6-1.12c1.52,0,2.8,0.56,3.54,1.13
																									C254.82,150.02,255.08,150.56,254.94,150.69z"/>
																							</g>
																						</g>
																					</g>
																				</g>
																			</g>
																		</g>
																	</g>
																</g>
															</g>
														</g>
													</g>
													<g>
														<g>
															<g>
																<g>
																	<g>
																		<g>
																			<g>
																				<g>
																					<g>
																						<g>
																							<path style="fill:#263238;" d="M231.55,154.29c0.05,1.2-0.93,2.22-2.18,2.29c-1.25,0.07-2.3-0.84-2.34-2.04
																								c-0.04-1.2,0.93-2.22,2.18-2.29C230.46,152.18,231.51,153.09,231.55,154.29z"/>
																						</g>
																					</g>
																				</g>
																			</g>
																		</g>
																	</g>
																</g>
															</g>
														</g>
														<g>
															<g>
																<g>
																	<g>
																		<g>
																			<g>
																				<g>
																					<g>
																						<g>
																							<g>
																								<path style="fill:#263238;" d="M230.95,151.2c-0.28,0.3-2-0.97-4.44-0.96c-2.44-0.02-4.23,1.24-4.49,0.94
																									c-0.13-0.13,0.15-0.67,0.93-1.24c0.77-0.57,2.07-1.12,3.59-1.12c1.52,0.01,2.8,0.56,3.54,1.13
																									C230.83,150.53,231.09,151.07,230.95,151.2z"/>
																							</g>
																						</g>
																					</g>
																				</g>
																			</g>
																		</g>
																	</g>
																</g>
															</g>
														</g>
													</g>
													<g>
														<g>
															<g>
																<g>
																	<g>
																		<g>
																			<g>
																				<g>
																					<g>
																						<g>
																							<path style="fill:#263238;" d="M239.85,169.28c-0.01-0.14,1.5-0.4,3.96-0.72c0.62-0.07,1.21-0.19,1.32-0.62
																								c0.15-0.45-0.12-1.12-0.42-1.85c-0.59-1.51-1.21-3.09-1.85-4.74c-2.57-6.75-4.44-12.3-4.17-12.4
																								c0.27-0.1,2.58,5.29,5.16,12.04c0.62,1.66,1.21,3.25,1.78,4.77c0.24,0.71,0.64,1.51,0.33,2.45
																								c-0.17,0.47-0.62,0.8-1.02,0.91c-0.4,0.12-0.75,0.13-1.06,0.15C241.39,169.4,239.86,169.42,239.85,169.28z"
																								/>
																						</g>
																					</g>
																				</g>
																			</g>
																		</g>
																	</g>
																</g>
															</g>
														</g>
													</g>
													<g>
														<g>
															<g>
																<g>
																	<g>
																		<g>
																			<g>
																				<g>
																					<g>
																						<path style="fill:#EB996E;" d="M241.6,198.16c0,0-11.9,0.79-23.7-6.27c0,0,5.77,12.14,23.47,10.44
																							L241.6,198.16z"/>
																					</g>
																				</g>
																			</g>
																		</g>
																	</g>
																</g>
															</g>
														</g>
													</g>
													<g>
														<g>
															<g>
																<g>
																	<g>
																		<g>
																			<g>
																				<g>
																					<g>
																						<path style="fill:#EB996E;" d="M238.83,175.16c-0.88-1.16-2.42-1.79-3.95-1.62
																							c-1.06,0.12-2.13,0.63-2.77,1.49c-0.64,0.86-0.77,2.09-0.19,2.91c0.66,0.92,2.04,1.14,3.2,0.8
																							c1.16-0.33,2.16-1.1,3.12-1.87c0.26-0.21,0.53-0.43,0.7-0.72c0.16-0.29,0.2-0.67-0.01-0.91"/>
																					</g>
																				</g>
																			</g>
																		</g>
																	</g>
																</g>
															</g>
														</g>
													</g>
													<g>
														<g>
															<g>
																<g>
																	<g>
																		<g>
																			<g>
																				<g>
																					<g>
																						<g>
																							<path style="fill:#263238;" d="M232.67,170.98c0.4-0.02,0.41,2.63,2.68,4.5c2.27,1.88,5.09,1.58,5.11,1.95
																								c0.04,0.17-0.63,0.52-1.82,0.55c-1.17,0.04-2.88-0.33-4.27-1.48c-1.39-1.15-1.98-2.69-2.08-3.77
																								C232.19,171.63,232.49,170.97,232.67,170.98z"/>
																						</g>
																					</g>
																				</g>
																			</g>
																		</g>
																	</g>
																</g>
															</g>
														</g>
													</g>
												</g>
											</g>
										</g>
										<g>
											<g>
												<g>
													<g>
														<g>
															<g>
																<g>
																	<g>
																		<g>
																			<path style="fill:#263238;" d="M232.04,146.92c-0.24,0.66-2.68,0.35-5.54,0.71c-2.87,0.29-5.18,1.14-5.56,0.54
																				c-0.17-0.28,0.23-0.91,1.16-1.55c0.92-0.64,2.4-1.26,4.12-1.45c1.72-0.19,3.29,0.08,4.34,0.5
																				C231.61,146.09,232.14,146.61,232.04,146.92z"/>
																		</g>
																	</g>
																</g>
															</g>
														</g>
													</g>
												</g>
											</g>
										</g>
										<g>
											<g>
												<g>
													<g>
														<g>
															<g>
																<g>
																	<g>
																		<g>
																			<path style="fill:#263238;" d="M254.03,143.63c-0.43,0.56-2.11-0.02-4.13-0.04c-2.02-0.09-3.73,0.38-4.13-0.2
																				c-0.17-0.28,0.1-0.84,0.84-1.36c0.74-0.52,1.97-0.95,3.36-0.92c1.39,0.04,2.59,0.54,3.3,1.11
																				C253.98,142.79,254.21,143.36,254.03,143.63z"/>
																		</g>
																	</g>
																</g>
															</g>
														</g>
													</g>
												</g>
											</g>
										</g>
									</g>
								</g>
							</g>
						</g>
						<g>
							<g>
								<g>
									<path style="fill:#263238;" d="M194.39,187.31c4.86,0.98,10.16-0.51,13.79-3.89c3.63-3.38,5.51-8.55,4.89-13.47
										c-0.55-4.34-2.89-8.76-1.39-12.87c1.99-5.44,9.61-7.11,11.63-12.53c1.18-3.15,0.12-6.84,1.45-9.93
										c1.25-2.9,4.31-4.58,7.28-5.65c2.97-1.08,6.16-1.82,8.66-3.76s4.06-5.61,2.44-8.33c-13.19,1.58-26.2,4.74-38.64,9.39
										c-2.89,1.08-5.92,2.37-7.62,4.94c-1.81,2.71-1.72,6.22-1.57,9.48C196.07,156.56,193.65,171.43,194.39,187.31"/>
								</g>
							</g>
						</g>
					</g>
					<g>
						<g>
							<g>
								<path style="fill:#455A64;" d="M190.18,182.33c0,0.01-0.1-0.02-0.29-0.09c-0.19-0.06-0.46-0.19-0.81-0.39
									c-0.67-0.4-1.57-1.23-2.21-2.61c-0.63-1.36-1-3.26-0.58-5.37c0.42-2.11,1.64-4.28,3.21-6.42c1.55-2.16,3.51-4.35,4.85-7.14
									c0.66-1.39,1.15-2.93,1.17-4.56c0.03-1.63-0.49-3.26-1.04-4.92c-0.56-1.65-1.11-3.45-1.04-5.35
									c0.08-1.88,0.62-3.78,1.61-5.46c0.98-1.68,2.39-3.18,4.13-4.2c1.74-1.08,3.82-1.45,5.83-1.66c2.02-0.23,4.03-0.34,5.83-1.02
									c1.82-0.65,3.23-2.04,4.1-3.69c0.89-1.65,1.4-3.46,1.94-5.22c0.53-1.76,1.16-3.48,1.99-5.05c1.63-3.15,3.93-5.78,6.63-7.45
									c2.7-1.67,5.71-2.35,8.4-2.18c2.7,0.17,5.04,1.25,6.61,2.71c1.58,1.45,2.51,3.11,2.96,4.54c0.46,1.43,0.48,2.62,0.41,3.4
									c-0.07,0.78-0.21,1.18-0.21,1.18c-0.03-0.01,0.07-0.41,0.1-1.18c0.04-0.77-0.02-1.94-0.5-3.33
									c-0.47-1.39-1.4-2.99-2.96-4.38c-1.54-1.4-3.81-2.41-6.43-2.56c-2.61-0.15-5.53,0.54-8.14,2.18
									c-2.61,1.64-4.85,4.22-6.43,7.31c-0.81,1.54-1.42,3.22-1.94,4.98c-0.54,1.75-1.04,3.59-1.97,5.31
									c-0.46,0.86-1.05,1.68-1.79,2.36c-0.73,0.69-1.63,1.21-2.58,1.57c-1.91,0.71-3.96,0.82-5.96,1.05
									c-2,0.21-3.97,0.57-5.62,1.59c-1.66,0.97-3.01,2.4-3.96,4.01c-0.95,1.61-1.48,3.42-1.56,5.22c-0.06,1.8,0.44,3.52,1,5.18
									c0.55,1.66,1.08,3.35,1.04,5.08c-0.03,1.71-0.55,3.32-1.24,4.74c-1.39,2.86-3.39,5.04-4.95,7.17
									c-1.58,2.11-2.79,4.22-3.23,6.27c-0.44,2.04-0.11,3.9,0.48,5.23c0.59,1.35,1.44,2.18,2.08,2.6
									C189.78,182.19,190.19,182.29,190.18,182.33z"/>
							</g>
						</g>
					</g>
					<g>
						<g>
							<g>
								<path style="fill:#455A64;" d="M241.57,105.22c0.01-0.03,0.26,0.03,0.69,0.21c0.43,0.18,1.02,0.5,1.67,1.01
									c1.3,1,2.83,2.94,3.22,5.5c0.38,2.57-0.52,4.87-1.47,6.2c-0.48,0.68-0.95,1.16-1.3,1.46c-0.36,0.29-0.58,0.42-0.6,0.4
									c-0.07-0.07,0.75-0.69,1.59-2.06c0.84-1.33,1.62-3.52,1.26-5.93c-0.36-2.4-1.75-4.27-2.94-5.3
									C242.5,105.66,241.53,105.31,241.57,105.22z"/>
							</g>
						</g>
					</g>
					<g>
						<g>
							<g>
								<path style="fill:#455A64;" d="M280.75,226.59c-0.06-0.02,0.31-0.64,0.51-1.87c0.21-1.22,0.11-3.09-0.87-5.09
									c-0.95-2.01-2.94-3.92-5.58-5.2c-1.32-0.65-2.79-1.16-4.34-1.55c-1.56-0.4-3.21-0.74-4.87-1.27
									c-1.65-0.53-3.26-1.25-4.47-2.44c-1.25-1.15-1.85-2.78-2.11-4.25c-0.27-1.49-0.36-2.9-0.69-4.16
									c-0.32-1.26-0.91-2.33-1.61-3.18c-1.41-1.72-3.11-2.53-4.28-2.91c-1.2-0.36-1.9-0.36-1.9-0.41c0-0.02,0.18-0.02,0.51-0.01
									c0.33,0.01,0.82,0.08,1.44,0.23c1.21,0.33,3,1.11,4.5,2.87c0.74,0.87,1.39,2,1.74,3.31c0.36,1.31,0.47,2.73,0.75,4.18
									c0.27,1.43,0.82,2.9,1.99,3.97c1.12,1.1,2.66,1.8,4.27,2.31c1.62,0.52,3.26,0.86,4.84,1.27c1.58,0.41,3.08,0.94,4.43,1.61
									c2.71,1.33,4.76,3.36,5.7,5.47c0.97,2.1,1.01,4.05,0.73,5.29c-0.13,0.63-0.31,1.09-0.45,1.39
									C280.85,226.44,280.77,226.59,280.75,226.59z"/>
							</g>
						</g>
					</g>
				</g>
				<g>
					<g>
						<path style="fill:#263238;" d="M203.83,195.27c-8.96-2.4-16.7-11.17-19.84-19.9c-3.14-8.72-3.14-18.26-2.34-27.5
							c0.58-6.7,1.76-13.77,6.2-18.82c6.7-7.6,13.95-11.48,24.08-11.16"/>
					</g>
				</g>
			</g>
			<g>
				<g>
					<g>
						<path style="fill:#F5F5F5;" d="M256.13,214.77l-8.35-2.1c1.96-1.56,2.51-3.55,1.66-5.82c-1-2.66-3.56-4.41-6.38-4.73
							l-38.08-4.3c-1.36-0.15-2.69,0.6-3.19,1.88c-1.69,4.29-1.75,7.82-0.17,10.6l-0.18,0l-7.33,1.46L181.68,321.5l81.48-3.81
							L256.13,214.77z"/>
					</g>
				</g>
				<g>
					<g>
						<g>
							<g>
								<path style="fill:#263238;" d="M244.15,213.09c0,0.04-0.54,0.14-1.53,0.29c-0.99,0.16-2.43,0.34-4.21,0.51
									c-3.57,0.35-8.53,0.57-13.99,0.3c-5.47-0.28-10.38-0.99-13.9-1.69c-1.76-0.35-3.17-0.67-4.14-0.93
									c-0.97-0.25-1.5-0.41-1.49-0.44c0.01-0.04,0.56,0.05,1.54,0.25c0.98,0.2,2.4,0.46,4.16,0.76c3.52,0.6,8.41,1.26,13.86,1.53
									c5.44,0.27,10.38,0.1,13.94-0.15c1.78-0.12,3.22-0.25,4.22-0.35C243.59,213.09,244.14,213.06,244.15,213.09z"/>
							</g>
						</g>
					</g>
					<g>
						<g>
							<g>
								<path style="fill:#E0E0E0;" d="M207.32,230.53c-0.12-0.08,1.16-2.2,2.85-4.74c1.7-2.54,3.17-4.53,3.29-4.45
									c0.12,0.08-1.16,2.2-2.85,4.74C208.91,228.62,207.44,230.61,207.32,230.53z"/>
							</g>
						</g>
					</g>
					<g>
						<g>
							<g>
								<path style="fill:#E0E0E0;" d="M233.58,232.39c-0.11,0.09-1.73-1.74-3.62-4.09c-1.89-2.35-3.32-4.32-3.21-4.41
									c0.11-0.09,1.73,1.74,3.62,4.09C232.26,230.32,233.7,232.3,233.58,232.39z"/>
							</g>
						</g>
					</g>
					<g>
						<g>
							<g>
								<path style="fill:#E0E0E0;" d="M221.38,246.34c-0.14,0.03-0.69-2.42-1.23-5.46c-0.54-3.04-0.86-5.52-0.72-5.55
									c0.14-0.03,0.69,2.42,1.23,5.46C221.2,243.83,221.52,246.31,221.38,246.34z"/>
							</g>
						</g>
					</g>
					<g>
						<g>
							<g>
								<path style="fill:#E0E0E0;" d="M241.43,247.2c0.1,0.1-1.97,2.31-4.63,4.92c-2.66,2.62-4.89,4.65-4.99,4.55
									c-0.1-0.1,1.97-2.31,4.63-4.92C239.1,249.14,241.33,247.1,241.43,247.2z"/>
							</g>
						</g>
					</g>
					<g>
						<g>
							<g>
								<path style="fill:#E0E0E0;" d="M214.54,265.9c-0.06,0.11-2.55-1.4-4.98-3.99c-2.45-2.58-3.81-5.14-3.69-5.2
									c0.13-0.09,1.67,2.31,4.07,4.84C212.33,264.1,214.64,265.77,214.54,265.9z"/>
							</g>
						</g>
					</g>
					<g>
						<g>
							<g>
								<path style="fill:#E0E0E0;" d="M223.18,280.34c0.05,0.15-2.28,0.89-4.92,2.29c-2.65,1.39-4.57,2.89-4.67,2.77
									c-0.09-0.09,1.72-1.81,4.43-3.23C220.71,280.73,223.15,280.21,223.18,280.34z"/>
							</g>
						</g>
					</g>
					<g>
						<g>
							<g>
								<path style="fill:#E0E0E0;" d="M237.23,281.27c-0.05,0.04-0.67-0.6-1.59-1.71c-0.92-1.11-2.15-2.68-3.43-4.47
									c-1.28-1.79-2.37-3.46-3.11-4.69c-0.75-1.23-1.16-2.02-1.1-2.06c0.06-0.04,0.59,0.68,1.41,1.86
									c0.94,1.34,2.03,2.88,3.23,4.59c1.23,1.69,2.34,3.22,3.3,4.54C236.78,280.5,237.29,281.23,237.23,281.27z"/>
							</g>
						</g>
					</g>
					<g>
						<g>
							<g>
								<path style="fill:#E0E0E0;" d="M238.64,293.59c0.03,0.14-2.65,0.85-6.02,1.4c-3.37,0.56-6.13,0.75-6.15,0.61
									c-0.02-0.15,2.71-0.56,6.06-1.12C235.89,293.93,238.61,293.45,238.64,293.59z"/>
							</g>
						</g>
					</g>
					<g>
						<g>
							<g>
								<path style="fill:#E0E0E0;" d="M215.89,211.54c-0.07-0.06,0.41-0.6,0.82-1.66c0.42-1.05,0.68-2.63,0.43-4.34
									c-0.25-1.72-0.85-3.2-1.29-4.26c-0.45-1.06-0.74-1.72-0.67-1.76c0.06-0.03,0.47,0.57,1.01,1.6
									c0.53,1.04,1.21,2.54,1.47,4.35c0.26,1.81-0.08,3.49-0.61,4.56C216.53,211.11,215.93,211.58,215.89,211.54z"/>
							</g>
						</g>
					</g>
					<g>
						<g>
							<g>
								<path style="fill:#E0E0E0;" d="M231.11,203.32c0.11-0.07,1.05,1.3,1.5,3.28c0.47,1.97,0.24,3.62,0.11,3.6
									c-0.15,0-0.17-1.6-0.62-3.48C231.67,204.83,230.97,203.4,231.11,203.32z"/>
							</g>
						</g>
					</g>
				</g>
			</g>
			<g>
				<g>
					<g>
						<g>
							<g>
								<g>
									<g>
										<g>
											<path style="fill:#FFBE9D;" d="M299.76,281.51l37.91-66.57l4.57-11.55c0,0,11.81-25.41,12.64-27.99
												c0.95-2.99,2.62-3.25,3.7-2.82c1.68,0.66,2.22,3.17,1.48,5.75c-0.26,0.89-4.85,14.85-4.85,14.85s1.01-0.95,3.92-2.91
												c2.91-1.96,8.25-1.9,13.18-0.14c4.93,1.76,6.16,2.69,5.57,4.63c-0.24,0.78-0.88,1.27-1.58,1.57
												c-1.15,0.49-2.47,0.48-3.65,0.08c-7.94-2.71-11.46,0.87-11.46,0.87l-0.6,1.51c0,0,5.97-1.91,9.36,0.79
												c0.55,0.44,0.95,0.93,1.24,1.45c2.11,0.7,3.83,2.53,4.35,4.7c0.54,2.26-0.22,4.78-1.92,6.36
												c-0.81,0.75-2.04,1.3-3.01,0.76c-0.51-0.29-0.83-0.81-1.14-1.31c-0.16-0.26-0.34-0.53-0.54-0.75l-2.27,4
												c0,0-5.57,8.71-7.57,12.77l-26.09,69.52c-3.62,9.64-14.43,14.44-24.01,10.65h0
												C298.57,303.62,294.22,291.24,299.76,281.51z"/>
										</g>
									</g>
								</g>
							</g>
						</g>
					</g>
					<g>
						<g>
							<g>
								<g>
									<g>
										<g>
											<g>
												<path style="fill:#FFBE9D;" d="M340.27,214.71c1.34,0.87,3.19,0.28,4.39-0.77c1.21-1.04,2.02-2.47,3.15-3.6
													c3.38-3.37,9.03-3.69,12.24-7.22c0.45-0.49,0.85-1.24,0.46-1.78c-0.36-0.5-1.11-0.44-1.71-0.32
													c-5.17,1.02-10.34,2.05-15.51,3.07"/>
											</g>
										</g>
									</g>
								</g>
							</g>
						</g>
						<g>
							<g>
								<g>
									<g>
										<g>
											<g>
												<g>
													<path style="fill:#EB996E;" d="M343.29,204.1c-0.01-0.06,0.57-0.24,1.64-0.5c1.07-0.27,2.62-0.62,4.55-1.05
														c2-0.43,4.28-0.91,6.76-1.44c0.64-0.13,1.29-0.27,1.96-0.4c0.63-0.08,1.42-0.47,2.37,0.08
														c0.46,0.29,0.64,0.95,0.51,1.41c-0.11,0.47-0.34,0.82-0.61,1.14c-0.53,0.58-1.1,1.1-1.75,1.54
														c-2.58,1.79-5.41,2.52-7.67,3.7c-1.14,0.57-2.15,1.23-2.94,2.01c-0.8,0.77-1.43,1.65-2.09,2.4
														c-1.26,1.58-2.95,2.36-4.11,2.31c-1.19-0.02-1.68-0.58-1.64-0.59c0.04-0.08,0.56,0.33,1.62,0.24
														c1.06-0.08,2.48-0.81,3.64-2.37c0.61-0.75,1.21-1.66,2.05-2.52c0.84-0.87,1.91-1.6,3.09-2.21
														c2.33-1.26,5.15-2.04,7.53-3.7c0.59-0.4,1.12-0.9,1.58-1.39c0.43-0.49,0.59-1.09,0.27-1.25
														c-0.31-0.23-1.03-0.09-1.69,0.05c-0.67,0.13-1.32,0.25-1.96,0.37c-2.5,0.46-4.79,0.88-6.8,1.25
														c-1.94,0.34-3.51,0.6-4.6,0.77C343.91,204.11,343.3,204.17,343.29,204.1z"/>
												</g>
											</g>
										</g>
									</g>
								</g>
							</g>
						</g>
					</g>
					<g>
						<g>
							<g>
								<g>
									<g>
										<g>
											<g>
												<path style="fill:#EB996E;" d="M360.37,198.82c0.1,0.06,0.31-1.24,1.78-2.4c0.72-0.57,1.78-0.96,3-0.98
													c1.22-0.04,2.56,0.25,3.95,0.67c1.39,0.41,2.76,0.82,4.06,0.92c1.3,0.1,2.5-0.07,3.41-0.53
													c0.93-0.45,1.37-1.27,1.45-1.82c0.09-0.55,0-0.85-0.02-0.85c-0.06,0-0.05,0.3-0.2,0.8c-0.15,0.49-0.57,1.14-1.41,1.5
													c-0.83,0.36-1.96,0.48-3.18,0.36c-1.23-0.12-2.54-0.53-3.95-0.95c-1.4-0.42-2.82-0.71-4.14-0.64
													c-1.31,0.05-2.49,0.54-3.23,1.2c-0.76,0.65-1.16,1.38-1.35,1.89C360.35,198.51,360.33,198.81,360.37,198.82z"/>
											</g>
										</g>
									</g>
								</g>
							</g>
						</g>
					</g>
					<g>
						<g>
							<g>
								<g>
									<g>
										<g>
											<g>
												<path style="fill:#EB996E;" d="M360.32,177.33c-0.08-0.02-0.41,1.05-0.93,2.77c-0.59,1.91-1.29,4.2-2.07,6.72
													c-0.82,2.51-1.55,4.78-2.17,6.69c-0.56,1.71-0.91,2.77-0.83,2.8c0.07,0.03,0.55-0.98,1.22-2.66
													c0.67-1.68,1.51-4.03,2.34-6.65c0.83-2.62,1.49-5.03,1.91-6.78C360.2,178.46,360.39,177.35,360.32,177.33z"/>
											</g>
										</g>
									</g>
								</g>
							</g>
						</g>
					</g>
					<g>
						<g>
							<g>
								<g>
									<g>
										<g>
											<g>
												<path style="fill:#EB996E;" d="M362.51,202.98c0.01,0.04,0.34,0,0.91-0.06c0.55-0.04,1.48-0.09,2.18,0.59
													c0.34,0.32,0.47,0.83,0.35,1.39c-0.1,0.56-0.41,1.13-0.71,1.77c-0.3,0.62-0.61,1.43-0.37,2.3
													c0.25,0.83,0.94,1.5,1.78,1.79c0.86,0.3,1.78,0.13,2.49-0.25c0.72-0.39,1.3-0.94,1.66-1.61c0.64-1.3,0.91-2.54,1.09-3.6
													c0.16-1.06,0.15-1.94,0.03-2.53c-0.13-0.6-0.33-0.88-0.35-0.86c-0.05,0.02,0.07,0.32,0.13,0.89
													c0.05,0.57,0,1.41-0.21,2.43c-0.22,1-0.55,2.23-1.16,3.41c-0.6,1.08-2.1,2.03-3.49,1.57c-0.68-0.23-1.23-0.78-1.42-1.4
													c-0.19-0.63,0.03-1.3,0.31-1.91c0.27-0.62,0.6-1.24,0.7-1.91c0.13-0.65-0.08-1.39-0.54-1.77
													c-0.92-0.78-1.95-0.61-2.5-0.51C362.81,202.83,362.51,202.95,362.51,202.98z"/>
											</g>
										</g>
									</g>
								</g>
							</g>
						</g>
					</g>
					<g>
						<g>
							<g>
								<g>
									<g>
										<g>
											<g>
												<path style="fill:#EB996E;" d="M369.05,210.01c-0.03-0.01-0.2,0.26-0.18,0.81c0.02,0.53,0.3,1.39,1.16,1.96
													c0.84,0.56,2.19,0.66,3.37,0.04c1.18-0.62,2.09-1.83,2.55-3.24c0.46-1.42,0.41-2.9,0-4.12c-0.4-1.23-1.14-2.17-1.85-2.8
													c-0.72-0.64-1.43-0.98-1.93-1.16c-0.5-0.18-0.8-0.21-0.81-0.17c-0.05,0.1,1.14,0.36,2.45,1.64
													c0.64,0.63,1.29,1.53,1.62,2.66c0.35,1.13,0.37,2.48-0.04,3.78c-0.41,1.29-1.24,2.39-2.25,2.95
													c-1,0.56-2.16,0.52-2.9,0.08c-0.75-0.43-1.07-1.16-1.15-1.63C369.02,210.31,369.1,210.03,369.05,210.01z"/>
											</g>
										</g>
									</g>
								</g>
							</g>
						</g>
					</g>
					<g>
						<g>
							<g>
								<g>
									<g>
										<g>
											<g>
												<path style="fill:#EB996E;" d="M356.43,216.28c0.02-0.05-0.45-0.31-1.34-0.41c-0.88-0.1-2.21,0.03-3.48,0.83l0.43,0.29
													c0.13-0.61,0.23-1.27,0.29-1.96c0.34-3.86-0.89-6.84-1.01-6.76c-0.17,0.04,0.77,3,0.43,6.71
													c-0.06,0.67-0.15,1.31-0.25,1.9l-0.12,0.65l0.55-0.36c1.12-0.75,2.33-0.94,3.15-0.95
													C355.91,216.21,356.41,216.35,356.43,216.28z"/>
											</g>
										</g>
									</g>
								</g>
							</g>
						</g>
					</g>
					<g>
						<g>
							<g>
								<g>
									<g>
										<g>
											<g>
												<path style="fill:#EB996E;" d="M364.32,192.56c-0.15,0.02,0.07,1.2,1.13,2.12c1.05,0.93,2.25,0.99,2.25,0.84
													c0.03-0.17-0.96-0.46-1.87-1.27C364.9,193.44,364.48,192.5,364.32,192.56z"/>
											</g>
										</g>
									</g>
								</g>
							</g>
						</g>
					</g>
				</g>
			</g>
			<g>
				<g>
					<g>
						<path style="fill:none;stroke:#4E585D;stroke-miterlimit:10;" d="M192.82,131.18"/>
					</g>
				</g>
			</g>
			<g>
				<g>
					<g>
						<g>
							<g>
								<g>
									<g>
										<path style="fill:#E8505B;" d="M245.97,336.75l39.64,0.39l-6.67-28.77l2.23,5.43c4.21,10.25,14.19,16.95,25.28,16.95h0
											c12.54,0,21.2-9.33,26.51-20.69c12.4-26.56,24.35-69.33,24.35-69.33l-24.18-21.24c-17.49,33.09-33.94,61.84-33.94,61.84
											s-4.75-14.43-8.41-27.31c-3.67-12.87-3.64-19.64-9.28-26.07c-8.66-9.87-21.01-12.33-32.48-15.28l-0.43,53.44
											L245.97,336.75"/>
									</g>
								</g>
							</g>
						</g>
						<g>
							<g>
								<g>
									<g>
										<path style="fill:#E8505B;" d="M200.63,296.95l72.2,14.06l3.52,27.74l-110.7,0c-12.84,0.17-23.05-10.72-22.04-23.52
											c1.59-20.22,3.32-45.12,4.64-55.65c1.02-8.21,4.3-16.7,8.18-24.01c5.59-10.52,24.21-24.04,40.54-24.7l3.09,68.77"/>
									</g>
								</g>
							</g>
						</g>
					</g>
				</g>
				<g style="opacity:0.4;">
					<g>
						<g>
							<g>
								<g>
									<g>
										<path d="M245.97,336.75l39.64,0.39l-6.67-28.77l2.23,5.43c4.21,10.25,14.19,16.95,25.28,16.95h0
											c12.54,0,21.2-9.33,26.51-20.69c12.4-26.56,24.35-69.33,24.35-69.33l-24.18-21.24c-17.49,33.09-33.94,61.84-33.94,61.84
											s-4.75-14.43-8.41-27.31c-3.67-12.87-3.64-19.64-9.28-26.07c-8.66-9.87-21.01-12.33-32.48-15.28l-0.43,53.44
											L245.97,336.75"/>
									</g>
								</g>
							</g>
						</g>
						<g>
							<g>
								<g>
									<g>
										<path d="M200.63,296.95l65.12,11.95c2.71,0.5,4.86,2.59,5.43,5.29l5.17,24.57l-110.7,0
											c-12.84,0.17-23.05-10.72-22.04-23.52c1.59-20.22,3.32-45.12,4.64-55.65c1.02-8.21,4.3-16.7,8.18-24.01
											c5.59-10.52,24.21-24.04,40.54-24.7l3.09,68.77"/>
									</g>
								</g>
							</g>
						</g>
					</g>
				</g>
				<g>
					<g>
						<g>
							<path style="fill:#263238;" d="M186.88,294.94c-0.02,0-0.03-0.23-0.03-0.66c0-0.49,0-1.11,0.01-1.89
								c0.01-1.71,0.02-4.07,0.04-6.96c0.01-5.87-0.1-13.98-0.56-22.93c-0.22-4.47-0.52-8.73-0.83-12.6
								c-0.29-3.87-0.63-7.35-1.45-10.16c-0.79-2.81-2.06-4.87-3.18-6.03c-1.12-1.18-1.95-1.61-1.9-1.67c0,0,0.86,0.37,2.05,1.53
								c1.19,1.15,2.55,3.23,3.39,6.07c0.88,2.84,1.26,6.36,1.58,10.22c0.34,3.87,0.64,8.14,0.87,12.62
								c0.46,8.96,0.51,17.08,0.41,22.96c-0.05,2.94-0.13,5.32-0.21,6.96c-0.04,0.78-0.08,1.4-0.1,1.89
								C186.93,294.71,186.9,294.94,186.88,294.94z"/>
						</g>
					</g>
				</g>
				<g>
					<g>
						<g>
							<path style="fill:#263238;" d="M271.43,312.97c-0.06,0.06-0.72-1.03-2.63-2.13c-0.95-0.54-2.19-1.05-3.69-1.47
								c-1.5-0.43-3.24-0.76-5.17-1.15c-7.71-1.57-18.37-3.76-30.17-5.97c-11.81-2.21-22.54-3.99-30.31-5.23
								c-3.85-0.62-6.98-1.12-9.21-1.48c-1.05-0.18-1.88-0.32-2.5-0.42c-0.57-0.1-0.87-0.16-0.87-0.18c0-0.02,0.31,0.01,0.88,0.08
								c0.62,0.08,1.46,0.19,2.51,0.32c2.18,0.29,5.34,0.73,9.23,1.31c7.79,1.15,18.53,2.87,30.35,5.09
								c11.81,2.21,22.46,4.45,30.15,6.12c1.92,0.42,3.67,0.78,5.18,1.23c1.51,0.45,2.76,1,3.71,1.58c0.95,0.57,1.59,1.17,1.98,1.6
								c0.21,0.21,0.33,0.4,0.42,0.51C271.39,312.9,271.44,312.96,271.43,312.97z"/>
						</g>
					</g>
				</g>
				<g>
					<g>
						<g>
							<path style="fill:#263238;" d="M187.1,294.94c0.02,0.09-1.33,0.41-3.39,1.24c-1.03,0.41-2.22,0.99-3.49,1.72
								c-1.26,0.75-2.59,1.66-3.89,2.74c-1.29,1.1-2.41,2.25-3.37,3.37c-0.94,1.13-1.72,2.2-2.3,3.14
								c-1.18,1.88-1.72,3.16-1.81,3.12c-0.03-0.01,0.08-0.34,0.31-0.93c0.22-0.59,0.62-1.41,1.18-2.39
								c0.55-0.98,1.31-2.1,2.25-3.26c0.95-1.15,2.09-2.34,3.4-3.46c1.33-1.1,2.7-2.02,3.99-2.76c1.31-0.72,2.53-1.28,3.6-1.65
								c1.06-0.38,1.94-0.63,2.56-0.75C186.75,294.96,187.09,294.9,187.1,294.94z"/>
						</g>
					</g>
				</g>
				<g>
					<g>
						<g>
							<path style="fill:#263238;" d="M280.33,312.22c-0.02,0-0.07-0.23-0.15-0.69c-0.08-0.51-0.19-1.17-0.33-1.99
								c-0.28-1.73-0.64-4.23-1.06-7.33c-0.84-6.19-1.86-14.77-2.72-24.27c-0.85-9.5-1.38-18.13-1.65-24.37
								c-0.14-3.12-0.23-5.65-0.26-7.4c-0.01-0.83-0.02-1.5-0.03-2.01c0-0.46,0.01-0.7,0.02-0.7c0.02,0,0.05,0.24,0.08,0.7
								c0.03,0.51,0.08,1.18,0.13,2.01c0.1,1.8,0.25,4.31,0.43,7.39c0.37,6.24,0.95,14.85,1.8,24.34
								c0.86,9.49,1.82,18.07,2.57,24.27c0.37,3.06,0.68,5.55,0.9,7.34c0.1,0.83,0.17,1.49,0.23,2
								C280.34,311.98,280.35,312.22,280.33,312.22z"/>
						</g>
					</g>
				</g>
				<g>
					<g>
						<g>
							<path style="fill:#263238;" d="M304.27,301.47c-0.03,0.02-0.23-0.21-0.58-0.66c-0.35-0.44-0.81-1.12-1.33-1.98
								c-1.04-1.73-2.21-4.3-2.92-7.31c-0.7-3.02-0.79-5.84-0.63-7.85c0.08-1.01,0.19-1.82,0.31-2.37c0.11-0.55,0.19-0.85,0.23-0.85
								c0.09,0.01-0.11,1.24-0.17,3.23c-0.07,1.99,0.08,4.75,0.76,7.71c0.7,2.96,1.79,5.5,2.74,7.25
								C303.62,300.4,304.35,301.41,304.27,301.47z"/>
						</g>
					</g>
				</g>
				<g>
					<g>
						<g>
							<path style="fill:#FAFAFA;" d="M186.59,257.78c0,0.02-0.13,0.04-0.37,0.08c-0.25,0.02-0.61,0.1-1.09,0.1
								c-0.95,0.06-2.33,0-4.01-0.31c-1.68-0.31-3.62-0.92-5.69-1.78c-2.07-0.86-4.27-1.96-6.58-3.11c-2.3-1.14-4.55-2.11-6.66-2.79
								c-2.11-0.67-4.08-1.06-5.75-1.12c-3.36-0.17-5.34,0.74-5.36,0.61c-0.01-0.02,0.11-0.07,0.34-0.16
								c0.24-0.08,0.57-0.24,1.04-0.35c0.91-0.27,2.29-0.49,4-0.46c1.71,0.02,3.73,0.38,5.88,1.03c2.15,0.66,4.43,1.63,6.74,2.78
								c2.31,1.15,4.49,2.26,6.53,3.13c2.04,0.87,3.94,1.52,5.57,1.86C184.48,258.02,186.59,257.66,186.59,257.78z"/>
						</g>
					</g>
				</g>
				<g>
					<g>
						<g>
							<path style="fill:#FAFAFA;" d="M198.95,255.35c0.02,0.14-2.61,0.71-5.88,1.27c-3.27,0.56-5.95,0.89-5.97,0.75
								c-0.02-0.14,2.61-0.71,5.88-1.27C196.25,255.54,198.93,255.2,198.95,255.35z"/>
						</g>
					</g>
				</g>
				<g>
					<g>
						<g>
							<path style="fill:#FAFAFA;" d="M186.14,276.81c0.01,0.03-0.51,0.26-1.45,0.63c-0.95,0.37-2.34,0.87-4.07,1.43
								c-3.46,1.13-8.34,2.45-13.82,3.42c-2.74,0.48-5.37,0.83-7.77,1.07c-2.39,0.25-4.59,0.38-6.42,0.17
								c-1.83-0.18-3.27-0.69-4.17-1.19c-0.45-0.25-0.78-0.47-0.99-0.64c-0.21-0.17-0.31-0.26-0.3-0.28
								c0.03-0.04,0.48,0.31,1.39,0.74c0.91,0.43,2.31,0.88,4.11,1c1.8,0.15,3.95-0.01,6.33-0.29c2.39-0.26,5-0.63,7.73-1.1
								c5.46-0.96,10.32-2.22,13.8-3.26c1.74-0.51,3.14-0.96,4.11-1.27C185.59,276.94,186.13,276.78,186.14,276.81z"/>
						</g>
					</g>
				</g>
				<g>
					<g>
						<g>
							<path style="fill:#FAFAFA;" d="M198.67,282.08c0,0.14-2.44,0.3-5.45,0.35c-3.01,0.05-5.45-0.03-5.45-0.17
								c0-0.14,2.44-0.3,5.45-0.35C196.23,281.86,198.67,281.94,198.67,282.08z"/>
						</g>
					</g>
				</g>
				<g>
					<g>
						<g>
							<path style="fill:#FAFAFA;" d="M147.21,327.64c-0.02,0,0.02-0.19,0.11-0.53c0.11-0.4,0.24-0.9,0.4-1.5
								c0.09-0.33,0.19-0.69,0.3-1.08c0.13-0.39,0.29-0.8,0.46-1.25c0.35-0.89,0.68-1.94,1.24-3.01c0.26-0.55,0.53-1.12,0.81-1.71
								c0.29-0.59,0.66-1.17,1.01-1.79c0.67-1.26,1.56-2.49,2.46-3.82c1.9-2.57,4.24-5.22,7.01-7.67c2.81-2.41,5.76-4.35,8.56-5.88
								c1.43-0.71,2.78-1.42,4.12-1.91c0.66-0.26,1.29-0.54,1.92-0.75c0.63-0.2,1.23-0.39,1.81-0.57c1.14-0.4,2.22-0.59,3.16-0.81
								c0.47-0.1,0.9-0.21,1.31-0.28c0.4-0.05,0.77-0.1,1.11-0.15c0.62-0.08,1.13-0.14,1.54-0.19c0.35-0.04,0.54-0.05,0.54-0.03
								c0,0.02-0.18,0.06-0.53,0.13c-0.41,0.08-0.91,0.17-1.52,0.29c-0.34,0.06-0.7,0.12-1.1,0.19c-0.4,0.08-0.83,0.21-1.29,0.32
								c-0.92,0.25-1.99,0.46-3.11,0.88c-0.57,0.19-1.16,0.39-1.78,0.6c-0.62,0.21-1.23,0.51-1.89,0.77
								c-1.32,0.5-2.64,1.22-4.06,1.93c-2.77,1.54-5.67,3.47-8.45,5.85c-2.74,2.42-5.06,5.03-6.97,7.56
								c-0.9,1.3-1.79,2.51-2.47,3.75c-0.35,0.61-0.73,1.18-1.02,1.76c-0.29,0.58-0.57,1.15-0.84,1.68
								c-0.57,1.06-0.93,2.08-1.3,2.96c-0.18,0.44-0.36,0.85-0.5,1.23c-0.12,0.38-0.24,0.74-0.34,1.06
								c-0.2,0.59-0.36,1.08-0.49,1.47C147.3,327.47,147.23,327.64,147.21,327.64z"/>
						</g>
					</g>
				</g>
				<g>
					<g>
						<g>
							<path style="fill:#FAFAFA;" d="M197.36,296.92c0.11,0.09-2.19,1.5-4.11,5.16c-0.95,1.81-1.78,4.13-2.3,6.79
								c-0.53,2.66-0.74,5.65-0.95,8.79c-0.21,3.14-0.44,6.16-1.02,8.85c-0.57,2.69-1.47,5.03-2.51,6.85
								c-1.04,1.81-2.18,3.09-3.05,3.86c-0.44,0.38-0.79,0.66-1.05,0.83c-0.25,0.17-0.39,0.26-0.4,0.24
								c-0.11-0.09,2.22-1.46,4.18-5.1c0.97-1.8,1.82-4.11,2.36-6.77c0.55-2.66,0.77-5.65,0.97-8.79c0.21-3.14,0.43-6.16,1-8.85
								c0.56-2.69,1.43-5.04,2.44-6.87c1.02-1.82,2.14-3.12,3-3.89c0.43-0.39,0.78-0.67,1.04-0.84
								C197.22,296.99,197.35,296.91,197.36,296.92z"/>
						</g>
					</g>
				</g>
				<g>
					<g>
						<g>
							<path style="fill:#FAFAFA;" d="M214.43,338.91c-0.14,0,0.02-8.62,0.37-19.24c0.35-10.63,0.75-19.23,0.89-19.23
								c0.14,0-0.02,8.62-0.37,19.25C214.97,330.31,214.57,338.92,214.43,338.91z"/>
						</g>
					</g>
				</g>
				<g>
					<g>
						<g>
							<path style="fill:#FAFAFA;" d="M241.57,337.43c-0.03,0.01-0.19-0.43-0.44-1.25c-0.13-0.41-0.28-0.91-0.41-1.5
								c-0.13-0.59-0.31-1.26-0.42-2.02c-0.28-1.5-0.47-3.32-0.53-5.34c-0.03-2.02,0.08-4.25,0.42-6.56
								c0.37-2.31,0.93-4.47,1.57-6.39c0.67-1.91,1.39-3.59,2.11-4.94c0.33-0.69,0.7-1.27,1.01-1.8c0.3-0.53,0.59-0.96,0.84-1.31
								c0.49-0.7,0.77-1.08,0.8-1.06c0.09,0.06-0.99,1.61-2.31,4.33c-0.67,1.36-1.35,3.03-1.98,4.92c-0.6,1.9-1.15,4.04-1.51,6.31
								c-0.34,2.28-0.46,4.48-0.45,6.47c0.04,2,0.18,3.79,0.42,5.29C241.11,335.6,241.67,337.4,241.57,337.43z"/>
						</g>
					</g>
				</g>
				<g>
					<g>
						<g>
							<path style="fill:#FAFAFA;" d="M195.48,226.91c-0.04,0.09-1.58-0.61-4.18-1.45c-2.59-0.84-6.26-1.74-10.4-2.11
								c-4.14-0.36-7.91-0.12-10.61,0.26c-2.7,0.37-4.34,0.78-4.37,0.69c-0.01-0.03,0.39-0.16,1.13-0.37
								c0.74-0.21,1.82-0.45,3.18-0.69c2.7-0.47,6.52-0.78,10.71-0.41c4.19,0.38,7.89,1.35,10.47,2.28
								c1.29,0.47,2.32,0.89,3.01,1.23C195.12,226.68,195.5,226.87,195.48,226.91z"/>
						</g>
					</g>
				</g>
				<g>
					<g>
						<g>
							<path style="fill:#FAFAFA;" d="M274.48,268.95c-0.01,0.07-1.42,0.03-3.71-0.06c-2.29-0.09-5.45-0.21-8.94-0.3
								c-3.49-0.09-6.65-0.12-8.94-0.15c-2.29-0.03-3.71-0.05-3.71-0.13c0-0.04,0.35-0.08,0.99-0.12c0.64-0.05,1.57-0.09,2.71-0.12
								c2.29-0.07,5.46-0.09,8.96-0.01c3.5,0.09,6.66,0.27,8.94,0.45c1.14,0.09,2.07,0.18,2.7,0.26
								C274.13,268.86,274.48,268.92,274.48,268.95z"/>
						</g>
					</g>
				</g>
				<g>
					<g>
						<g>
							<path style="fill:#FAFAFA;" d="M294.22,265.21c0.03,0.09-1.25,0.52-3.2,1.48c-1.95,0.96-4.53,2.52-7,4.72
								c-2.47,2.21-4.32,4.59-5.49,6.42c-1.18,1.83-1.75,3.05-1.84,3.01c-0.03-0.01,0.09-0.33,0.33-0.9
								c0.23-0.57,0.64-1.36,1.2-2.31c1.11-1.9,2.95-4.37,5.46-6.61c2.52-2.24,5.18-3.78,7.19-4.66c1.01-0.44,1.84-0.76,2.43-0.92
								C293.88,265.26,294.21,265.18,294.22,265.21z"/>
						</g>
					</g>
				</g>
				<g>
					<g>
						<g>
							<path style="fill:#FAFAFA;" d="M284.48,233.16c0.01,0.13-2.04-0.32-5.08,0.71c-1.52,0.48-3.24,1.31-5.13,2.28
								c-1.89,0.96-3.97,2.09-6.34,2.85c-4.74,1.55-9.37,1.42-12.53,0.82c-1.59-0.3-2.85-0.69-3.7-1c-0.84-0.32-1.3-0.54-1.28-0.57
								c0.03-0.1,1.88,0.7,5.04,1.2c3.14,0.5,7.67,0.57,12.31-0.95c2.32-0.74,4.38-1.84,6.28-2.78c1.9-0.95,3.67-1.75,5.23-2.2
								c1.56-0.47,2.89-0.58,3.8-0.54c0.45,0,0.8,0.07,1.04,0.1C284.36,233.11,284.49,233.14,284.48,233.16z"/>
						</g>
					</g>
				</g>
				<g>
					<g>
						<g>
							<path style="fill:#FAFAFA;" d="M279.49,300.18c0.01,0.03-0.4,0.22-1.16,0.54c-0.38,0.16-0.85,0.35-1.41,0.53
								c-0.56,0.18-1.19,0.42-1.9,0.6c-1.42,0.42-3.15,0.78-5.09,1.06c-1.94,0.25-4.1,0.39-6.36,0.34
								c-2.26-0.08-4.41-0.35-6.33-0.72c-1.92-0.39-3.63-0.86-5.02-1.36c-0.71-0.22-1.32-0.5-1.87-0.71
								c-0.55-0.21-1.01-0.43-1.38-0.61c-0.74-0.36-1.14-0.58-1.13-0.61c0.04-0.09,1.69,0.7,4.49,1.59c1.4,0.45,3.09,0.88,4.99,1.24
								c1.91,0.33,4.02,0.59,6.26,0.67c2.23,0.06,4.36-0.07,6.29-0.29c1.92-0.25,3.64-0.57,5.06-0.94
								C277.77,300.78,279.46,300.09,279.49,300.18z"/>
						</g>
					</g>
				</g>
				<g>
					<g>
						<g>
							<path style="fill:#FAFAFA;" d="M302.47,329.78c-0.01,0.01-0.15-0.1-0.39-0.32c-0.23-0.23-0.61-0.54-1.03-1.01
								c-0.87-0.9-2.01-2.32-3.16-4.24c-2.34-3.82-4.33-9.89-4.46-16.75c-0.12-6.85,1.22-12.95,2.27-17.27
								c0.54-2.16,1.02-3.9,1.37-5.1c0.17-0.55,0.3-1,0.42-1.37c0.1-0.31,0.16-0.47,0.18-0.47c0.02,0-0.01,0.18-0.08,0.5
								c-0.09,0.38-0.19,0.84-0.32,1.4c-0.3,1.29-0.71,3.02-1.21,5.13c-0.96,4.33-2.23,10.39-2.11,17.17
								c0.13,6.77,2.03,12.76,4.25,16.57c1.1,1.92,2.18,3.36,3,4.29C302.01,329.25,302.5,329.74,302.47,329.78z"/>
						</g>
					</g>
				</g>
				<g>
					<g>
						<g>
							<path style="fill:#FAFAFA;" d="M338.86,295.82c-0.08,0.12-1.72-1.69-5.29-2.97c-1.77-0.65-3.95-1.19-6.4-1.66
								c-2.45-0.5-5.18-0.95-7.97-1.84c-5.58-1.78-9.96-4.97-12.67-7.62c-1.37-1.33-2.35-2.52-2.99-3.37
								c-0.33-0.42-0.55-0.77-0.71-1c-0.15-0.23-0.23-0.36-0.21-0.37c0.03-0.02,0.4,0.43,1.08,1.24c0.68,0.8,1.71,1.94,3.09,3.23
								c2.74,2.56,7.09,5.64,12.58,7.39c2.73,0.87,5.45,1.34,7.9,1.86c2.46,0.5,4.66,1.09,6.44,1.79c1.78,0.7,3.11,1.53,3.94,2.2
								c0.44,0.31,0.72,0.62,0.93,0.81C338.78,295.7,338.88,295.81,338.86,295.82z"/>
						</g>
					</g>
				</g>
				<g>
					<g>
						<g>
							<path style="fill:#FAFAFA;" d="M350.3,262.45c-0.03,0.02-0.41-0.31-1.07-0.93c-0.33-0.31-0.73-0.69-1.23-1.11
								c-0.49-0.42-1.03-0.92-1.68-1.41c-1.26-1.03-2.83-2.15-4.64-3.29c-1.83-1.11-3.91-2.23-6.17-3.21
								c-2.28-0.96-4.52-1.69-6.59-2.25c-2.08-0.52-3.97-0.89-5.58-1.09c-0.8-0.13-1.53-0.17-2.18-0.24
								c-0.64-0.07-1.2-0.1-1.65-0.12c-0.91-0.05-1.41-0.1-1.41-0.13c0-0.04,0.5-0.06,1.42-0.07c0.46-0.01,1.02-0.01,1.66,0.04
								c0.65,0.04,1.39,0.06,2.2,0.17c1.63,0.16,3.55,0.49,5.66,0.99c2.1,0.54,4.37,1.26,6.67,2.24c2.29,0.99,4.39,2.14,6.22,3.28
								c1.82,1.17,3.39,2.34,4.62,3.41c0.64,0.51,1.16,1.03,1.64,1.48c0.48,0.44,0.87,0.84,1.18,1.18
								C349.99,262.04,350.33,262.42,350.3,262.45z"/>
						</g>
					</g>
				</g>
				<g>
					<g>
						<g>
							<path style="fill:#FAFAFA;" d="M262.8,216.55c0.03,0.06-0.69,0.44-1.9,0.91c-1.21,0.48-2.92,1.05-4.85,1.5
								c-1.94,0.45-3.72,0.7-5.02,0.8c-1.3,0.1-2.1,0.09-2.11,0.02c-0.01-0.16,3.18-0.43,7.01-1.33
								C259.76,217.57,262.74,216.4,262.8,216.55z"/>
						</g>
					</g>
				</g>
			</g>
			<g>
				<g>
					<g>
						<path style="fill:#FFBE9D;" d="M298.27,357.39c0.56,1.94-1.06,3.8-3.06,3.53v0c-1.08-0.15-1.97-0.91-2.29-1.96l-0.84-3.15
							l0.12,0.04c0.53,1.89-1.29,3.62-3.24,3.43l0,0c-1.32-0.03-2.45-1.91-2.82-2.92l0,0c-2.18,0.26-4.24-1.02-5.08-2.44l-5.87-9.16
							l-10.87-7.95l6.57-23.49l23.4,15.14c0.92,0.71,1.06,1.02,2.52,2.37l15.1,13.88c-1.71,1.03-3.17,0.95-5.54,0
							c-2.37-0.95-12.81-7.99-12.81-7.99L298.27,357.39"/>
					</g>
				</g>
				<g>
					<g>
						<g>
							<path style="fill:#EB996E;" d="M278.26,338.07c0.02-0.03,0.27,0.12,0.7,0.41c0.24,0.17,0.5,0.35,0.77,0.54
								c0.3,0.2,0.66,0.48,0.97,0.84c0.31,0.36,0.6,0.82,0.79,1.36c0.18,0.52,0.37,1.07,0.57,1.64c0.4,1.17,0.83,2.44,1.28,3.76
								c0.89,2.67,1.67,5.1,2.21,6.87c0.54,1.77,0.84,2.87,0.77,2.89c-0.07,0.02-0.49-1.04-1.12-2.78
								c-0.63-1.74-1.46-4.14-2.36-6.81c-0.44-1.33-0.85-2.59-1.24-3.77c-0.18-0.57-0.36-1.12-0.53-1.65
								c-0.16-0.49-0.4-0.92-0.67-1.27c-0.27-0.36-0.57-0.61-0.86-0.84c-0.26-0.22-0.49-0.42-0.72-0.61
								C278.44,338.3,278.24,338.1,278.26,338.07z"/>
						</g>
					</g>
				</g>
				<g>
					<g>
						<g>
							<path style="fill:#EB996E;" d="M292.33,356.32c-0.04,0.01-0.15-0.34-0.33-0.97c-0.21-0.74-0.46-1.64-0.75-2.68
								c-0.63-2.26-1.49-5.39-2.58-8.8c-1.1-3.4-2.23-6.46-3.6-8.33c-0.67-0.94-1.37-1.57-1.92-1.91c-0.55-0.34-0.9-0.44-0.88-0.49
								c0.01-0.02,0.1,0,0.27,0.04c0.17,0.03,0.41,0.13,0.72,0.28c0.6,0.3,1.38,0.92,2.11,1.87c1.49,1.9,2.69,4.98,3.8,8.39
								c1.09,3.42,1.9,6.57,2.44,8.86c0.27,1.15,0.47,2.08,0.59,2.72C292.32,355.95,292.37,356.31,292.33,356.32z"/>
						</g>
					</g>
				</g>
				<g>
					<g>
						<g>
							<path style="fill:#EB996E;" d="M298.37,357.74c-0.03,0.01-0.18-0.36-0.41-1.05c-0.25-0.8-0.56-1.77-0.93-2.92
								c-0.76-2.47-1.78-5.89-2.87-9.67c-1.06-3.73-2.01-7.1-2.74-9.7c-0.39-1.21-1.02-2.04-1.6-2.44
								c-0.57-0.42-0.98-0.47-0.97-0.52c0-0.01,0.11-0.02,0.3,0.02c0.19,0.04,0.47,0.13,0.79,0.33c0.65,0.37,1.39,1.24,1.83,2.49
								c0.82,2.47,1.79,5.89,2.9,9.68c1.09,3.79,2.05,7.22,2.72,9.72c0.3,1.16,0.56,2.15,0.77,2.96
								C298.32,357.33,298.4,357.73,298.37,357.74z"/>
						</g>
					</g>
				</g>
			</g>
		</g>
	</g>
</g>
<g id="Speech_Bubble">
	<g>
		<g>
			<g>
				<g>
					<g>
						<g>
							<path style="fill:#455A64;" d="M440.47,140.89c0,1.93,1.57,3.5,3.5,3.5c1.93,0,3.5-1.57,3.5-3.5s-1.57-3.5-3.5-3.5
								C442.04,137.39,440.47,138.96,440.47,140.89z"/>
						</g>
					</g>
				</g>
			</g>
			<g>
				<g>
					<g>
						<g>
							<circle style="fill:#455A64;" cx="429.96" cy="140.89" r="3.5"/>
						</g>
					</g>
				</g>
			</g>
			<g>
				<g>
					<g>
						<g>
							<path style="fill:#455A64;" d="M412.49,139.14c-0.97,1.67-0.39,3.82,1.28,4.78c1.67,0.97,3.82,0.39,4.78-1.28
								c0.97-1.67,0.39-3.82-1.28-4.78C415.6,136.89,413.45,137.47,412.49,139.14z"/>
						</g>
					</g>
				</g>
			</g>
		</g>
		<g>
			<g>
				<g>
					<g>
						<g>
							<path style="fill:#455A64;" d="M429.74,100c0-0.02-0.24-0.02-0.71-0.01c-0.51,0.01-1.2,0.03-2.08,0.06
								c-0.46,0.02-0.97,0.02-1.53,0.07c-0.56,0.08-1.17,0.16-1.83,0.26c-0.67,0.1-1.38,0.2-2.14,0.31
								c-0.75,0.19-1.55,0.38-2.39,0.59c-3.36,0.86-7.43,2.34-11.6,5.06c-4.16,2.67-8.48,6.49-11.99,11.68
								c-3.44,5.2-6.1,11.73-6.8,19.08c-0.07,1.84-0.29,3.71-0.11,5.61c0.07,0.95,0.05,1.91,0.19,2.87
								c0.14,0.96,0.29,1.92,0.43,2.89c0.78,3.83,1.92,7.76,3.9,11.41c1.93,3.66,4.42,7.15,7.45,10.25
								c3.1,3.04,6.71,5.68,10.74,7.71c4.01,2.05,8.46,3.47,13.09,4.02c1.15,0.23,2.32,0.23,3.49,0.3c1.17,0.08,2.35,0.12,3.53,0.06
								c2.36-0.1,4.73-0.39,7.07-0.89c5.08-1.08,9.87-3.15,14.07-5.92l-0.43,0.04c4.88,1.96,9.66,3.88,14.33,5.75l0.85,0.34
								l-0.24-0.88c-1.45-5.26-2.85-10.37-4.21-15.32l-0.07,0.38c4.02-5.35,6.59-11.45,7.65-17.51c0.53-3.03,0.76-6.05,0.56-8.97
								c-0.06-1.46-0.13-2.91-0.41-4.31c-0.11-0.7-0.22-1.4-0.33-2.1c-0.13-0.69-0.34-1.36-0.5-2.03
								c-2.77-10.79-9.41-18.75-15.99-23.31c-3.29-2.32-6.54-3.98-9.52-5.02c-0.74-0.27-1.46-0.52-2.14-0.77
								c-0.71-0.18-1.38-0.35-2.04-0.52c-0.65-0.16-1.27-0.31-1.86-0.46c-0.6-0.11-1.17-0.18-1.71-0.26
								c-1.08-0.14-2.04-0.32-2.87-0.37c-0.82-0.03-1.52-0.05-2.11-0.07c-0.53-0.01-0.96-0.02-1.29-0.03
								C429.89,99.99,429.74,99.99,429.74,100c0,0.01,0.15,0.03,0.43,0.06c0.33,0.03,0.75,0.06,1.28,0.1
								c0.58,0.04,1.28,0.09,2.09,0.14c0.83,0.06,1.77,0.27,2.84,0.43c4.22,0.77,10.54,2.46,17,7.18
								c6.45,4.56,12.92,12.45,15.59,23.05c0.16,0.66,0.36,1.32,0.48,1.99c0.1,0.68,0.21,1.37,0.31,2.06
								c0.26,1.38,0.32,2.79,0.38,4.23c0.19,2.87-0.05,5.83-0.58,8.79c-1.06,5.94-3.59,11.9-7.54,17.13l-0.13,0.17l0.06,0.21
								c1.35,4.95,2.75,10.07,4.18,15.33l0.61-0.54c-4.67-1.88-9.45-3.81-14.33-5.77l-0.22-0.09l-0.2,0.13
								c-4.11,2.7-8.79,4.73-13.76,5.78c-2.29,0.49-4.6,0.78-6.91,0.87c-1.15,0.05-2.3,0.01-3.45-0.06
								c-1.14-0.07-2.29-0.07-3.41-0.29c-4.53-0.53-8.87-1.91-12.8-3.91c-3.94-1.98-7.48-4.56-10.52-7.53
								c-2.98-3.03-5.42-6.44-7.32-10.02c-1.94-3.57-3.07-7.41-3.85-11.16c-0.15-0.95-0.29-1.89-0.44-2.83
								c-0.14-0.94-0.12-1.88-0.19-2.81c-0.18-1.86,0.03-3.7,0.09-5.5c0.66-7.21,3.23-13.64,6.58-18.78
								c3.42-5.13,7.65-8.93,11.73-11.61c4.08-2.72,8.09-4.23,11.41-5.14c0.83-0.22,1.62-0.43,2.36-0.63
								c0.75-0.12,1.46-0.24,2.12-0.35c0.65-0.11,1.26-0.21,1.82-0.3c0.56-0.06,1.07-0.08,1.52-0.11c0.87-0.06,1.56-0.11,2.07-0.15
								C429.5,100.05,429.74,100.02,429.74,100z"/>
						</g>
					</g>
				</g>
			</g>
		</g>
	</g>
</g>
</svg>
