<?xml version="1.0" encoding="utf-8"?>
<!-- Generator: Adobe Illustrator 23.0.0, SVG Export Plug-In . SVG Version: 6.00 Build 0)  -->
<svg version="1.1" xmlns="http://www.w3.org/2000/svg" xmlns:xlink="http://www.w3.org/1999/xlink" x="0px" y="0px"
	 viewBox="0 0 428.37 384.44" style="enable-background:new 0 0 428.37 384.44;" xml:space="preserve">
<g id="Background_Complete">
	<g>
		<rect x="-33.47" y="333.27" style="fill:#EBEBEB;" width="500" height="0.25"/>
		<rect x="383.3" y="349.37" style="fill:#EBEBEB;" width="33.12" height="0.25"/>
		<rect x="289.05" y="352.08" style="fill:#EBEBEB;" width="8.69" height="0.25"/>
		<rect x="363.11" y="340.08" style="fill:#EBEBEB;" width="19.19" height="0.25"/>
		<rect x="18.98" y="341.76" style="fill:#EBEBEB;" width="43.19" height="0.25"/>
		<rect x="71.08" y="341.76" style="fill:#EBEBEB;" width="6.33" height="0.25"/>
		<rect x="98" y="345.98" style="fill:#EBEBEB;" width="93.68" height="0.25"/>
		<path style="fill:#EBEBEB;" d="M203.54,288.67H10.44c-3.15,0-5.71-2.56-5.71-5.71V11.53c0-3.15,2.56-5.71,5.71-5.71h193.1
			c3.15,0,5.71,2.56,5.71,5.71v271.43C209.25,286.11,206.69,288.67,203.54,288.67z M10.44,6.07c-3.01,0-5.46,2.45-5.46,5.46v271.43
			c0,3.01,2.45,5.46,5.46,5.46h193.1c3.01,0,5.46-2.45,5.46-5.46V11.53c0-3.01-2.45-5.46-5.46-5.46H10.44z"/>
		<path style="fill:#EBEBEB;" d="M419.84,288.67h-193.1c-3.15,0-5.71-2.56-5.71-5.71V11.53c0-3.15,2.56-5.71,5.71-5.71h193.1
			c3.15,0,5.71,2.56,5.71,5.71v271.43C425.54,286.11,422.98,288.67,419.84,288.67z M226.74,6.07c-3.01,0-5.46,2.45-5.46,5.46v271.43
			c0,3.01,2.45,5.46,5.46,5.46h193.1c3.01,0,5.46-2.45,5.46-5.46V11.53c0-3.01-2.45-5.46-5.46-5.46H226.74z"/>
	</g>
	<polygon style="fill:#F0F0F0;" points="360.46,97.18 251.61,60.42 251.53,60.33 194.02,1.39 147.91,43.51 147.23,42.77 194.06,0 
		252.16,59.55 360.08,96 404.37,35.06 405.18,35.65 	"/>
	<g>
		<path style="fill:#F0F0F0;" d="M22.14,187.66c0,2.97-2.41,5.38-5.38,5.38c-2.97,0-5.38-2.41-5.38-5.38s2.41-5.38,5.38-5.38
			C19.73,182.28,22.14,184.69,22.14,187.66z"/>
		<path style="fill:#F0F0F0;" d="M199.42,0.7c0,2.97-2.41,5.38-5.38,5.38s-5.38-2.41-5.38-5.38s2.41-5.38,5.38-5.38
			S199.42-2.28,199.42,0.7z"/>
		<path style="fill:#F0F0F0;" d="M410.16,35.35c0,2.97-2.41,5.38-5.38,5.38s-5.38-2.41-5.38-5.38s2.41-5.38,5.38-5.38
			S410.16,32.38,410.16,35.35z"/>
		<path style="fill:#F0F0F0;" d="M410.62,319.26c0,2.97-2.41,5.38-5.38,5.38c-2.97,0-5.38-2.41-5.38-5.38s2.41-5.38,5.38-5.38
			C408.22,313.88,410.62,316.28,410.62,319.26z"/>
		<path style="fill:#F0F0F0;" d="M257.27,59.98c0,2.97-2.41,5.38-5.38,5.38c-2.97,0-5.38-2.41-5.38-5.38s2.41-5.38,5.38-5.38
			C254.86,54.6,257.27,57.01,257.27,59.98z"/>
	</g>
	<polygon style="fill:#F0F0F0;" points="157.88,319.39 157.46,319.31 22.54,293.84 22.73,292.86 157.23,318.25 251.42,59.81 
		252.36,60.15 	"/>
	
		<rect x="51.19" y="73.8" transform="matrix(0.6629 -0.7487 0.7487 0.6629 -60.8458 73.9319)" style="fill:#F0F0F0;" width="1" height="61.49"/>
	<polygon style="fill:#F0F0F0;" points="404.98,319.68 338.28,278.34 339.73,277.94 409.82,210.52 359.81,96.79 360.72,96.39 
		411.01,210.75 410.76,211 340.53,278.56 405.51,318.83 	"/>
	<polygon style="fill:#F0F0F0;" points="23.06,293.62 22.22,293.08 62.53,230.8 16.05,187.69 16.39,187.32 74.61,124.29 
		74.95,124.49 340.24,277.96 339.74,278.82 74.8,125.56 17.47,187.63 63.83,230.64 	"/>
</g>
<g id="Background_Simple">
	<g style="display:inline;">
		<path style="fill:#407BFF;" d="M66.84,52.5C94.76-6.95,193.9,1.43,232.16,43.24c38.26,41.81,50.7,68.6,85.21,52.98
			c34.51-15.62,78.52-11.44,81.04,38.16S360.49,242.65,296.32,260c-64.18,17.35-64.16,78.76-149.1,66.37
			c-46.31-6.76-47.37-56.86-40.83-98.3C112.93,186.63,34.46,121.44,66.84,52.5z"/>
		<path style="opacity:0.9;fill:#FFFFFF;" d="M66.84,52.5C94.76-6.95,193.9,1.43,232.16,43.24c38.26,41.81,50.7,68.6,85.21,52.98
			c34.51-15.62,78.52-11.44,81.04,38.16S360.49,242.65,296.32,260c-64.18,17.35-64.16,78.76-149.1,66.37
			c-46.31-6.76-47.37-56.86-40.83-98.3C112.93,186.63,34.46,121.44,66.84,52.5z"/>
	</g>
</g>
<g id="Shadow_1_">
	<ellipse id="_x3C_Path_x3E__1_" style="fill:#F5F5F5;" cx="216.53" cy="367.11" rx="193.89" ry="11.32"/>
</g>
<g id="World">
	<g>
		<g>
			<g>
				<path style="fill:#D50000;" d="M207.53,250c2.69,0.22,5.35,0.31,7.99,0.27c22.6-0.33,43.28-10.03,57.95-25.62
					c12.16-12.92,20.19-29.91,21.76-48.97c0.04-0.49,0.08-0.99,0.11-1.48c0.66-10.2-0.6-20.09-3.46-29.31l0-0.01
					c-8.76-28.2-32.55-50.22-62.72-55.82c-2.7-0.5-5.45-0.87-8.25-1.1c-6.75-0.56-13.38-0.27-19.78,0.77
					c-18.95,3.07-35.91,12.76-48.18,26.79c-11.03,12.62-18.27,28.76-19.75,46.75c-0.8,9.64,0.12,19.03,2.5,27.85
					C144.38,222.3,172.42,247.1,207.53,250z"/>
			</g>
			<g style="opacity:0.7;">
				<path style="fill:#FFFFFF;" d="M207.53,250c2.69,0.22,5.35,0.31,7.99,0.27c22.6-0.33,43.28-10.03,57.95-25.62
					c12.16-12.92,20.19-29.91,21.76-48.97c0.04-0.49,0.08-0.99,0.11-1.48c0.66-10.2-0.6-20.09-3.46-29.31l0-0.01
					c-8.76-28.2-32.55-50.22-62.72-55.82c-2.7-0.5-5.45-0.87-8.25-1.1c-6.75-0.56-13.38-0.27-19.78,0.77
					c-18.95,3.07-35.91,12.76-48.18,26.79c-11.03,12.62-18.27,28.76-19.75,46.75c-0.8,9.64,0.12,19.03,2.5,27.85
					C144.38,222.3,172.42,247.1,207.53,250z"/>
			</g>
			<g>
				<path style="fill:#D50000;enable-background:new    ;" d="M153.34,188.81c-0.26,1.51-2.18,2.05-3.73,2.25
					c-2.32,0.29-4.65,0.58-6.97,0.87c-1.1-2.89-4.52-2.91-6.92-1.79c8.66,32.16,36.71,56.96,71.81,59.86
					c2.69,0.22,5.35,0.31,7.99,0.27c0.05-0.06,0.09-0.13,0.13-0.2c1.21-2.13-0.55-4.02-1.49-5.76c-0.21-0.39-2.2-5.43-1.54-5.44
					c-2.14,0.04-4.28-0.23-6.33-0.82c-0.16-0.04-0.33-0.1-0.41-0.24c-0.19-0.33,0.27-0.66,0.64-0.75c0.96-0.22,1.95-0.28,2.89-0.56
					c0.94-0.28,1.87-0.86,2.23-1.77c0.37-0.92,0.1-1.97,0.31-2.93c0.26-1.18,1.22-2.1,2.3-2.63c1.05-0.5,2.23-0.69,3.36-0.89
					c-2.46-1.34-0.67-4.12-2.6-5.99c-0.62-0.6-1.52-1.33-1.14-2.1c0.36-0.73,1.66-0.72,1.82-1.53c0.11-0.56-0.48-1.02-1.04-1.15
					c-0.56-0.13-1.17-0.08-1.67-0.36c-0.7-0.39-0.94-1.43-0.47-2.09c0.42-0.59,1.2-0.77,1.83-1.11c0.64-0.34,1.21-1.13,0.83-1.74
					c-0.09-0.14-0.22-0.26-0.37-0.35c-1.04-0.64-2.4-0.11-3.42,0.58c-1.02,0.68-2.05,1.54-3.27,1.53c-0.28-0.46-0.08-1.14,0.4-1.38
					c0.17-0.08,0.37-0.12,0.5-0.26c0.29-0.29,0.07-0.77-0.12-1.13c-0.92-1.69-1.13-3.75-0.56-5.58c2.48,0.05,4.96,0.09,7.44,0.14
					c0.06-0.56,0.12-0.89,0.71-1.06c-1.66-1.99-3.48-3.83-4.95-6c-0.18-0.26-0.37-0.54-0.66-0.64c-0.31-0.11-0.65,0-0.98-0.05
					c-1.07-0.15-1.25-1.61-1.14-2.69c-0.15-0.33-0.68-0.19-0.88,0.12c-0.2,0.3-0.24,0.69-0.49,0.96c-0.36,0.4-1.01,0.36-1.51,0.16
					c-1.74-0.67-2.67-2.94-1.89-4.64c0.09-0.2,0.21-0.4,0.41-0.51c0.42-0.24,0.94,0.06,1.42,0.14c1.9,0.34,1.61-1.76,1.15-2.75
					c-0.62-1.35-2.47-2.21-3.81-2.56c-1.57-0.4-12.04-2.4-10.31-5.82c0.16-0.32,0.48-0.54,0.81-0.68c1-0.44,2.15-0.31,3.2-0.61
					c1.05-0.3,2.06-1.39,1.61-2.37c-0.18-0.4-0.56-0.67-0.77-1.05c-0.59-1.06,0.32-2.44-0.1-3.59c-0.19-0.52-0.64-0.91-0.92-1.4
					c-0.28-0.48-0.33-1.21,0.15-1.5c0.54-0.32,1.27,0.16,1.84-0.1c0.6-0.27,0.55-1.25,0.01-1.62c-0.54-0.37-1.31-0.23-1.85,0.14
					c-0.28,0.19-0.55,0.45-0.89,0.49c-0.61,0.08-1.07-0.53-1.38-1.06c-0.5-0.85-0.99-1.69-1.49-2.54c-0.56,0.01-0.99,0.52-1.18,1.05
					c-0.19,0.53-0.23,1.1-0.45,1.62c-1.05,2.51-4.87,2.21-4.38,5.64c1.03-0.12,1.98,1.04,1.66,2.02c-0.4,1.21-2.22,1.88-1.97,3.13
					c0.09,0.44,0.44,0.79,0.51,1.23c0.19,1.21-1.68,1.66-2.49,1.93c-2.67,0.92-2.85-0.84-5.16-0.94c-1.06-0.05-2.01,0.67-3.06,0.78
					c-0.97,0.11-1.93-0.3-2.9-0.25c-2.67,0.16-1.33,3.78-1.14,5.36c-1.44-0.96-3.36,0.16-4.5,1.45c-1.76,1.98-1.59,1.63-3.92,1.72
					c-0.61,0.02-1.26,0.33-1.51,0.89c-0.43,0.98,0.49,2.03,0.51,3.1c0.01,0.51-0.19,1.02-0.14,1.53c0.12,1.34,1.71,1.93,2.68,2.87
					c0.84,0.82,1.24,2.08,1.03,3.24c-0.69,0.04-1.38-0.01-2.05-0.15c-0.4-0.78-0.8-1.55-1.21-2.33c-0.36-0.69-0.73-1.4-1.36-1.86
					c-0.35-0.26-0.78-0.43-1.03-0.78c-0.51-0.7-0.1-1.65,0.02-2.51c0.29-2.07-0.75-5.55-1.25-7.6c-0.54-2.19-1.99-3.05-2.52-5.07
					c-0.09-0.36-0.59-0.47-0.91-0.29c-0.32,0.18-0.48,0.55-0.58,0.91c-0.21,0.83-0.13,1.73,0.22,2.5c-0.46-1.02-3.04,1.66-3.2,2.17
					c-0.26,0.83,0.3,2.02,0.28,2.89c-0.05,2.15-0.57,3.36-2.8,1.78c-0.85-0.61-1.94-1.32-2.84-0.79c0.19,0.58-0.2,1.24-0.75,1.52
					c-0.55,0.28-1.2,0.25-1.81,0.14c-0.41-0.08-0.83-0.21-1.1-0.53c-0.14-0.17-0.23-0.39-0.4-0.53c-0.57-0.44-1.29,0.33-1.6,0.98"/>
				<path style="fill:#D50000;enable-background:new    ;" d="M251.55,124.89c0.45,0.7-0.02,1.62-0.54,2.28s-1.11,1.43-0.89,2.24
					c0.96,0.09,1.93,0.18,2.89,0.26c0.18,0.02,0.38,0.04,0.5,0.18c0.12,0.14,0.1,0.35,0.08,0.53c-0.08,0.62-0.15,1.24-0.23,1.86
					c-0.61,0.48-1.2-1.02-1.95-0.87c-0.34,0.07-0.51,0.43-0.69,0.71c-1.57,2.46-4.3,0.62-5.76-0.66c-1.7-1.48-4.16-1.58-6.42-1.6
					c-0.8-0.01-1.7,0.02-2.27,0.6c-0.56,0.56-0.59,1.44-0.88,2.19c-0.48,1.3-1.73,2.15-2.43,3.34c-2.46,4.17,1.96,7.38,5.72,6.24
					c1.95-0.59,1.61-0.93,3.61-0.36c0.83,0.24,1.85,0.03,2.36,0.96c0.54,0.98-0.22,2.27-1.36,2.26c-1.12-0.01-2.19,0.16-3.2-0.37
					c0.38,1.32-0.04,2.82-0.14,4.22c-1.28-0.3-2.54,1.28-1.97,2.46c0.64,0.01,1.49,0.25,1.44,0.88c-0.02,0.18-0.12,0.35-0.22,0.5
					c-0.44,0.63-1.01,1.18-1.39,1.86c-0.58,1.04-0.58,4.15-2.07,4.52c-0.26,0.07-0.54,0.04-0.8,0.13c-0.55,0.17-0.86,0.83-0.73,1.39
					c0.13,0.56,0.62,0.99,1.18,1.14c0.37,0.1,0.77,0.09,1.13,0.22c1.92,0.67,0.23,2.57,0.69,3.51c0.22,0.45,3.43,2.48,3.83,2.55
					c-1.13,0.78-2.12,1.99-2.17,3.42c-0.05,1.56,1.14,2.32,2.63,2.79c1.57,0.49,3.47,0.65,4.61,1.09c0.61,0.24,1.35,0.45,1.86,0.05
					c0.64-0.51,0.5-1.69,1.24-2.04c0.23-0.11,0.5-0.1,0.76-0.12c1.51-0.14,2.72-1.73,2.45-3.23c0.35-0.46,1.03-0.41,1.61-0.4
					c0.57,0.02,1.3-0.17,1.38-0.74c0.1-0.65-0.74-1.02-1.4-1.05c-0.67-0.04-1.35,0.01-2.01,0.16c-0.49,0.11-1.02,0.27-1.48,0.06
					c-0.35-0.16-0.58-0.49-0.77-0.81c-0.48-0.78-0.89-1.66-0.82-2.57c0.08-0.91,0.81-1.82,1.73-1.79c0.25,0.01,0.49,0.08,0.73,0.04
					c0.62-0.1,0.89-0.87,0.86-1.5c-0.04-0.63-0.25-1.27-0.08-1.88c0.17-0.61,1.01-1.06,1.43-0.59c0.35-0.81,0.59-1.98-0.2-2.37
					c-0.25-0.12-0.55-0.12-0.83-0.14c-1.74-0.16-4.09-2.52-2.16-3.86c1.27-0.88,3.32,0.96,4.44-0.71c0.53-0.8,0.2-1.96,0.75-2.75
					c0.32-0.23,0.7,0.24,0.78,0.63c0.23,1.25-0.25,2.6-1.21,3.42c0.98,0.57,2.52-0.08,3.19,0.84c0.66,0.9-0.31,2.48,0.55,3.18
					c0.25,0.2,0.58,0.26,0.9,0.3c1.56,0.23,4.48-0.03,4.58,2.21c0.01,0.27-0.03,0.55,0.05,0.81c0.24,0.79,1.31,0.86,2.13,0.78
					c0.42-0.81-0.13-1.75-0.49-2.58c-0.36-0.83-0.34-2.11,0.55-2.32c0.63-0.15,1.37,0.4,1.91,0.02c0.25-0.17,0.36-0.5,0.63-0.64
					c0.65-0.34,1.19,0.65,1.89,0.87c0.96,0.31,1.69-0.95,1.69-1.96c0-1.01-0.25-2.15,0.41-2.92c0.21-0.24,0.49-0.41,0.72-0.63
					c0.71-0.68,0.85-1.75,0.94-2.73c0.16-1.56,6.32,2.48,6.71,2.55c2.96,0.49,4.78-2.44,6.81-4.05c1.07-0.84,2.3-1.42,3.54-2
					c-8.44-27.15-31.17-48.47-58.86-55c-1.24-0.29-2.52-0.63-3.77-0.73c0.38,1.89,1.55,4.87,0.28,6.67
					c-1.61,2.28-5.02,0.28-6.27,2.95c-0.04,0.68,1.09,0.57,1.62,1.01c0.29,0.24,0.37,0.65,0.51,1c0.14,0.35,0.48,0.71,0.85,0.59
					c0.42,0.63-0.24,1.41-0.79,1.92c-0.66,0.6-1.27,1.31-1.52,2.16c-0.52,1.79,0.66,3.56,1.41,5.26c0.62,1.41,0.97,2.91,1.32,4.41
					c0.01-0.71,1.02-0.99,1.65-0.67c0.63,0.32,1.02,0.97,1.53,1.46c0.88,0.84,2.01,0.33,2.95,1.05c1.17,0.89,1.92,2.48,3.37,2.72
					c1.76,0.29,3.03-1.58,3.81-3.17c1.93,1.02,3.12,3.49,5.3,3.65c0.84,0.06,1.65-0.25,2.43-0.56c1.6-0.63,3.2-1.26,4.79-1.89
					c0.66-0.26,1.39-0.53,2.06-0.28c0.79,0.28,1.19,1.14,1.51,1.9c0.34,0.84,0.69,1.67,1.03,2.51c0.14,0.35,0.28,0.72,0.19,1.08
					c-0.1,0.39-0.43,0.65-0.77,0.87c-1.81,1.19-4.07,1.65-6.2,1.27c0.21,2.89,0.78,5.76,1.69,8.52c-1.63-0.42-3.51,0.12-5.02-0.51"
					/>
				<path style="fill:#D50000;enable-background:new    ;" d="M232.96,190.89c-0.61,0.73-1.5,1.28-2.45,1.26
					c-0.59-0.01-1.14-0.24-1.72-0.33c-0.58-0.08-1.26,0.03-1.58,0.52c-0.41,0.63-0.02,1.45,0.36,2.09c0.31,0.52,0.68,1.08,1.27,1.25
					c0.43,0.12,0.89,0,1.33,0.07c0.87,0.14,1.43,0.96,2,1.63c0.58,0.66,1.52,1.26,2.29,0.83c0.5-0.28,0.72-0.92,1.21-1.23
					c1.2-0.75,2.66,0.88,3.75,0.27c1.28-0.73,0.81-2.82,0.28-4c-0.54-1.19-1.63-2.11-2.55-3
					C234.54,187.74,234.91,188.58,232.96,190.89z"/>
				<path style="fill:#D50000;enable-background:new    ;" d="M273.5,224.59c12.79-12.67,20.27-31.14,21.74-48.9
					c0.04-0.49,0.08-0.99,0.11-1.48c-2.47-2.54-7.38-4.17-8.67,0.41c-0.51-0.04-0.61-0.34-1-0.62c-0.61-0.45-1.46,0.16-1.8,0.83
					c-1.11,2.21-1.27,4.98-4.33,4.39c-3.65-0.71-1.18-2.27-2.37-4.29c-0.17-0.29-0.47-0.48-0.71-0.72
					c-0.87-0.88-0.76-2.31-0.58-3.54c0.7,0.36,1.68-0.05,1.92-0.8c0.09-0.28,0.09-0.61,0.28-0.84c0.41-0.49,1.27-0.03,1.46,0.58
					c0.2,0.61,0.05,1.28,0.18,1.9c0.13,0.63,0.82,1.24,1.36,0.91c0.23-0.14,0.35-0.4,0.43-0.66c0.33-1.07,0.09-2.3-0.63-3.17
					c0.6-0.16,1.06-0.76,1.04-1.38c-0.01-0.62-0.49-1.2-1.1-1.34c-0.89-0.19-2.16,0.33-2.52-0.51c0.13,0.73-0.18,1.52-0.78,1.95
					c-2.36,1.71-7.66,0.19-7.13,5.21c0.08,0.81,0.37,1.59,0.35,2.4c-0.02,0.81-0.46,1.71-1.26,1.86c1.43,1.15,0.91,3.8,2.45,4.81
					c0.72,0.48,1.78,0.36,2.39-0.25c0.1-0.1,0.2-0.22,0.34-0.26c0.28-0.09,0.54,0.18,0.83,0.24c0.5,0.11,0.93-0.41,1.44-0.44
					c0.71-0.04,1.1,0.81,1.22,1.51c0.13,0.7,0.31,1.56,1,1.75c0.23,0.07,0.49,0.03,0.72,0.1c0.47,0.13,0.75,0.64,0.78,1.13
					c0.03,0.49-0.15,0.96-0.32,1.42c-0.3,0.3-0.82,0.12-1.11-0.19c-0.28-0.31-0.46-0.72-0.78-0.98c-0.18-0.15-4.43,0.18-4.3-0.13
					c-0.63,1.46-0.95,4.66-3.15,3.85c-0.78-0.29-1.57-0.81-2.36-0.58c0.38-1.03,0.74-2.07,1.09-3.11c-0.32-0.28-0.82,0.11-0.96,0.51
					c-0.14,0.41-0.16,0.9-0.5,1.16c-0.24,0.18-0.57,0.18-0.87,0.18c-0.98-0.02-1.96-0.04-2.94-0.06c-1.06-0.02-2.29,0.03-2.95,0.86
					c-0.75,0.95-0.32,2.4,0.48,3.3c0.19,0.22,0.42,0.46,0.4,0.75c-0.02,0.26-0.23,0.46-0.42,0.64c-1,0.96-1.66,2.36-1.44,3.72
					c0.22,1.37,1.48,2.58,2.86,2.46c0.53-0.05,1.19-0.23,1.5,0.21c0.18,0.25,0.18,0.66,0.46,0.79c0.36,0.16,0.66-0.29,0.92-0.59
					c0.47-0.54,1.33-0.68,1.94-0.31c0.31,0.19,1.29,3.21,1.04,3.64c-0.59,1.01-3.37,0.61-4.46,0.66c-0.42,0.02-0.89,0.06-1.17,0.38
					c-0.43,0.5-0.08,1.29,0.4,1.73c0.48,0.45,1.11,0.79,1.35,1.41c0.14,0.36,0.12,0.75,0.11,1.13c-0.04,0.77-0.11,1.64-0.7,2.14
					c-0.28,0.23-0.63,0.36-0.91,0.59c-0.63,0.54-0.67,1.5-0.45,2.3c0.22,0.8,0.65,1.53,0.8,2.34c0.32,1.73-0.62,3.6,0.06,5.22
					c0.33,0.78,1.37,1.41,2.01,0.86c0.56-0.48,0.55-1.6,1.28-1.68c0.7-0.08,1.56,1.68,2.14,2.03c0.46,0.27,1.39-0.18,2.23,0.43
					C272.63,222.96,272.76,224.05,273.5,224.59z"/>
				<path style="fill:#D50000;enable-background:new    ;" d="M164.95,116.28c0.72-0.91,1.17-1.97,2.52-2.2
					c1.84-0.32,2.53,0.71,1.73,2.45c-0.07,0.16-0.15,0.32-0.11,0.49c0.13,0.53,0.92,0.22,1.37-0.08c1.06-0.71,2.4-0.67,3.53-0.17
					c0.27,0.12,0.77-4.93,0.5-5.51c-0.92-2.03-5.17-1.07-4.3-3.28c1.59-0.03,3.22,0.17,4.82,0.29c0.09-0.77,0.17-1.54,0.26-2.3
					c-0.07,0.57,2.91,0.45,3.24,0.28c1.31-0.66,0.95-3.05,3.3-2.66c2.97,0.49,3.14,6.33-0.24,5.38c-0.81,1.71-1.12,3.77-1.2,5.66
					c-0.61,0-1.23-0.01-1.84-0.02c-0.3,0.42-0.39,0.99-0.22,1.49c1.47,1.03,3.58,1.05,5.07,0.05c0.96,0.74,2.33,0.03,3.32-0.67
					c1.39,2.24,5.38,1.92,6.4-0.5c1.03-2.43-1.53-5.51-4.1-4.95c-0.05-1.23-0.49-2.43-1.25-3.39c3.19,0.11,6.33-2.06,7.35-5.09
					c0.52-1.52,0.63-3.36,1.92-4.33c0.57-0.43,1.29-0.61,1.89-1.01c1.33-0.9,1.72-2.65,1.93-4.24c0.14-1.07,0.24-2.14,0.3-3.21
					c-18.95,3.07-35.91,12.76-48.18,26.79c-0.06,0.56-0.1,1.15,0.12,1.66c0.42,0.95,1.54,1.31,2.55,1.58
					c3.9,1.03,6.39,0.81,9.09-2.23C164.81,116.46,164.88,116.37,164.95,116.28z"/>
			</g>
			<g style="opacity:0.4;">
				<path style="fill:#FFFFFF;enable-background:new    ;" d="M153.34,188.81c-0.26,1.51-2.18,2.05-3.73,2.25
					c-2.32,0.29-4.65,0.58-6.97,0.87c-1.1-2.89-4.52-2.91-6.92-1.79c8.66,32.16,36.71,56.96,71.81,59.86
					c2.69,0.22,5.35,0.31,7.99,0.27c0.05-0.06,0.09-0.13,0.13-0.2c1.21-2.13-0.55-4.02-1.49-5.76c-0.21-0.39-2.2-5.43-1.54-5.44
					c-2.14,0.04-4.28-0.23-6.33-0.82c-0.16-0.04-0.33-0.1-0.41-0.24c-0.19-0.33,0.27-0.66,0.64-0.75c0.96-0.22,1.95-0.28,2.89-0.56
					c0.94-0.28,1.87-0.86,2.23-1.77c0.37-0.92,0.1-1.97,0.31-2.93c0.26-1.18,1.22-2.1,2.3-2.63c1.05-0.5,2.23-0.69,3.36-0.89
					c-2.46-1.34-0.67-4.12-2.6-5.99c-0.62-0.6-1.52-1.33-1.14-2.1c0.36-0.73,1.66-0.72,1.82-1.53c0.11-0.56-0.48-1.02-1.04-1.15
					c-0.56-0.13-1.17-0.08-1.67-0.36c-0.7-0.39-0.94-1.43-0.47-2.09c0.42-0.59,1.2-0.77,1.83-1.11c0.64-0.34,1.21-1.13,0.83-1.74
					c-0.09-0.14-0.22-0.26-0.37-0.35c-1.04-0.64-2.4-0.11-3.42,0.58c-1.02,0.68-2.05,1.54-3.27,1.53c-0.28-0.46-0.08-1.14,0.4-1.38
					c0.17-0.08,0.37-0.12,0.5-0.26c0.29-0.29,0.07-0.77-0.12-1.13c-0.92-1.69-1.13-3.75-0.56-5.58c2.48,0.05,4.96,0.09,7.44,0.14
					c0.06-0.56,0.12-0.89,0.71-1.06c-1.66-1.99-3.48-3.83-4.95-6c-0.18-0.26-0.37-0.54-0.66-0.64c-0.31-0.11-0.65,0-0.98-0.05
					c-1.07-0.15-1.25-1.61-1.14-2.69c-0.15-0.33-0.68-0.19-0.88,0.12c-0.2,0.3-0.24,0.69-0.49,0.96c-0.36,0.4-1.01,0.36-1.51,0.16
					c-1.74-0.67-2.67-2.94-1.89-4.64c0.09-0.2,0.21-0.4,0.41-0.51c0.42-0.24,0.94,0.06,1.42,0.14c1.9,0.34,1.61-1.76,1.15-2.75
					c-0.62-1.35-2.47-2.21-3.81-2.56c-1.57-0.4-12.04-2.4-10.31-5.82c0.16-0.32,0.48-0.54,0.81-0.68c1-0.44,2.15-0.31,3.2-0.61
					c1.05-0.3,2.06-1.39,1.61-2.37c-0.18-0.4-0.56-0.67-0.77-1.05c-0.59-1.06,0.32-2.44-0.1-3.59c-0.19-0.52-0.64-0.91-0.92-1.4
					c-0.28-0.48-0.33-1.21,0.15-1.5c0.54-0.32,1.27,0.16,1.84-0.1c0.6-0.27,0.55-1.25,0.01-1.62c-0.54-0.37-1.31-0.23-1.85,0.14
					c-0.28,0.19-0.55,0.45-0.89,0.49c-0.61,0.08-1.07-0.53-1.38-1.06c-0.5-0.85-0.99-1.69-1.49-2.54c-0.56,0.01-0.99,0.52-1.18,1.05
					c-0.19,0.53-0.23,1.1-0.45,1.62c-1.05,2.51-4.87,2.21-4.38,5.64c1.03-0.12,1.98,1.04,1.66,2.02c-0.4,1.21-2.22,1.88-1.97,3.13
					c0.09,0.44,0.44,0.79,0.51,1.23c0.19,1.21-1.68,1.66-2.49,1.93c-2.67,0.92-2.85-0.84-5.16-0.94c-1.06-0.05-2.01,0.67-3.06,0.78
					c-0.97,0.11-1.93-0.3-2.9-0.25c-2.67,0.16-1.33,3.78-1.14,5.36c-1.44-0.96-3.36,0.16-4.5,1.45c-1.76,1.98-1.59,1.63-3.92,1.72
					c-0.61,0.02-1.26,0.33-1.51,0.89c-0.43,0.98,0.49,2.03,0.51,3.1c0.01,0.51-0.19,1.02-0.14,1.53c0.12,1.34,1.71,1.93,2.68,2.87
					c0.84,0.82,1.24,2.08,1.03,3.24c-0.69,0.04-1.38-0.01-2.05-0.15c-0.4-0.78-0.8-1.55-1.21-2.33c-0.36-0.69-0.73-1.4-1.36-1.86
					c-0.35-0.26-0.78-0.43-1.03-0.78c-0.51-0.7-0.1-1.65,0.02-2.51c0.29-2.07-0.75-5.55-1.25-7.6c-0.54-2.19-1.99-3.05-2.52-5.07
					c-0.09-0.36-0.59-0.47-0.91-0.29c-0.32,0.18-0.48,0.55-0.58,0.91c-0.21,0.83-0.13,1.73,0.22,2.5c-0.46-1.02-3.04,1.66-3.2,2.17
					c-0.26,0.83,0.3,2.02,0.28,2.89c-0.05,2.15-0.57,3.36-2.8,1.78c-0.85-0.61-1.94-1.32-2.84-0.79c0.19,0.58-0.2,1.24-0.75,1.52
					c-0.55,0.28-1.2,0.25-1.81,0.14c-0.41-0.08-0.83-0.21-1.1-0.53c-0.14-0.17-0.23-0.39-0.4-0.53c-0.57-0.44-1.29,0.33-1.6,0.98"/>
				<path style="fill:#FFFFFF;enable-background:new    ;" d="M251.55,124.89c0.45,0.7-0.02,1.62-0.54,2.28s-1.11,1.43-0.89,2.24
					c0.96,0.09,1.93,0.18,2.89,0.26c0.18,0.02,0.38,0.04,0.5,0.18c0.12,0.14,0.1,0.35,0.08,0.53c-0.08,0.62-0.15,1.24-0.23,1.86
					c-0.61,0.48-1.2-1.02-1.95-0.87c-0.34,0.07-0.51,0.43-0.69,0.71c-1.57,2.46-4.3,0.62-5.76-0.66c-1.7-1.48-4.16-1.58-6.42-1.6
					c-0.8-0.01-1.7,0.02-2.27,0.6c-0.56,0.56-0.59,1.44-0.88,2.19c-0.48,1.3-1.73,2.15-2.43,3.34c-2.46,4.17,1.96,7.38,5.72,6.24
					c1.95-0.59,1.61-0.93,3.61-0.36c0.83,0.24,1.85,0.03,2.36,0.96c0.54,0.98-0.22,2.27-1.36,2.26c-1.12-0.01-2.19,0.16-3.2-0.37
					c0.38,1.32-0.04,2.82-0.14,4.22c-1.28-0.3-2.54,1.28-1.97,2.46c0.64,0.01,1.49,0.25,1.44,0.88c-0.02,0.18-0.12,0.35-0.22,0.5
					c-0.44,0.63-1.01,1.18-1.39,1.86c-0.58,1.04-0.58,4.15-2.07,4.52c-0.26,0.07-0.54,0.04-0.8,0.13c-0.55,0.17-0.86,0.83-0.73,1.39
					c0.13,0.56,0.62,0.99,1.18,1.14c0.37,0.1,0.77,0.09,1.13,0.22c1.92,0.67,0.23,2.57,0.69,3.51c0.22,0.45,3.43,2.48,3.83,2.55
					c-1.13,0.78-2.12,1.99-2.17,3.42c-0.05,1.56,1.14,2.32,2.63,2.79c1.57,0.49,3.47,0.65,4.61,1.09c0.61,0.24,1.35,0.45,1.86,0.05
					c0.64-0.51,0.5-1.69,1.24-2.04c0.23-0.11,0.5-0.1,0.76-0.12c1.51-0.14,2.72-1.73,2.45-3.23c0.35-0.46,1.03-0.41,1.61-0.4
					c0.57,0.02,1.3-0.17,1.38-0.74c0.1-0.65-0.74-1.02-1.4-1.05c-0.67-0.04-1.35,0.01-2.01,0.16c-0.49,0.11-1.02,0.27-1.48,0.06
					c-0.35-0.16-0.58-0.49-0.77-0.81c-0.48-0.78-0.89-1.66-0.82-2.57c0.08-0.91,0.81-1.82,1.73-1.79c0.25,0.01,0.49,0.08,0.73,0.04
					c0.62-0.1,0.89-0.87,0.86-1.5c-0.04-0.63-0.25-1.27-0.08-1.88c0.17-0.61,1.01-1.06,1.43-0.59c0.35-0.81,0.59-1.98-0.2-2.37
					c-0.25-0.12-0.55-0.12-0.83-0.14c-1.74-0.16-4.09-2.52-2.16-3.86c1.27-0.88,3.32,0.96,4.44-0.71c0.53-0.8,0.2-1.96,0.75-2.75
					c0.32-0.23,0.7,0.24,0.78,0.63c0.23,1.25-0.25,2.6-1.21,3.42c0.98,0.57,2.52-0.08,3.19,0.84c0.66,0.9-0.31,2.48,0.55,3.18
					c0.25,0.2,0.58,0.26,0.9,0.3c1.56,0.23,4.48-0.03,4.58,2.21c0.01,0.27-0.03,0.55,0.05,0.81c0.24,0.79,1.31,0.86,2.13,0.78
					c0.42-0.81-0.13-1.75-0.49-2.58c-0.36-0.83-0.34-2.11,0.55-2.32c0.63-0.15,1.37,0.4,1.91,0.02c0.25-0.17,0.36-0.5,0.63-0.64
					c0.65-0.34,1.19,0.65,1.89,0.87c0.96,0.31,1.69-0.95,1.69-1.96c0-1.01-0.25-2.15,0.41-2.92c0.21-0.24,0.49-0.41,0.72-0.63
					c0.71-0.68,0.85-1.75,0.94-2.73c0.16-1.56,6.32,2.48,6.71,2.55c2.96,0.49,4.78-2.44,6.81-4.05c1.07-0.84,2.3-1.42,3.54-2
					c-8.44-27.15-31.17-48.47-58.86-55c-1.24-0.29-2.52-0.63-3.77-0.73c0.38,1.89,1.55,4.87,0.28,6.67
					c-1.61,2.28-5.02,0.28-6.27,2.95c-0.04,0.68,1.09,0.57,1.62,1.01c0.29,0.24,0.37,0.65,0.51,1c0.14,0.35,0.48,0.71,0.85,0.59
					c0.42,0.63-0.24,1.41-0.79,1.92c-0.66,0.6-1.27,1.31-1.52,2.16c-0.52,1.79,0.66,3.56,1.41,5.26c0.62,1.41,0.97,2.91,1.32,4.41
					c0.01-0.71,1.02-0.99,1.65-0.67c0.63,0.32,1.02,0.97,1.53,1.46c0.88,0.84,2.01,0.33,2.95,1.05c1.17,0.89,1.92,2.48,3.37,2.72
					c1.76,0.29,3.03-1.58,3.81-3.17c1.93,1.02,3.12,3.49,5.3,3.65c0.84,0.06,1.65-0.25,2.43-0.56c1.6-0.63,3.2-1.26,4.79-1.89
					c0.66-0.26,1.39-0.53,2.06-0.28c0.79,0.28,1.19,1.14,1.51,1.9c0.34,0.84,0.69,1.67,1.03,2.51c0.14,0.35,0.28,0.72,0.19,1.08
					c-0.1,0.39-0.43,0.65-0.77,0.87c-1.81,1.19-4.07,1.65-6.2,1.27c0.21,2.89,0.78,5.76,1.69,8.52c-1.63-0.42-3.51,0.12-5.02-0.51"
					/>
				<path style="fill:#FFFFFF;enable-background:new    ;" d="M232.96,190.89c-0.61,0.73-1.5,1.28-2.45,1.26
					c-0.59-0.01-1.14-0.24-1.72-0.33c-0.58-0.08-1.26,0.03-1.58,0.52c-0.41,0.63-0.02,1.45,0.36,2.09c0.31,0.52,0.68,1.08,1.27,1.25
					c0.43,0.12,0.89,0,1.33,0.07c0.87,0.14,1.43,0.96,2,1.63c0.58,0.66,1.52,1.26,2.29,0.83c0.5-0.28,0.72-0.92,1.21-1.23
					c1.2-0.75,2.66,0.88,3.75,0.27c1.28-0.73,0.81-2.82,0.28-4c-0.54-1.19-1.63-2.11-2.55-3
					C234.54,187.74,234.91,188.58,232.96,190.89z"/>
				<path style="fill:#FFFFFF;enable-background:new    ;" d="M273.5,224.59c12.79-12.67,20.27-31.14,21.74-48.9
					c0.04-0.49,0.08-0.99,0.11-1.48c-2.47-2.54-7.38-4.17-8.67,0.41c-0.51-0.04-0.61-0.34-1-0.62c-0.61-0.45-1.46,0.16-1.8,0.83
					c-1.11,2.21-1.27,4.98-4.33,4.39c-3.65-0.71-1.18-2.27-2.37-4.29c-0.17-0.29-0.47-0.48-0.71-0.72
					c-0.87-0.88-0.76-2.31-0.58-3.54c0.7,0.36,1.68-0.05,1.92-0.8c0.09-0.28,0.09-0.61,0.28-0.84c0.41-0.49,1.27-0.03,1.46,0.58
					c0.2,0.61,0.05,1.28,0.18,1.9c0.13,0.63,0.82,1.24,1.36,0.91c0.23-0.14,0.35-0.4,0.43-0.66c0.33-1.07,0.09-2.3-0.63-3.17
					c0.6-0.16,1.06-0.76,1.04-1.38c-0.01-0.62-0.49-1.2-1.1-1.34c-0.89-0.19-2.16,0.33-2.52-0.51c0.13,0.73-0.18,1.52-0.78,1.95
					c-2.36,1.71-7.66,0.19-7.13,5.21c0.08,0.81,0.37,1.59,0.35,2.4c-0.02,0.81-0.46,1.71-1.26,1.86c1.43,1.15,0.91,3.8,2.45,4.81
					c0.72,0.48,1.78,0.36,2.39-0.25c0.1-0.1,0.2-0.22,0.34-0.26c0.28-0.09,0.54,0.18,0.83,0.24c0.5,0.11,0.93-0.41,1.44-0.44
					c0.71-0.04,1.1,0.81,1.22,1.51c0.13,0.7,0.31,1.56,1,1.75c0.23,0.07,0.49,0.03,0.72,0.1c0.47,0.13,0.75,0.64,0.78,1.13
					c0.03,0.49-0.15,0.96-0.32,1.42c-0.3,0.3-0.82,0.12-1.11-0.19c-0.28-0.31-0.46-0.72-0.78-0.98c-0.18-0.15-4.43,0.18-4.3-0.13
					c-0.63,1.46-0.95,4.66-3.15,3.85c-0.78-0.29-1.57-0.81-2.36-0.58c0.38-1.03,0.74-2.07,1.09-3.11c-0.32-0.28-0.82,0.11-0.96,0.51
					c-0.14,0.41-0.16,0.9-0.5,1.16c-0.24,0.18-0.57,0.18-0.87,0.18c-0.98-0.02-1.96-0.04-2.94-0.06c-1.06-0.02-2.29,0.03-2.95,0.86
					c-0.75,0.95-0.32,2.4,0.48,3.3c0.19,0.22,0.42,0.46,0.4,0.75c-0.02,0.26-0.23,0.46-0.42,0.64c-1,0.96-1.66,2.36-1.44,3.72
					c0.22,1.37,1.48,2.58,2.86,2.46c0.53-0.05,1.19-0.23,1.5,0.21c0.18,0.25,0.18,0.66,0.46,0.79c0.36,0.16,0.66-0.29,0.92-0.59
					c0.47-0.54,1.33-0.68,1.94-0.31c0.31,0.19,1.29,3.21,1.04,3.64c-0.59,1.01-3.37,0.61-4.46,0.66c-0.42,0.02-0.89,0.06-1.17,0.38
					c-0.43,0.5-0.08,1.29,0.4,1.73c0.48,0.45,1.11,0.79,1.35,1.41c0.14,0.36,0.12,0.75,0.11,1.13c-0.04,0.77-0.11,1.64-0.7,2.14
					c-0.28,0.23-0.63,0.36-0.91,0.59c-0.63,0.54-0.67,1.5-0.45,2.3c0.22,0.8,0.65,1.53,0.8,2.34c0.32,1.73-0.62,3.6,0.06,5.22
					c0.33,0.78,1.37,1.41,2.01,0.86c0.56-0.48,0.55-1.6,1.28-1.68c0.7-0.08,1.56,1.68,2.14,2.03c0.46,0.27,1.39-0.18,2.23,0.43
					C272.63,222.96,272.76,224.05,273.5,224.59z"/>
				<path style="fill:#FFFFFF;enable-background:new    ;" d="M164.95,116.28c0.72-0.91,1.17-1.97,2.52-2.2
					c1.84-0.32,2.53,0.71,1.73,2.45c-0.07,0.16-0.15,0.32-0.11,0.49c0.13,0.53,0.92,0.22,1.37-0.08c1.06-0.71,2.4-0.67,3.53-0.17
					c0.27,0.12,0.77-4.93,0.5-5.51c-0.92-2.03-5.17-1.07-4.3-3.28c1.59-0.03,3.22,0.17,4.82,0.29c0.09-0.77,0.17-1.54,0.26-2.3
					c-0.07,0.57,2.91,0.45,3.24,0.28c1.31-0.66,0.95-3.05,3.3-2.66c2.97,0.49,3.14,6.33-0.24,5.38c-0.81,1.71-1.12,3.77-1.2,5.66
					c-0.61,0-1.23-0.01-1.84-0.02c-0.3,0.42-0.39,0.99-0.22,1.49c1.47,1.03,3.58,1.05,5.07,0.05c0.96,0.74,2.33,0.03,3.32-0.67
					c1.39,2.24,5.38,1.92,6.4-0.5c1.03-2.43-1.53-5.51-4.1-4.95c-0.05-1.23-0.49-2.43-1.25-3.39c3.19,0.11,6.33-2.06,7.35-5.09
					c0.52-1.52,0.63-3.36,1.92-4.33c0.57-0.43,1.29-0.61,1.89-1.01c1.33-0.9,1.72-2.65,1.93-4.24c0.14-1.07,0.24-2.14,0.3-3.21
					c-18.95,3.07-35.91,12.76-48.18,26.79c-0.06,0.56-0.1,1.15,0.12,1.66c0.42,0.95,1.54,1.31,2.55,1.58
					c3.9,1.03,6.39,0.81,9.09-2.23C164.81,116.46,164.88,116.37,164.95,116.28z"/>
			</g>
		</g>
	</g>
</g>
<g id="People">
	<g>
		<g>
			<path style="fill:#D50000;" d="M16.76,84.16c0,4.41,2.4,8.27,5.97,10.32c1.75,1.01,3.78,1.59,5.95,1.59
				c2.77,0,5.32-0.94,7.34-2.53c2.79-2.18,4.57-5.57,4.57-9.38c0-6.58-5.33-11.91-11.91-11.91C22.09,72.25,16.76,77.58,16.76,84.16z
				"/>
			
				<ellipse transform="matrix(0.9871 -0.1602 0.1602 0.9871 -13.1107 5.679)" style="opacity:0.3;fill:#FFFFFF;" cx="28.67" cy="84.16" rx="11.23" ry="11.23"/>
			<path style="fill:#D50000;" d="M21.99,83.97c0.14,1.43,1.38,1.66,1.38,1.66s-0.29,0.76,0.05,1.66c0.34,0.91,2.17,0.91,2.17,0.91
				s0.16,0.49,0.83,0.56c0.04,0.05,0.08,0.1,0.12,0.14c0.08,0.12,0.17,0.24,0.26,0.36c0.23,1.81,0.18,3.71-0.7,4.68
				c0,0,0.01,0.01,0.02,0.02c-0.77,0.08-1.55,0.19-2.31,0.31c-0.37,0.05-0.73,0.12-1.09,0.19c1.75,1.01,3.78,1.59,5.95,1.59
				c2.77,0,5.32-0.94,7.34-2.53c-0.34-0.01-0.73-0.01-1.15-0.01c-0.62,0-1.32,0-2.09,0.02c-0.01-0.01-0.01-0.03-0.02-0.04
				c-1.28-0.21-1.91-0.81-2.16-1.58c-0.13-0.38-0.16-0.8-0.14-1.23c0.34-0.06,0.67-0.17,0.99-0.33c0.89-0.43,1.64-1.21,2.02-2.22
				c0.05-0.13,0.1-0.27,0.14-0.41c0.27-1.01,0.38-2.29,0.26-3.55c0.33-0.2,0.69-0.54,0.81-1.15c0.24-1.21-0.84-1.5-0.84-1.5
				s1.18-0.19,1.22-1.67c0.05-1.48-1.22-1.48-1.22-1.48s0.43-0.63-0.41-1.79c-0.84-1.16-2.01-0.45-2.01-0.45s-0.89-1.4-2.34-1.06
				c-1.45,0.35-1.82,1.2-1.82,1.2s0-0.85-1.65-0.38c-1.65,0.48-1.45,2.38-1.45,2.38s-1.11-0.56-1.68,0.63
				c-0.57,1.19,0.67,3.27,0.67,3.27S21.85,82.54,21.99,83.97z"/>
			<path style="opacity:0.7;fill:#FFFFFF;" d="M16.76,84.16c0,4.41,2.4,8.27,5.97,10.32c1.75,1.01,3.78,1.59,5.95,1.59
				c2.77,0,5.32-0.94,7.34-2.53c2.79-2.18,4.57-5.57,4.57-9.38c0-6.58-5.33-11.91-11.91-11.91C22.09,72.25,16.76,77.58,16.76,84.16z
				"/>
		</g>
		<g>
			<circle style="fill:#D50000;" cx="22.64" cy="293.35" r="10.59"/>
			<path style="opacity:0.3;fill:#FFFFFF;" d="M32.62,293.35c0,2.3-0.78,4.43-2.09,6.12c-1.83,2.35-4.68,3.86-7.89,3.86
				c-2.08,0-4.02-0.64-5.62-1.73c-2.63-1.8-4.36-4.82-4.36-8.25c0-5.51,4.47-9.99,9.98-9.99S32.62,287.84,32.62,293.35z"/>
			<path style="fill:#D50000;" d="M30.53,299.47c-1.83,2.35-4.68,3.86-7.89,3.86c-2.08,0-4.02-0.64-5.62-1.73
				c0.33-0.76,0.54-1.21,0.54-1.21c1.25-0.4,2.52-0.71,3.8-0.93c0.32-0.29,0.76-0.52,1.31-0.65c0.27-0.8,0.11-1.68-0.07-2.27
				c-0.4-0.27-0.74-0.61-1.02-1.01c-0.2-0.14-0.38-0.32-0.54-0.53c-0.31-0.13-2.43-1.11-2.54-4.6c0-0.14,0-0.29,0.01-0.43
				c-0.66-0.07-1.34,0.14-0.87,1.48c0.82,2.31-0.04,3.52-0.04,3.52c0.04-0.74-0.07-1.53-0.07-1.53c0,2.39-1.29,2.54-1.29,2.54
				s0.82-0.86-0.39-3.52c-1.21-2.66-0.86-6.26,1.44-6.41c1.24-0.08,2.05,0.5,2.55,1.07c1.3-1.16,3.27-1.37,4.53-0.53
				c0,0,2.07-0.5,2.66,0.04c0.13,0.12,0.03,0.39-0.22,0.75c0.53,0.35,0.97,0.89,1.16,1.71c0.32,1.43-0.09,2.52-0.57,3.24
				c0.28,2.62-0.17,4.59-2.26,4.78c0,0.07-0.01,0.13-0.01,0.19c0,0.09-0.01,0.18-0.01,0.27c-0.01,0.5,0.05,0.86,0.14,1.12
				c0.31,0.06,0.6,0.14,0.87,0.24c1.87,0,3.96,0.2,3.96,0.2s0.01,0,0.02,0.01C30.23,299.22,30.37,299.33,30.53,299.47z"/>
			<circle style="opacity:0.7;fill:#FFFFFF;" cx="22.64" cy="293.35" r="10.59"/>
		</g>
		<g>
			
				<ellipse transform="matrix(0.7071 -0.7071 0.7071 0.7071 -28.7341 351.9009)" style="fill:#D50000;" cx="410.41" cy="210.64" rx="11.69" ry="11.69"/>
			<path style="opacity:0.3;fill:#FFFFFF;" d="M421.43,210.64c0,2.26-0.68,4.36-1.85,6.1c-1.97,2.97-5.34,4.92-9.17,4.92
				c-2.54,0-4.88-0.86-6.75-2.32c-2.6-2.01-4.27-5.16-4.27-8.71c0-6.09,4.93-11.02,11.02-11.02
				C416.5,199.62,421.43,204.55,421.43,210.64z"/>
			<path style="fill:#D50000;" d="M419.59,216.74c-1.97,2.97-5.34,4.92-9.17,4.92c-2.54,0-4.88-0.86-6.75-2.32
				c-0.12-0.67,0.01-1.32,0.06-1.81c0.14-1.35,1.69-2.43,1.66-3.38c-0.03-0.94-1.59-2.16-0.58-2.7s1.23-2.64,0.42-3.82
				c-0.67-0.78-1.17-2,0.06-3.58c0.77-0.98,1.88-1.44,3-1.63c0.78-0.42,1.83-0.63,3.26-0.47c1.37,0.15,2.43,0.54,3.24,1.1
				c0.8,0.56,1.35,1.28,1.69,2.08c0,0,1.21,2.32,0.35,4.77c-0.55,1.57,1.9,1.48,1.97,2.93c0.07,1.44-1.15,1.53-0.93,2.5
				C417.96,215.78,418.8,216.19,419.59,216.74z"/>
			
				<ellipse transform="matrix(0.7071 -0.7071 0.7071 0.7071 -28.7341 351.9009)" style="opacity:0.7;fill:#FFFFFF;" cx="410.41" cy="210.64" rx="11.69" ry="11.69"/>
		</g>
	</g>
	<g>
		
			<rect x="266.81" y="113.34" transform="matrix(0.9175 -0.3978 0.3978 0.9175 -19.2564 134.8546)" style="fill:#D50000;" width="97.22" height="1"/>
		
			<rect x="166.14" y="37.72" transform="matrix(0.8503 -0.5263 0.5263 0.8503 -13.9717 98.7772)" style="fill:#D50000;" width="1" height="72.46"/>
		
			<rect x="59.99" y="217.26" transform="matrix(0.9788 -0.2051 0.2051 0.9788 -42.3037 27.2924)" style="fill:#D50000;" width="101.09" height="1"/>
		
			<rect x="266.81" y="113.34" transform="matrix(0.9175 -0.3978 0.3978 0.9175 -19.2564 134.8546)" style="opacity:0.8;fill:#FFFFFF;" width="97.22" height="1"/>
		
			<rect x="310.22" y="183.16" transform="matrix(0.8474 -0.5309 0.5309 0.8474 -78.2972 201.096)" style="fill:#D50000;" width="1" height="107.23"/>
		
			<rect x="310.22" y="183.16" transform="matrix(0.8474 -0.5309 0.5309 0.8474 -78.2972 201.096)" style="opacity:0.8;fill:#FFFFFF;" width="1" height="107.23"/>
		
			<rect x="166.14" y="37.72" transform="matrix(0.8503 -0.5263 0.5263 0.8503 -13.9717 98.7772)" style="opacity:0.8;fill:#FFFFFF;" width="1" height="72.46"/>
		
			<rect x="59.99" y="217.26" transform="matrix(0.9788 -0.2051 0.2051 0.9788 -42.3037 27.2924)" style="opacity:0.8;fill:#FFFFFF;" width="101.09" height="1"/>
		<path style="fill:#D50000;" d="M157.4,319.36l-96.87-91.07l13.7-103.59l0.1-0.11l72.99-81.92l0.18-0.02l132.27-18.29l80.77,69.94
			l-0.03,0.26l-20.88,188.06l-0.36,0.07L157.4,319.36z M61.59,227.92l96.12,90.36l181.02-36.5L359.5,94.71l-80.03-69.3L147.82,43.61
			l-72.64,81.53L61.59,227.92z"/>
		<path style="opacity:0.8;fill:#FFFFFF;" d="M157.4,319.36l-96.87-91.07l13.7-103.59l0.1-0.11l72.99-81.92l0.18-0.02l132.27-18.29
			l80.77,69.94l-0.03,0.26l-20.88,188.06l-0.36,0.07L157.4,319.36z M61.59,227.92l96.12,90.36l181.02-36.5L359.5,94.71l-80.03-69.3
			L147.82,43.61l-72.64,81.53L61.59,227.92z"/>
		<g>
			<polygon style="fill:#D50000;" points="187.21,104.75 185.71,113.51 184.21,104.75 			"/>
			<path style="fill:#D50000;" d="M190.05,104.75c0,2.4-1.94,4.34-4.34,4.34c-2.4,0-4.34-1.94-4.34-4.34c0-2.4,1.94-4.34,4.34-4.34
				C188.11,100.41,190.05,102.35,190.05,104.75z"/>
			<path style="opacity:0.3;fill:#FFFFFF;" d="M186.13,101.69c0.48,0.63,0.1,1.74-0.85,2.46c-0.95,0.73-2.12,0.8-2.6,0.17
				c-0.48-0.63-0.1-1.74,0.85-2.46C184.48,101.13,185.65,101.06,186.13,101.69z"/>
		</g>
		<g>
			<polygon style="fill:#D50000;" points="272.32,133.18 270.82,141.94 269.32,133.18 			"/>
			<circle style="fill:#D50000;" cx="270.82" cy="133.18" r="4.34"/>
			<path style="opacity:0.3;fill:#FFFFFF;" d="M271.25,130.12c0.48,0.63,0.1,1.74-0.85,2.46c-0.95,0.73-2.12,0.8-2.6,0.17
				c-0.48-0.63-0.1-1.74,0.85-2.46C269.6,129.56,270.77,129.49,271.25,130.12z"/>
		</g>
		<g>
			<polygon style="fill:#D50000;" points="161.51,206.89 160.01,215.65 158.51,206.89 			"/>
			<circle style="fill:#D50000;" cx="160.01" cy="206.89" r="4.34"/>
			<path style="opacity:0.3;fill:#FFFFFF;" d="M160.43,203.83c0.48,0.63,0.1,1.74-0.85,2.46c-0.95,0.73-2.12,0.8-2.6,0.17
				c-0.48-0.63-0.1-1.74,0.85-2.46C158.78,203.27,159.95,203.2,160.43,203.83z"/>
		</g>
		<g>
			<polygon style="fill:#D50000;" points="283.76,191.34 282.26,200.09 280.76,191.34 			"/>
			<path style="fill:#D50000;" d="M286.6,191.34c0,2.4-1.94,4.34-4.34,4.34c-2.4,0-4.34-1.94-4.34-4.34c0-2.4,1.94-4.34,4.34-4.34
				C284.65,187,286.6,188.94,286.6,191.34z"/>
			<path style="opacity:0.3;fill:#FFFFFF;" d="M282.68,188.28c0.48,0.63,0.1,1.74-0.85,2.46c-0.95,0.73-2.12,0.8-2.6,0.17
				c-0.48-0.63-0.1-1.74,0.85-2.46C281.03,187.72,282.2,187.64,282.68,188.28z"/>
		</g>
	</g>
	<g>
		<path style="fill:#D50000;" d="M393.61,96.59c0,7.49-2.48,14.42-6.65,19.99c-1.48,1.99-3.19,3.8-5.08,5.38
			c-1.68,1.46-3.53,2.74-5.51,3.82c-4.76,2.64-10.26,4.15-16.1,4.15c-4.91,0-9.59-1.07-13.79-2.99c-0.39-0.16-0.78-0.35-1.16-0.55
			l-0.01-0.01c-2.35-1.16-4.55-2.61-6.54-4.3c-2.98-2.5-5.52-5.53-7.45-8.94c-2.8-4.88-4.4-10.52-4.4-16.54
			c0-18.41,14.93-33.35,33.35-33.35C378.69,63.24,393.61,78.17,393.61,96.59z"/>
		
			<ellipse transform="matrix(0.7071 -0.7071 0.7071 0.7071 37.2227 283.037)" style="opacity:0.7;fill:#FFFFFF;" cx="360.27" cy="96.59" rx="32.37" ry="32.37"/>
		<g>
			<path style="fill:#E4897B;" d="M338.78,111.72l3.12-12.97c0,0,1.98-1.58,2.11-2.73c0.12-1.15-1.22-7.94-2.08-8.35
				c-0.86-0.41-5.94,1.36-6.19,2.81c-0.25,1.45,1.76,7.16,2.16,7.62l-5.13,15.09L338.78,111.72z"/>
			<path style="fill:#D50000;" d="M341.28,104.28l-1.88,17.05c-2.89-2.43-5.36-5.37-7.24-8.68c1.16-4.09,2.33-7.76,2.88-9.41
				c0.18-0.59,0.29-0.92,0.29-0.92l1.07,0.13l4.45,0.56l0.55,0.07L341.28,104.28z"/>
			<path style="fill:#D50000;" d="M349.79,115.26l-2.9,10.79c-0.38-0.16-0.76-0.34-1.12-0.54l-0.01-0.01
				c-2.28-1.12-4.42-2.54-6.35-4.17c0.23-0.52,6.17-13.94,8.4-13.78L349.79,115.26z"/>
			<path style="opacity:0.3;enable-background:new    ;" d="M341.28,104.28l-1.88,17.05c-2.89-2.43-5.36-5.37-7.24-8.68
				c1.16-4.09,2.33-7.76,2.88-9.41c0.18-0.59,0.29-0.92,0.29-0.92l1.07,0.13l4.45,0.56l0.55,0.07L341.28,104.28z"/>
			<path style="opacity:0.3;enable-background:new    ;" d="M349.79,115.26l-2.9,10.79c-0.38-0.16-0.76-0.34-1.12-0.54l-0.01-0.01
				c-2.28-1.12-4.42-2.54-6.35-4.17c0.23-0.52,6.17-13.94,8.4-13.78L349.79,115.26z"/>
			<polygon style="fill:#D50000;" points="342.68,102.03 341.65,104.33 334.56,103.15 334.72,101.84 			"/>
			<path style="fill:#263238;" d="M379.96,85.45c-0.83,3.17,3.7,11.92,1.86,27.84c-1.84,15.92-19.29,14.95-27.14,9.64
				c-7.85-5.31-6.49-34.11-3.79-39.79C353.6,77.47,379.96,85.45,379.96,85.45z"/>
			<g>
				<path style="fill:#D50000;" d="M384.58,111.2c-0.17,0.46-0.32,0.92-0.48,1.38c-0.17,0.45-0.32,0.9-0.46,1.34
					c-0.29,0.88-0.57,1.73-0.85,2.56c-0.56,1.66-1.06,3.25-1.54,4.73c-1.64,1.42-3.43,2.66-5.35,3.71
					c-4.63,2.56-9.96,4.03-15.63,4.03c-4.77,0-9.31-1.04-13.39-2.9c-0.38-0.16-0.76-0.34-1.12-0.54c0.01-0.32,0.01-0.65,0.01-0.95
					c0-0.32,0-0.62,0.01-0.93c0.01-0.92,0.05-1.77,0.07-2.57c0.02-0.54,0.05-1.06,0.06-1.55c0.01-0.26,0.02-0.49,0.04-0.73
					c0.05-0.89,0.09-1.7,0.15-2.45c0.01-0.24,0.04-0.49,0.05-0.72c0.05-0.71,0.11-1.34,0.16-1.93c0.37-3.7,0.85-5.16,1.17-5.75
					c0.06-0.12,0.12-0.2,0.17-0.26c0.1-0.11,0.15-0.12,0.15-0.12s0.49-0.05,1.31-0.11c2.16-0.18,6.64-0.5,10.69-0.48
					c0.07,0,0.16,0,0.23,0.01c0.54,0.01,1.07,0.04,1.61,0.07c2.09,0.11,4.17,0.29,6.24,0.55c0.77,0.1,1.54,0.21,2.31,0.32
					c0.83,0.12,1.66,0.26,2.49,0.4c0.11,0.02,0.23,0.04,0.34,0.06c3.06,0.52,6.09,1.21,9.08,2.07c0.83,0.23,1.66,0.48,2.48,0.74
					H384.58z"/>
				<path style="opacity:0.3;enable-background:new    ;" d="M384.57,111.2c0,0.01,0,0.01-0.01,0.02c-0.16,0.45-0.32,0.9-0.45,1.35
					c-0.17,0.45-0.32,0.9-0.46,1.34c-0.29,0.88-0.57,1.73-0.85,2.56c-0.56,1.66-1.06,3.25-1.54,4.73c-1.64,1.42-3.43,2.66-5.35,3.71
					c-4.63,2.56-9.96,4.03-15.63,4.03c-4.77,0-9.31-1.04-13.39-2.9c-0.38-0.16-0.76-0.34-1.12-0.54l-0.01-0.01
					c0-0.32,0.01-0.63,0.02-0.94c0-0.32,0-0.62,0.01-0.93c0.01-0.92,0.05-1.77,0.07-2.57c0.02-0.54,0.05-1.06,0.06-1.55
					c0.01-0.26,0.02-0.49,0.04-0.73c0.04-0.89,0.09-1.7,0.15-2.45c0.01-0.24,0.04-0.49,0.05-0.72c0.05-0.71,0.11-1.34,0.16-1.93
					c0.37-3.7,0.85-5.16,1.17-5.75c0.06-0.12,0.12-0.2,0.17-0.26c0.1-0.11,0.15-0.12,0.15-0.12s0.49-0.05,1.31-0.11
					c2.16-0.18,6.64-0.5,10.69-0.48c0.07,0,0.16,0,0.23,0.01c0.54,0.01,1.07,0.04,1.61,0.07c2.09,0.11,4.17,0.29,6.24,0.55
					c0.77,0.1,1.54,0.21,2.31,0.32c0.83,0.12,1.66,0.26,2.49,0.4c0.11,0.02,0.23,0.04,0.34,0.06c3.06,0.52,6.09,1.21,9.08,2.07
					C382.92,110.68,383.75,110.93,384.57,111.2z"/>
			</g>
			<path style="fill:#FFFFFF;" d="M365.85,106.1c7.14,0.56,8.02,2.72,7.26,3.85c-0.76,1.13-10.44,10.59-13.35,16.92
				C359.75,126.87,349.27,104.8,365.85,106.1z"/>
			<path style="fill:#E4897B;" d="M362.16,113.3c7.07-0.9,9.19-3.92,9.19-3.92c-4.49-4.23-0.76-11.56-0.76-11.56l-8.51,1.59
				c0.22,1.41,0.32,2.59,0.33,3.58c0.06,5.16-2.27,5.21-2.27,5.21C358.65,110.99,362.16,113.3,362.16,113.3z"/>
			<path style="opacity:0.2;enable-background:new    ;" d="M362.09,99.4c0.22,1.41,0.32,2.59,0.33,3.58c5.75,0,8.18-5.17,8.18-5.17
				L362.09,99.4z"/>
			<g>
				<g>
					<path style="fill:#E4897B;" d="M366.79,75.6c-7.4-0.41-9.99,3.42-10.95,11.02c-1.2,9.49,0.54,16.37,9.9,14.84
						C378.45,99.39,379.07,76.28,366.79,75.6z"/>
					<path style="fill:#DE5753;" d="M360.64,86.47c0,0-1.13,1.88-2.32,2.95c0,0,0.58,1.04,1.9,0.94L360.64,86.47z"/>
					<g>
						<path style="fill:#263238;" d="M365.2,86.11c-0.05,0.61,0.24,1.12,0.65,1.16s0.77-0.43,0.82-1.04
							c0.05-0.61-0.24-1.12-0.65-1.16C365.61,85.04,365.25,85.51,365.2,86.11z"/>
						<path style="fill:#263238;" d="M366.18,85.11l-1.28-0.62C364.91,84.49,365.48,85.65,366.18,85.11z"/>
					</g>
					<g>
						<path style="fill:#263238;" d="M357.67,85.4c-0.05,0.61,0.24,1.12,0.65,1.16c0.4,0.03,0.77-0.43,0.82-1.04
							c0.05-0.61-0.24-1.12-0.65-1.16C358.08,84.32,357.71,84.79,357.67,85.4z"/>
						<path style="fill:#263238;" d="M358.65,84.4l-1.28-0.62C357.37,83.78,357.94,84.94,358.65,84.4z"/>
					</g>
					<path style="fill:#263238;" d="M368.7,82.65c-0.11,0-0.21-0.05-0.28-0.14c-0.92-1.27-2.83-1.16-2.84-1.15
						c-0.2,0.01-0.35-0.13-0.37-0.32c-0.01-0.19,0.13-0.35,0.32-0.37c0.09-0.01,2.3-0.15,3.45,1.43c0.11,0.15,0.08,0.37-0.08,0.48
						C368.84,82.63,368.77,82.65,368.7,82.65z"/>
					<path style="fill:#263238;" d="M357.21,81.19c-0.12,0-0.23-0.06-0.3-0.17c-0.1-0.16-0.04-0.37,0.12-0.47
						c1.83-1.08,3.23-0.49,3.29-0.47c0.17,0.08,0.25,0.28,0.18,0.45c-0.08,0.17-0.27,0.25-0.45,0.18c-0.05-0.02-1.16-0.47-2.67,0.43
						C357.33,81.18,357.27,81.19,357.21,81.19z"/>
					<g>
						<path style="fill:#263238;" d="M361.14,93.33c0.38,0.92,0.72,2.62,0.72,2.62c0.16,0,0.32-0.01,0.48-0.02
							c2.16-0.1,3.14-0.86,3.56-1.67c0.23-0.45,0.29-0.91,0.28-1.29c0-0.44-0.1-0.75-0.1-0.75c-1.12,0.74-3.13,0.99-4.21,1.07
							C361.43,93.33,361.14,93.33,361.14,93.33z"/>
						<path style="fill:#FFFFFF;" d="M361.88,93.29l0.23,0.77c2.04-0.1,3.46-0.44,4.07-1.09c0-0.44-0.1-0.75-0.1-0.75
							C364.97,92.95,362.96,93.2,361.88,93.29z"/>
						<path style="fill:#DE5753;" d="M362.34,95.93c2.16-0.1,3.14-0.86,3.56-1.67c-0.74,0.06-1.62,0.22-2.38,0.59
							C362.93,95.12,362.57,95.53,362.34,95.93z"/>
					</g>
					<path style="fill:#263238;" d="M374.19,88.51c0,0-3.13-6.27-2.34-10.93c0,0-14.33-6.79-15.87,8.05c0,0-0.71-13.29,12.02-12.89
						c12.71,0.4,11.66,19,4.79,24.18C372.79,96.93,376.12,92.43,374.19,88.51z"/>
					<path style="fill:#E4897B;" d="M372.9,90.01c0.11-1.19,1.45-3.14,3.66-2.77c2.28,0.38,3.11,5.14-2.65,5.96
						C373.07,93.31,372.66,92.49,372.9,90.01z"/>
				</g>
				<path style="fill:#263238;" d="M369.87,76.85c0,0-1.17,9.13,4.31,17.41c4.16,6.28-0.62,11.79-0.62,11.79s7.38-4.7,7.64-11.79
					c0,0,6.1-16.95-6.56-21.52c0,0-0.05-3.82-8.31-3.09c-8.26,0.73-14.91,7.8-16.17,16.83c-1.26,9.02,3.44,19.08,3.44,19.08
					S348.61,73.58,369.87,76.85z"/>
				<path style="fill:#263238;" d="M370.35,77c-0.58,2.05-0.7,4.35-0.61,6.56c0.12,2.23,0.48,4.45,1.06,6.62
					c0.57,2.17,1.4,4.27,2.47,6.25c1.1,1.95,2.43,3.83,4.18,5.26c-1.81-1.37-3.22-3.2-4.4-5.13c-1.16-1.95-2.08-4.06-2.74-6.24
					c-0.67-2.18-1.12-4.42-1.33-6.71c-0.17-2.29-0.16-4.58,0.41-6.91L370.35,77z"/>
			</g>
			<g>
				<path style="fill:#D50000;" d="M386.18,115.99c-1.44,1.93-3.1,3.69-4.93,5.22c-1.64,1.42-3.43,2.66-5.35,3.71
					c0.11-0.43,0.26-0.85,0.4-1.28c1.27-3.59,3.51-6.86,5.33-9.14c1.5-1.88,2.72-3.1,2.92-3.28c0.01-0.01,0.02-0.02,0.02-0.02
					C385.35,111.83,385.85,113.58,386.18,115.99z"/>
				<path style="opacity:0.3;enable-background:new    ;" d="M386.18,115.99c-1.44,1.93-3.1,3.69-4.93,5.22
					c-1.64,1.42-3.43,2.66-5.35,3.71c0.11-0.43,0.26-0.85,0.4-1.28c1.27-3.59,3.51-6.86,5.33-9.14c1.5-1.88,2.72-3.1,2.92-3.28
					c0.01-0.01,0.02-0.02,0.02-0.02C385.35,111.83,385.85,113.58,386.18,115.99z"/>
			</g>
		</g>
	</g>
	<g>
		<circle style="fill:#D50000;" cx="278.62" cy="26.88" r="18.2"/>
		<path style="opacity:0.3;fill:#FFFFFF;" d="M295.78,26.88c0,4.51-1.74,8.61-4.59,11.67c-3.13,3.37-7.6,5.48-12.57,5.48
			c-5.33,0-10.08-2.42-13.22-6.22c-2.47-2.96-3.94-6.77-3.94-10.93c0-9.48,7.68-17.16,17.16-17.16
			C288.1,9.72,295.78,17.4,295.78,26.88z"/>
		<path style="fill:#D50000;" d="M291.19,38.55c-3.13,3.37-7.6,5.48-12.57,5.48c-5.33,0-10.08-2.42-13.22-6.22
			c0.09-0.04,0.18-0.07,0.27-0.09c0.22-0.31,0.48-0.6,0.82-0.86c0-0.05,0-0.09,0.01-0.14l0.3-0.05c0.5-0.29,1.11-0.49,1.88-0.49
			c0.18,0,0.36,0.01,0.56,0.03l1.07-0.2c0,0-0.01,0.11-0.02,0.29c1.36,0.11,3.42,0.23,5.78,0.39c0.54-0.41,0.87-0.92,1.06-1.5
			c0.2-0.61,0.24-1.28,0.2-1.98c-0.83-0.04-1.65-0.26-2.4-0.63c-1.32-0.68-2.41-1.86-2.96-3.37c-0.08-0.2-0.14-0.41-0.19-0.62
			c-0.45-1.85-0.55-4.26-0.09-6.48c0-0.01,0-0.01,0-0.01c-0.06,0-0.12,0.01-0.18,0c-0.09-0.02-0.15-0.09-0.15-0.19
			c0-0.02,0.01-0.03,0.01-0.05c0.02-0.11,0.12-0.18,0.23-0.17c0.02,0,0.03-0.01,0.05-0.01c-0.14-1.45,0.08-2.9,0.29-3.88
			c-0.6-1.05-0.6-3.09-0.03-3.92c0.64-0.92,0.14-0.42,1.83-0.57c1.68-0.14,0.66-1.64,1.74-1.65c1.07-0.02,0.85,0.66,2.17,1.15
			c1.31,0.5,0.83-1,2.32-1.14c1.49-0.14,1.7,1,2.78,1.28c1.07,0.28,1.28,0,2.07,0c0.78,0,0.85,2.28,1.18,2.7
			c0.33,0.43,0.88-0.21,1.59,0.96c0.09,0.15,0.13,0.34,0.13,0.56c0,1.51-1.89,4.38-1.89,4.38c-0.08,0.66-0.21,1.37-0.38,2.13
			c0.57,0.54,0.72,1.44,0.34,2.26c-0.37,0.75-0.95,1.36-1.66,1.77c-0.37,0.78-0.74,1.41-1.08,1.89c-0.48,2.62-0.7,5.71,0.19,7.66
			C286.25,37.61,289.15,38.01,291.19,38.55z"/>
		<circle style="opacity:0.5;fill:#FFFFFF;" cx="278.62" cy="26.88" r="18.2"/>
	</g>
	<g>
		
			<ellipse transform="matrix(0.7071 -0.7071 0.7071 0.7071 -178.1716 204.325)" style="fill:#D50000;" cx="157.56" cy="317.23" rx="18.2" ry="18.2"/>
		<path style="opacity:0.2;fill:#FFFFFF;" d="M174.72,317.23c0,4.91-2.07,9.34-5.37,12.46c-3.07,2.92-7.23,4.7-11.79,4.7
			c-3.61,0-6.95-1.11-9.71-3.01c-4.5-3.09-7.45-8.28-7.45-14.14c0-9.48,7.68-17.15,17.16-17.15
			C167.03,300.08,174.72,307.76,174.72,317.23z"/>
		<path style="fill:#D50000;" d="M169.35,329.69c-3.07,2.92-7.23,4.7-11.79,4.7c-3.61,0-6.95-1.11-9.71-3.01
			c1.24-0.17,2.56-0.33,3.89-0.47c1.03-2.25,0.77-5.82,0.22-8.85c-0.38-0.55-0.81-1.27-1.24-2.18c-0.83-0.48-1.49-1.18-1.92-2.04
			c-0.45-0.95-0.27-1.98,0.38-2.62c-0.35-1.55-0.54-2.95-0.56-4.13l-0.08,0.04c0,0-1.38-5.33,3.78-7.28
			c5.16-1.95,10.37,1.54,10.37,1.54s1.12-2.08,2.45-1.54c1.13,0.46,0.53,1.94,0.32,2.39c0.14-0.23,0.5-0.71,1.17-1.02
			c0.91-0.42,2.17,0.75-0.66,3.58c-0.29,0.29-0.63,0.53-1.01,0.72c0.17,1.12,0.26,2.51,0.08,3.86c0.53,2.56,0.41,5.35-0.11,7.48
			c-0.06,0.25-0.13,0.49-0.22,0.72c-0.63,1.76-1.89,3.12-3.42,3.89c-0.86,0.45-1.81,0.69-2.77,0.74c-0.05,0.8,0.01,1.58,0.23,2.28
			c0.23,0.67,0.62,1.27,1.23,1.74c2.72-0.19,5.11-0.32,6.68-0.45c-0.02-0.23-0.03-0.34-0.03-0.34l1.24,0.23
			C168.43,329.6,168.92,329.61,169.35,329.69z"/>
		
			<ellipse transform="matrix(0.7071 -0.7071 0.7071 0.7071 -178.1716 204.325)" style="opacity:0.5;fill:#FFFFFF;" cx="157.56" cy="317.23" rx="18.2" ry="18.2"/>
	</g>
	<g>
		
			<ellipse transform="matrix(0.2298 -0.9732 0.9732 0.2298 -64.0421 168.9283)" style="fill:#D50000;" cx="74.7" cy="124.92" rx="18.2" ry="18.2"/>
		<path style="opacity:0.2;fill:#FFFFFF;" d="M91.87,124.92c0,4.39-1.65,8.4-4.36,11.43c-3.15,3.52-7.72,5.73-12.8,5.73
			c-3.78,0-7.27-1.22-10.1-3.29c-4.28-3.12-7.05-8.18-7.05-13.87c0-9.48,7.68-17.15,17.15-17.15S91.87,115.45,91.87,124.92z"/>
		<path style="fill:#D50000;" d="M87.5,136.35c-3.15,3.52-7.72,5.73-12.8,5.73c-3.78,0-7.27-1.22-10.1-3.29l6.8-2.1
			c0.13,0.14,0.25,0.3,0.38,0.47c0.29-0.05,0.58-0.11,0.88-0.17c0.54-0.1,1.09-0.17,1.64-0.26c0.4-0.66,0.6-1.39,0.68-2.1
			c-0.57,0.03-0.94,0.04-0.94,0.04c0.19-0.68-0.82-2.09-0.82-2.09l-0.34,1.86c0,0-0.69-0.11-1.15-0.4
			c-0.45-0.29-1.05-2.32-1.05-2.32s-1.18,1.98-1.43,2.43c-0.26,0.46-0.94,0-0.94,0s-0.45-1.71,0.11-3.48
			c0.57-1.77-1.2-1.72-1.2-1.72s0,0.75-0.45,1.95c-0.46,1.2-0.46,1.83-0.46,2.54c0,0.72,0.06,1.22-0.45,1.22
			c-0.52,0-0.57-0.45-0.52-1.22c0.06-0.77-0.74-1.52-0.28-2.14c0.45-0.63,0.11-2.35,0.11-2.35c-0.29,1.2-1.6,1.15-1.83,2
			c-0.23,0.86,0.63,2.06,0.23,2.49c-0.4,0.43-1.09,0-1.09,0s0.57-0.94,0.17-1.49c-0.4-0.54-1.03-0.82-0.75-1.94
			c0.29-1.12,0.8-1.11,0.63-2.35c-0.17-1.24-0.75-1.16,0-1.62c0.74-0.45,1.71-2.63,1.71-3.57c0-0.94-0.4-3.11,1.2-3.87
			c1.6-0.76,2-1.35,1.71-3.36c-0.29-2.02,1.25-1.87,3.2-1.47c0,0,0.97-1.54,1.88-1.25c0.91,0.28,1.6,0.11,1.8-0.4
			c0.19-0.52,2.72-0.46,3.09,0c0.38,0.45,1.74,0.8,2.56,0.45c0.82-0.34,3.01,1.03,2.94,1.94c-0.07,0.92-0.05,1.43,1.12,1.95
			c1.17,0.52,1.4,0.79,1.91,2.84c0.51,2.04-0.34,2.87,0.69,3.66c1.03,0.78,0.91,3.95,0.97,4.92c0.05,0.97,0,2.05,0,2.05
			s0,0-0.29,0.08c-0.29,0.08-0.51-1.06-0.46-1.89c0.06-0.8-1.74-1.97-1.89-2.07c0.04,0.08,0.36,0.78,0.57,1.33
			c0.23,0.58,0.29,2.1,0.23,3.06c-0.05,0.97,1.09,1.51,1.09,1.51l-1.25,0.63c0,0-0.97-2.07-0.64-3.15c0.33-1.08-0.62-2.04-0.62-2.04
			v2.04c0,0-0.34,0.73-0.85,1.7c-0.51,0.97,0.4,1.26,0.54,1.77c0.14,0.51-1.12,0.54-1.12,0.54l-0.23-1.23l-0.43,1.23
			c-0.45,0.33-1.4,0.57-2.47,0.75c0.06,0.94,0.26,1.55,0.5,1.95c0.41-0.02,0.81-0.05,1.22-0.06c0.81-0.01,1.64,0.01,2.45,0.04h0.02
			C85.13,136.19,86.49,136.28,87.5,136.35z"/>
		
			<ellipse transform="matrix(0.2298 -0.9732 0.9732 0.2298 -64.0421 168.9283)" style="opacity:0.5;fill:#FFFFFF;" cx="74.7" cy="124.92" rx="18.2" ry="18.2"/>
	</g>
	<g>
		<circle style="fill:#D50000;" cx="146.33" cy="41.65" r="30.52"/>
		<path style="opacity:0.7;fill:#FFFFFF;" d="M175.85,41.65c0,6.76-2.29,13-6.14,17.99c-1.05,1.37-2.22,2.65-3.51,3.82
			c-1.18,1.08-2.44,2.06-3.79,2.92c-0.05,0.05-0.11,0.09-0.17,0.11c-1.05,0.69-2.14,1.3-3.28,1.84c-3.83,1.82-8.12,2.84-12.63,2.84
			c-8.99,0-17.06-4.04-22.47-10.39l-0.01-0.01c-4.4-5.16-7.05-11.83-7.05-19.12c0-16.28,13.25-29.52,29.53-29.52
			C162.6,12.13,175.85,25.37,175.85,41.65z"/>
		<g id="_x3C_Group_x3E__3_">
			<path style="fill:#EBB376;" d="M153.19,41.65c0.65-1.44,1.11-0.82,2.99,0.63c1.88,1.45,2.18,2.76,2.18,4.3
				c0,1.54-0.3,4.6-0.3,4.6l4.88,5.47l-2.21,3.33l-5.67-6.4c0,0-2.8-2.11-3.26-4.48C151.34,46.73,153.19,41.65,153.19,41.65z"/>
			<g>
				<path style="fill:#263238;" d="M152.55,40l4,7.18c0.18,0.32,0.14,0.73-0.1,1.01l-3.1,3.58c-0.39,0.45-1.11,0.39-1.42-0.12
					l-3.58-5.9L152.55,40z"/>
				<polygon style="opacity:0.4;fill:#D50000;" points="152.33,40.78 155.85,47.42 152.5,51.38 148.88,45.51 				"/>
			</g>
			<path style="fill:#D50000;" d="M162.41,66.38c0.03,0.15,0.05,0.29,0.07,0.43c-0.08-0.1-0.16-0.21-0.24-0.32
				c-1.05,0.69-2.14,1.3-3.28,1.84c0.26-2.03,0.55-3.86,0.81-5.39c0.23-1.4,0.44-2.55,0.6-3.36c0.15-0.81,0.25-1.28,0.27-1.36v-0.01
				c0.35,0.06,0.7,0.17,1.05,0.34c1.53,0.75,3.04,2.54,4.51,4.91C165.02,64.54,163.76,65.52,162.41,66.38z"/>
			<g>
				<path style="fill:#D50000;" d="M162.48,66.81c-0.08-0.1-0.16-0.21-0.24-0.32c-1.05,0.69-2.14,1.3-3.28,1.84
					c-3.83,1.82-8.12,2.84-12.63,2.84c-8.99,0-17.06-4.04-22.47-10.39c0.51-0.12,1.03-0.23,1.55-0.33c0.05-0.01,0.11-0.02,0.16-0.03
					c0.1-0.02,0.2-0.04,0.31-0.06c1.35-0.26,2.73-0.49,4.11-0.69c0.01-0.01,0.02-0.01,0.03-0.01c0.6-0.09,1.21-0.17,1.81-0.25
					c0.8-0.11,1.6-0.2,2.39-0.29c0.06-0.01,0.13-0.02,0.19-0.02c1.83-0.21,3.66-0.38,5.44-0.51c0.59-0.04,1.17-0.08,1.74-0.11h0.01
					c0.75-0.05,1.49-0.1,2.22-0.14c0.73-0.04,1.46-0.07,2.16-0.1c0.29-0.01,0.58-0.02,0.87-0.03c0.87-0.03,1.71-0.05,2.51-0.07
					c2.63-0.06,4.94-0.06,6.78-0.04c0.43,0.01,0.84,0.01,1.22,0.02c0.69,0.01,1.28,0.03,1.76,0.05c0.98,0.02,1.52,0.05,1.52,0.05
					c0.12,0.44,0.24,0.9,0.35,1.37c0,0,0,0,0,0.01c0.51,2.05,0.98,4.33,1.42,6.78C162.44,66.53,162.46,66.67,162.48,66.81z"/>
				<path style="opacity:0.2;enable-background:new    ;" d="M162.48,66.81c-0.08-0.1-0.16-0.21-0.24-0.32
					c-1.05,0.69-2.14,1.3-3.28,1.84c-3.83,1.82-8.12,2.84-12.63,2.84c-8.99,0-17.06-4.04-22.47-10.39c-0.24,0.05-0.48,0.1-0.72,0.15
					c0.23-0.05,0.47-0.11,0.71-0.16c0.52-0.11,1.04-0.22,1.56-0.32c0.05-0.01,0.11-0.02,0.16-0.03c0.1-0.02,0.2-0.04,0.31-0.06
					c1.35-0.26,2.73-0.49,4.11-0.69c0.01-0.01,0.02-0.01,0.03-0.01c0.6-0.09,1.21-0.17,1.81-0.25c0.8-0.11,1.6-0.2,2.39-0.29
					c0.06-0.01,0.13-0.02,0.19-0.02c1.83-0.21,3.66-0.38,5.44-0.51c0.58-0.04,1.16-0.08,1.73-0.12c0.76-0.05,1.5-0.09,2.24-0.13
					c0.73-0.04,1.46-0.07,2.16-0.1c0.29-0.01,0.58-0.02,0.87-0.03c0.86-0.03,1.7-0.06,2.5-0.08c2.64-0.05,4.95-0.05,6.79-0.04
					c0.44,0.01,0.84,0.01,1.22,0.02c0.68,0.01,1.26,0.03,1.74,0.04c0.99,0.03,1.54,0.06,1.54,0.06v0.01
					c0.12,0.44,0.24,0.9,0.35,1.37c0,0,0,0,0,0.01c0.51,2.05,0.98,4.33,1.42,6.78C162.44,66.53,162.46,66.67,162.48,66.81z"/>
			</g>
			<path style="fill:#EBB376;" d="M134.17,59.08c3.25,2.95,11.2,1.86,11.2,1.86s4.96-1.36,3.92-2.91c-2.92-0.48-4.34-1.85-4.93-3.59
				c-0.34-1.02-0.39-2.16-0.3-3.34c0.04-0.62,0.14-1.25,0.25-1.86l-9.83-7.28C135.78,46.75,137.35,55.59,134.17,59.08z"/>
			<path style="opacity:0.2;enable-background:new    ;" d="M136.76,46.57c0.39,5.9,5.24,7.53,7.61,7.86
				c-0.34-1.02-0.39-2.16-0.3-3.34L136.76,46.57z"/>
			<g>
				<path style="fill:#263238;" d="M153.73,27.93c0,0,1.4,9.18-3.48,12.71c-4.87,3.53-4.87-13.56-4.87-13.56L153.73,27.93z"/>
				<path style="fill:#EBB376;" d="M136.1,47.94c2.36,3.4,6.22,4.29,9.57,3.23c2.15-0.68,4.09-2.17,5.3-4.31
					c0.16-0.28,0.31-0.58,0.44-0.88c2.4-5.61,3.16-15.43-2.77-19.11c-4.21-2.65-9.79-1.39-12.44,2.83c-0.76,1.2-1.22,2.56-1.36,3.98
					C134.11,40.23,133.37,44.06,136.1,47.94z"/>
				<path style="fill:#263238;" d="M144.4,37.18c-0.13,0.52,0.11,1,0.46,1.06c0.35,0.06,0.7-0.33,0.79-0.85
					c0.09-0.53-0.12-1.01-0.46-1.06C144.85,36.27,144.49,36.64,144.4,37.18z"/>
				<path style="fill:#263238;" d="M150.39,38.2c-0.13,0.52,0.12,1.01,0.46,1.06c0.34,0.06,0.7-0.33,0.79-0.85
					c0.09-0.53-0.12-1.01-0.46-1.06C150.84,37.29,150.48,37.7,150.39,38.2z"/>
				<path style="fill:#D58745;" d="M148.44,38.14c0.35,1.73,0.95,3.4,1.76,4.96c-0.83,0.4-1.79,0.42-2.63,0.04L148.44,38.14z"/>
				<path style="fill:#263238;" d="M142.87,34.92c0.11,0.04,0.24,0.01,0.32-0.07c0.57-0.56,1.38-0.82,2.17-0.7
					c0.17,0.04,0.34-0.06,0.38-0.23c0.04-0.17-0.06-0.34-0.23-0.38c0,0,0,0,0,0c-1-0.18-2.02,0.14-2.75,0.85
					c-0.13,0.11-0.14,0.31-0.03,0.44c0,0,0,0,0.01,0.01C142.78,34.87,142.83,34.9,142.87,34.92z"/>
				<path style="fill:#263238;" d="M153.31,36.58c0.05,0.03,0.12,0.05,0.18,0.04c0.17-0.05,0.27-0.22,0.22-0.39c0,0,0,0,0-0.01
					c-0.26-0.98-0.99-1.78-1.94-2.13c-0.17-0.05-0.34,0.04-0.39,0.21l0,0c-0.05,0.17,0.05,0.34,0.21,0.39l0,0
					c0.75,0.3,1.31,0.93,1.51,1.71C153.14,36.49,153.22,36.55,153.31,36.58z"/>
				<path style="fill:#263238;" d="M140.99,26.37v2.93c-1.01,0.39-1.71,1.39-1.41,2.58c0.64,2.54-1.2,6.14-3.25,7.42
					c0,0,0.07-1.06-0.85-0.92c-0.92,0.14-1.34,5.65,0.07,8.48c0,0-2.33-2.68-3.11-8.62c-0.72-5.49-0.35-9.94,1-11.87H140.99z"/>
				<path style="fill:#EBB376;" d="M131.08,38.52c0.47,1.6,1.55,2.94,3.01,3.74c1.94,1.04,3.39-0.58,3.26-2.66
					c-0.13-1.85-1.29-4.68-3.43-4.84C131.77,34.59,130.53,36.56,131.08,38.52z"/>
				<path style="fill:#263238;" d="M140.99,29.3c0,0,1.9,1.89,3.75,0.51c0,0,2.09,1.74,3.8,0.51c0,0,0.93,1.58,2.47,1.77
					c1.53,0.19,1.54-1.39,1.54-1.39s2.42,1.39,3.31,0.74c0.89-0.65-0.49-3.25-0.49-3.25s1.14-0.61,0.41-2.7
					c-0.73-2.09-4.11-1.6-4.11-1.6s0.13-1.95-2.23-3.98c-2.36-2.03-3.76,0.49-3.76,0.49s-2.28-3.09-5.11-2.68
					c-2.83,0.41-2.5,2.36-2.5,2.36s-3.25-2.03-4.71,0c-1.46,2.03,0,3.01,0,3.01s-3.25,1.09-3.09,3.31s1.83,1.89,1.83,1.89
					s-0.94,1.06,1.18,1.95s4.1-1.3,4.1-1.3s-0.82,1.26,0.7,2.11C139.58,31.88,140.99,29.3,140.99,29.3z"/>
				<g>
					<path style="fill:#263238;" d="M147.44,45.11c-0.76,0.64-1.85,1.99-1.85,1.99c-0.14-0.08-0.28-0.15-0.42-0.24
						c-1.87-1.09-2.39-2.21-2.38-3.13c0-0.5,0.17-0.94,0.34-1.28c0.2-0.39,0.43-0.62,0.43-0.62c0.65,1.17,2.32,2.32,3.24,2.89
						C147.18,44.98,147.44,45.11,147.44,45.11z"/>
					<path style="fill:#FFFFFF;" d="M146.8,44.73l-0.56,0.57c-1.76-1.03-2.87-1.99-3.11-2.84c0.2-0.39,0.43-0.62,0.43-0.62
						C144.22,43.01,145.89,44.15,146.8,44.73z"/>
					<path style="fill:#DE5753;" d="M145.17,46.86c-1.87-1.09-2.39-2.21-2.38-3.13c0.62,0.39,1.33,0.94,1.84,1.62
						C145.02,45.87,145.15,46.4,145.17,46.86z"/>
				</g>
			</g>
			<path style="fill:#D50000;" d="M145.37,60.94c0,0-11.47-7.79-15.12-8.23c-3.65-0.44-3,4.12-3,4.12s-2.82,0-1.73,3.47
				c1.08,3.47,16.66,5.38,22.42,3.67c5.76-1.72,9.18-4.94,8.23-7.99c-0.95-3.05-3.61-0.44-3.61-0.44s-1.55-2.87-3.78-2.2
				C146.54,54,145.37,60.94,145.37,60.94z"/>
			<path style="fill:#D50000;" d="M169.71,59.64c-1.05,1.37-2.22,2.65-3.51,3.82c-1.18,1.08-2.44,2.06-3.79,2.92
				c0.03,0.15,0.05,0.29,0.07,0.43c-0.08-0.1-0.16-0.21-0.24-0.32c-0.76-1.02-1.64-2.26-2.47-3.55c-1.04-1.66-1.99-3.39-2.41-4.82
				v-0.01c-0.14-0.45-0.22-0.86-0.24-1.24l-0.95-1.32l0.31-0.36l2.52-2.96l0.55-0.64l1.08,1.41c0,0,1.39-0.5,5.84,3.33
				C167.61,57.31,168.77,58.55,169.71,59.64z"/>
		</g>
	</g>
	<g>
		<circle style="fill:#D50000;" cx="61.96" cy="229.53" r="28.86"/>
		<path style="opacity:0.7;fill:#FFFFFF;" d="M89.82,229.53c0,6.66-2.34,12.78-6.26,17.57c-1.18,1.45-2.5,2.78-3.95,3.97
			c-0.46,0.38-0.94,0.75-1.44,1.1c-1.35,0.98-2.8,1.83-4.32,2.55c-3.61,1.71-7.64,2.67-11.89,2.67c-5.11,0-9.9-1.38-14.01-3.8
			c-1.06-0.61-2.07-1.3-3.03-2.05h-0.01c-0.05-0.04-0.1-0.08-0.15-0.13c-1.13-0.87-2.19-1.85-3.15-2.9
			c-4.66-4.97-7.5-11.65-7.5-18.98c0-15.36,12.49-27.86,27.85-27.86C77.33,201.67,89.82,214.17,89.82,229.53z"/>
		<g>
			<path style="fill:#263238;" d="M79.61,251.07c-0.46,0.38-0.94,0.75-1.44,1.1c-1.35,0.98-2.8,1.83-4.32,2.55
				c-3.61,1.71-7.64,2.67-11.89,2.67c-5.11,0-9.9-1.38-14.01-3.8c-1.06-0.61-2.07-1.3-3.03-2.05h-0.01
				c-0.05-0.04-0.1-0.08-0.15-0.13c0.02-0.07,0.03-0.12,0.05-0.19v-0.01c0.24-0.9,0.47-1.84,0.68-2.82c0.3-1.32,0.57-2.69,0.81-4.12
				c0.61-3.7,0.97-7.71,0.84-11.78c-0.49-14.75,2.19-20.16,8.22-23.05c0.27-0.13,0.55-0.27,0.85-0.39c1.42-0.6,2.86-0.71,4.25-0.53
				c0,0,0,0,0.01,0c5.16,0.7,9.64,5.51,9.64,5.51s1,1.37,2.36,3.99c2.44,4.71,6.03,13.46,6.93,25.44v0.01
				C79.59,245.88,79.67,248.41,79.61,251.07z"/>
			<path style="fill:#D50000;" d="M79.4,243.47v-0.01c-1.08-0.79-2.09-1.35-2.91-1.52c0,0-5.88-0.57-10.99-0.53
				c-0.56,0.02-1.13,0.05-1.69,0.08c-2.62,0.14-5.24,0.41-7.83,0.8c-0.76,0.11-1.52,0.23-2.27,0.37c-2.5,0.41-4.97,0.95-7.41,1.61
				c-1.17,0.31-2.33,0.65-3.49,1.02c-0.43,0.54-0.82,1.67-1.2,3.22c0.96,1.05,2.02,2.03,3.15,2.9c0.05,0.05,0.1,0.09,0.15,0.13h0.01
				c0.96,0.75,1.97,1.44,3.03,2.05c4.11,2.42,8.9,3.8,14.01,3.8c4.25,0,8.28-0.96,11.89-2.67c1.52-0.72,2.97-1.57,4.32-2.55
				c0.5-0.35,0.98-0.72,1.44-1.1c1.45-1.19,2.77-2.52,3.95-3.97C82.2,245.76,80.74,244.44,79.4,243.47z"/>
			<path style="opacity:0.2;fill:#FFFFFF;enable-background:new    ;" d="M79.4,243.47v-0.01c-1.08-0.79-2.09-1.35-2.91-1.52
				c0,0-5.88-0.57-10.99-0.53c-0.56,0.02-1.13,0.05-1.69,0.08c-2.62,0.14-5.24,0.41-7.83,0.8c-0.76,0.11-1.52,0.23-2.27,0.37
				c-2.5,0.41-4.97,0.95-7.41,1.61c-1.17,0.31-2.33,0.65-3.49,1.02c-0.43,0.54-0.82,1.67-1.2,3.22c0.96,1.05,2.02,2.03,3.15,2.9
				c0.05,0.05,0.1,0.09,0.15,0.13h0.01c0.96,0.75,1.97,1.44,3.03,2.05c4.11,2.42,8.9,3.8,14.01,3.8c4.25,0,8.28-0.96,11.89-2.67
				c1.52-0.72,2.97-1.57,4.32-2.55c0.5-0.35,0.98-0.72,1.44-1.1c1.45-1.19,2.77-2.52,3.95-3.97
				C82.2,245.76,80.74,244.44,79.4,243.47z"/>
			<path style="fill:#EEC1BB;" d="M63.34,247.22c-6.48-0.83-8.42-3.6-8.42-3.6c2.65-2.49,2.17-6.17,1.49-8.47
				c-0.37-1.27-0.8-2.12-0.8-2.12l7.8,1.46c-0.2,1.29-0.29,2.37-0.3,3.28c-0.02,1,0.07,1.79,0.22,2.41
				c0.53,2.33,1.86,2.36,1.86,2.36C66.54,245.1,63.34,247.22,63.34,247.22z"/>
			<path style="opacity:0.2;enable-background:new    ;" d="M63.1,237.77c-0.02,1,0.07,1.79,0.22,2.41
				c-3.1-0.41-5.44-2.88-6.92-5.03c-0.37-1.27-0.8-2.12-0.8-2.12l7.8,1.46C63.2,235.77,63.11,236.86,63.1,237.77z"/>
			<g>
				<path style="fill:#EEC1BB;" d="M61.81,212.9c6.78,0.25,8.83,3.96,9.06,10.97c0.3,8.75-1.87,14.88-10.28,12.7
					C49.18,233.61,50.55,212.49,61.81,212.9z"/>
				<path style="fill:#D4827D;" d="M66.51,223.33c0,0,0.87,1.81,1.87,2.88c0,0-0.61,0.9-1.82,0.7L66.51,223.33z"/>
				<path style="fill:#263238;" d="M59.51,219.21c-0.08,0-0.17-0.03-0.23-0.09c-0.15-0.13-0.16-0.35-0.03-0.5
					c1.2-1.37,3.22-1.04,3.3-1.03c0.19,0.03,0.32,0.21,0.29,0.41c-0.03,0.19-0.21,0.32-0.41,0.29c-0.02,0-1.72-0.27-2.65,0.8
					C59.7,219.16,59.6,219.21,59.51,219.21z"/>
				<path style="fill:#263238;" d="M70.1,218.84c-0.07,0-0.14-0.02-0.21-0.07c-1.29-0.93-2.32-0.62-2.37-0.61
					c-0.19,0.06-0.38-0.04-0.44-0.23c-0.06-0.19,0.04-0.38,0.23-0.44c0.06-0.02,1.4-0.44,3,0.71c0.16,0.11,0.19,0.33,0.08,0.49
					C70.32,218.79,70.21,218.84,70.1,218.84z"/>
				<g>
					<path style="fill:#263238;" d="M65.47,229.54c-0.42,0.8-0.88,2.32-0.88,2.32c-0.15-0.02-0.29-0.03-0.43-0.06
						c-1.97-0.27-2.79-1.05-3.1-1.83c-0.17-0.43-0.18-0.86-0.15-1.2c0.04-0.4,0.15-0.68,0.15-0.68c0.96,0.77,2.77,1.16,3.75,1.33
						C65.21,229.52,65.47,229.54,65.47,229.54z"/>
					<path style="fill:#FFFFFF;" d="M64.8,229.44l-0.28,0.68c-1.85-0.26-3.12-0.69-3.62-1.34c0.04-0.4,0.15-0.68,0.15-0.68
						C62.01,228.87,63.83,229.27,64.8,229.44z"/>
					<path style="fill:#DE5753;" d="M64.16,231.81c-1.97-0.27-2.79-1.05-3.1-1.83c0.67,0.12,1.46,0.34,2.12,0.74
						C63.69,231.02,63.98,231.42,64.16,231.81z"/>
				</g>
				<path style="fill:#263238;" d="M53.98,224.05c0,0,3.38-5.45,3.06-9.77c0,0,13.64-4.99,13.79,8.67c0,0,1.76-12.06-9.88-12.76
					c-11.62-0.7-12.23,16.35-6.4,21.65C54.55,231.84,51.89,227.46,53.98,224.05z"/>
				<path style="fill:#EEC1BB;" d="M55.03,225.53c0-1.09-1.06-2.98-3.1-2.84c-2.11,0.15-3.27,4.43,1.92,5.66
					C54.59,228.52,55.04,227.81,55.03,225.53z"/>
				<path style="fill:#263238;" d="M58,208.42c3.67-1.02,13.44-1.15,15.75,8.96l-1.36,0.68c0,0-3.26-1.76-7.33-2.17
					c0,0-0.81-1.49-1.9-2.72c0,0,0.14,1.63,0,2.58c0,0-6.38,0.93-9.23,3.53c-4.48,4.07-4.75,6.65-4.75,6.65S46.07,211.74,58,208.42z
					"/>
				<path style="fill:#263238;" d="M74.7,217.29c-0.1,0-0.2-0.06-0.23-0.17c-1.16-3.48-3.14-5.93-5.9-7.28
					c-5.03-2.47-10.97-0.46-11.03-0.44c-0.13,0.05-0.27-0.02-0.31-0.15c-0.04-0.13,0.02-0.27,0.15-0.31
					c0.06-0.02,6.2-2.1,11.41,0.46c2.88,1.42,4.94,3.96,6.15,7.57c0.04,0.13-0.03,0.27-0.15,0.31
					C74.76,217.28,74.73,217.29,74.7,217.29z"/>
				<path style="fill:#263238;" d="M60.52,222.63c0,0,1.59-1.35,2.34,0.47C62.86,223.09,61.69,222.5,60.52,222.63z"/>
				<path style="fill:#263238;" d="M68.06,223.63c0,0,0.88-1.84,2.05-0.54C70.1,223.09,68.76,223.13,68.06,223.63z"/>
			</g>
		</g>
	</g>
	<g>
		
			<ellipse transform="matrix(0.7071 -0.7071 0.7071 0.7071 -97.6647 322.4385)" style="fill:#D50000;" cx="340.39" cy="279.11" rx="35.76" ry="35.76"/>
		<path style="opacity:0.7;fill:#FFFFFF;" d="M375.15,279.11c0,5.61-1.33,10.91-3.71,15.61c-0.47,0.94-0.99,1.85-1.54,2.74
			c-0.43,0.69-0.88,1.37-1.37,2.03c-2.03,2.81-4.48,5.3-7.25,7.39c-0.63,0.48-1.28,0.93-1.95,1.37c-2.67,1.75-5.6,3.13-8.71,4.09
			c-3.24,1-6.67,1.54-10.23,1.54c-5.12,0-9.99-1.11-14.37-3.11c-0.56-0.26-1.12-0.53-1.67-0.81v-0.01
			c-3.11-1.62-5.95-3.71-8.42-6.16c-2.42-2.39-4.49-5.14-6.13-8.15c-0.46-0.86-0.89-1.75-1.28-2.65h-0.01
			c-1.86-4.25-2.89-8.95-2.89-13.88c0-19.16,15.6-34.76,34.77-34.76C359.56,244.35,375.15,259.95,375.15,279.11z"/>
		<g id="_x3C_Group_x3E__1_">
			<path style="fill:#9F5B53;" d="M323.04,277.74c-0.45,0.86-2.15,2.6-2.15,2.6l-3,14.19l-1.96,9.26c-2.42-2.39-4.49-5.14-6.13-8.15
				c0.24-0.75,0.5-1.53,0.75-2.32c2.12-6.58,4.56-14.2,4.74-14.95c0.32-1.34-0.85-7.91-0.58-9.12c0.28-1.2,6.27-2.62,7.57-2.6
				C323.58,266.67,323.48,276.89,323.04,277.74z"/>
			<path style="fill:#D50000;" d="M327.73,293.37c0,0,0,0.02-0.01,0.05l-1.26,12.93l-0.44,4.42c-0.56-0.26-1.12-0.53-1.67-0.81
				v-0.01c-3.11-1.62-5.95-3.71-8.42-6.16c-2.42-2.39-4.49-5.14-6.13-8.15c-0.46-0.86-0.89-1.75-1.28-2.65l2.03,0.33l7.34,1.21
				l1.58,0.26l-1.85,8.97C317.62,303.76,324.35,294.39,327.73,293.37z"/>
			<path style="opacity:0.3;" d="M327.73,293.37c0,0,0,0.02-0.01,0.05l-1.26,12.93l-0.44,4.42c-0.56-0.26-1.12-0.53-1.67-0.81v-0.01
				c-3.11-1.62-5.95-3.71-8.42-6.16c-2.42-2.39-4.49-5.14-6.13-8.15c-0.46-0.86-0.89-1.75-1.28-2.65l2.03,0.33l7.34,1.21l1.58,0.26
				l-1.85,8.97C317.62,303.76,324.35,294.39,327.73,293.37z"/>
			<g>
				<path style="fill:#D50000;" d="M371.44,294.72c-0.47,0.94-0.99,1.85-1.54,2.74c-0.43,0.69-0.88,1.37-1.37,2.03
					c-2.03,2.81-4.48,5.3-7.25,7.39c-0.63,0.48-1.28,0.93-1.95,1.37c-2.67,1.75-5.6,3.13-8.71,4.09c-3.24,1-6.67,1.54-10.23,1.54
					c-5.12,0-9.99-1.11-14.37-3.11c-0.56-0.26-1.12-0.53-1.67-0.81v-0.01c1.4-9.99,3.19-15.95,3.37-16.53
					c0.01-0.03,0.01-0.05,0.01-0.05c3.6-1.03,7.28-1.78,11-2.24c0.06,0,0.11-0.01,0.17-0.01c0.01,0,0.01,0,0.01,0
					c5.34-0.42,10.72-0.54,16.09-0.34h0.05c3.72,0.1,7.42,0.46,11.09,1.1C366.62,292.08,369.08,293.1,371.44,294.72z"/>
				<path style="opacity:0.3;" d="M371.44,294.72c-0.47,0.94-0.99,1.85-1.54,2.74c-0.43,0.69-0.88,1.37-1.37,2.03
					c-2.03,2.81-4.48,5.3-7.25,7.39c-0.63,0.48-1.28,0.93-1.95,1.37c-2.67,1.75-5.6,3.13-8.71,4.09c-3.24,1-6.67,1.54-10.23,1.54
					c-5.12,0-9.99-1.11-14.37-3.11c-0.56-0.26-1.12-0.53-1.67-0.81v-0.01c1.4-9.99,3.19-15.95,3.37-16.53
					c0.01-0.03,0.01-0.05,0.01-0.05c3.6-1.03,7.28-1.78,11-2.24c0.06,0,0.11-0.01,0.17-0.01c0.01,0,0.01,0,0.01,0
					c5.34-0.42,10.72-0.54,16.09-0.34h0.05c3.72,0.1,7.42,0.46,11.09,1.1C366.62,292.08,369.08,293.1,371.44,294.72z"/>
				<path style="opacity:0.8;fill:#FFFFFF;" d="M361.28,306.88c-0.63,0.48-1.28,0.93-1.95,1.37c-2.67,1.75-5.6,3.13-8.71,4.09
					c-3.24,1-6.67,1.54-10.23,1.54c-5.12,0-9.99-1.11-14.37-3.11c-0.56-0.26-1.12-0.53-1.67-0.81v-0.01
					c0.05-0.29,0.09-0.58,0.13-0.86c0.58-0.9,1.24-1.82,1.98-2.74c3.58-4.57,8.62-9.18,11.17-11.41c0.71,0.88,1.92,1.63,3.89,2.02
					c3.28,0.64,7.03-0.89,10.14-2.74c1.4,1.39,3.51,3.6,5.45,6.01c1.46,1.82,2.81,3.75,3.69,5.54
					C360.98,306.15,361.14,306.52,361.28,306.88z"/>
			</g>
			<path style="fill:#9F5B53;" d="M355.05,290.82c0,0-4.07,5.03-11.84,5.37c-6.73,0.3-4.48-5.02-4.48-5.02
				c2.47-0.64,3.84-1.8,4.53-3.21c0.87-1.81,0.61-4.05,0.06-6.25c-0.04-0.15-0.08-0.31-0.12-0.46l9.84-8.76
				C352.12,277.75,351.3,287.39,355.05,290.82z"/>
			<path style="opacity:0.2;enable-background:new    ;" d="M351.42,280.21c-0.52,3.38-4.63,6.7-8.16,7.75
				c0.87-1.81,0.61-4.05,0.06-6.25l8.15-6.24C351.74,277.04,351.73,278.64,351.42,280.21z"/>
			<g>
				<path style="fill:#263238;" d="M345.04,261.11c2.33,2.64,0.22,5.55-7.46,9.01c-1.73-4.03-0.5-10.67,1.98-11.78
					C342.04,257.21,343,258.82,345.04,261.11z"/>
				<path style="fill:#9F5B53;" d="M355.84,269.47c-2.07,6.82-2.93,10.91-7.27,13.64c-6.52,4.1-14.32-1.1-14.33-8.4
					c0-6.56,3.37-16.62,10.8-17.76c5.3-0.84,10.29,2.77,11.13,8.07C356.41,266.5,356.3,268.03,355.84,269.47z"/>
				<path style="fill:#263238;" d="M345.06,268.91c-0.13,0.56-0.54,0.95-0.91,0.86c-0.37-0.09-0.55-0.61-0.42-1.17
					c0.13-0.56,0.54-0.95,0.9-0.87C344.99,267.81,345.15,268.35,345.06,268.91z"/>
				<path style="fill:#263238;" d="M338.65,267.4c-0.13,0.56-0.54,0.95-0.91,0.86c-0.37-0.09-0.56-0.61-0.43-1.18
					c0.13-0.57,0.54-0.95,0.91-0.86C338.59,266.31,338.78,266.84,338.65,267.4z"/>
				<path style="fill:#892B29;" d="M340.68,268.16c-1.08,1.56-2.37,2.97-3.84,4.18c0.8,1.17,2.58,1.14,2.58,1.14L340.68,268.16z"/>
				<path style="fill:#263238;" d="M347.28,267.31c0.07,0.03,0.15,0.03,0.22,0c0.17-0.07,0.25-0.27,0.18-0.45
					c-0.42-1.02-1.3-1.76-2.37-2.01c-0.18-0.04-0.35,0.08-0.39,0.26c0,0.01,0,0.02,0,0.02c-0.02,0.18,0.1,0.35,0.28,0.39l0,0
					c0.84,0.2,1.53,0.8,1.85,1.6C347.1,267.22,347.19,267.28,347.28,267.31z"/>
				<path style="fill:#263238;" d="M336.24,264.55c0.13,0.03,0.26-0.02,0.35-0.12c0.53-0.69,1.35-1.08,2.22-1.06
					c0.19,0.02,0.35-0.12,0.37-0.3c0.02-0.18-0.11-0.35-0.3-0.37c-1.1-0.05-2.15,0.44-2.82,1.31c-0.12,0.14-0.1,0.35,0.04,0.47
					c0,0,0,0,0,0C336.15,264.51,336.2,264.54,336.24,264.55z"/>
				<path style="fill:#263238;" d="M354.54,262.68c-3.5,0.34-3.93,3.92-0.64,11.67c4.01-1.78,7.62-7.49,6.55-9.99
					C359.38,261.86,357.6,262.38,354.54,262.68z"/>
				<path style="fill:#9F5B53;" d="M357.83,275.78c-0.88,1.56-2.34,2.71-4.07,3.2c-2.29,0.62-3.42-1.44-2.77-3.59
					c0.59-1.94,2.49-4.6,4.78-4.27C358.06,271.46,358.9,273.86,357.83,275.78z"/>
				<path style="fill:#263238;" d="M347.82,259.79c0,0-0.73,7.17,5.81,9.31c6.54,2.14,9.02-1.61,9.02-1.61s-1.06-0.11-1.67-0.28
					c0,0,2.8-2.86,1.68-6.6c-1.12-3.74-6.89-8.81-12.26-8.33c0,0-4.25-2.98-9.55-1.47c-5.3,1.5-5.97,7.55-5.97,7.55
					s0.7-3.6,3.1-4.04c0,0-4.52,6.62-1.03,9.58C336.96,263.9,339.19,256.82,347.82,259.79z"/>
				<g>
					<path style="fill:#263238;" d="M338.19,276.08c0.59,0.82,1.33,2.44,1.33,2.44c0.16-0.04,0.32-0.08,0.47-0.13
						c2.13-0.6,2.93-1.59,3.15-2.5c0.12-0.5,0.07-0.98-0.02-1.35c-0.1-0.44-0.27-0.73-0.27-0.73c-0.94,1-2.89,1.71-3.94,2.05
						C338.47,276.01,338.19,276.08,338.19,276.08z"/>
					<path style="fill:#FFFFFF;" d="M338.91,275.86l0.41,0.71c2.01-0.57,3.35-1.25,3.8-2.03c-0.1-0.44-0.27-0.73-0.27-0.73
						C341.91,274.81,339.97,275.53,338.91,275.86z"/>
					<path style="fill:#DE5753;" d="M339.99,278.39c2.13-0.6,2.93-1.59,3.15-2.5c-0.72,0.23-1.56,0.6-2.24,1.14
						C340.39,277.45,340.13,277.93,339.99,278.39z"/>
				</g>
			</g>
		</g>
	</g>
</g>
<g id="Speech_bubble">
	<g>
		<path style="fill:#D50000;" d="M234.47,110.78l-13.7-0.66c-2.04-0.1-3.61-1.83-3.51-3.86l0.66-13.7c0.1-2.04,1.83-3.61,3.86-3.51
			l13.7,0.66c2.04,0.1,3.61,1.83,3.51,3.86l-0.66,13.7C238.24,109.31,236.51,110.88,234.47,110.78z"/>
		<path style="opacity:0.6;fill:#FFFFFF;enable-background:new    ;" d="M234.12,96.04c-1.37-2.49-4.26-1.7-5.82,0.11
			c-1.38-1.95-4.18-3.01-5.78-0.67c-2.7,3.96,2.29,7.98,4.66,9.57c0.27,0.18,0.49,0.33,0.68,0.45c0.2-0.1,0.43-0.23,0.72-0.39
			C231.09,103.77,236.44,100.24,234.12,96.04z"/>
		<path style="fill:#D50000;" d="M229.96,108.93c0,0-3.07,6.19-9.35,7.87c0,0,3.52-1.81,3.57-8.41L229.96,108.93z"/>
	</g>
</g>
<g id="Character">
	<g>
		<path style="fill:#EBB376;" d="M246.03,174.2c0,0,7.94-7.94,10.5-13.6c0,0-0.97-3.16-0.06-4.8c0.91-1.64,6.19-6.33,7.61-5.34
			c1.41,1,3.45,4.94,2.61,6.59c-0.84,1.65-6.03,5.03-6.03,5.03s-6.43,12.89-10.41,15.8C246.27,180.79,246.03,174.2,246.03,174.2z"/>
		<path style="fill:#263238;" d="M225.96,150.32c4.63,0.6,9.9,23.02,13.59,25.13c3.69,2.11,13.27-10.28,13.27-10.28l4.4,5.01
			c0,0-12.66,17.64-17.67,16.07c-5.01-1.57-14.43-18.98-14.43-18.98L225.96,150.32z"/>
		<path style="opacity:0.05;fill:#FFFFFF;enable-background:new    ;" d="M225.96,150.32c4.63,0.6,9.9,23.02,13.59,25.13
			c3.69,2.11,13.27-10.28,13.27-10.28l4.4,5.01c0,0-12.66,17.64-17.67,16.07c-5.01-1.57-14.43-18.98-14.43-18.98L225.96,150.32z"/>
		<polygon style="fill:#EBB376;" points="254.02,357.11 247.94,358.19 245.45,349.9 243.18,342.3 250.18,339.86 252.22,348.99 		"/>
		<path style="fill:#263238;" d="M246.57,358.03c-0.1-0.67,8.22-1.6,8.22-1.6s5.97,4.25,11.09,4.54s2.89,3.72-2.6,4.69
			c-5.5,0.97-9.69,1.71-13.59,2.4S247.64,365,246.57,358.03z"/>
		<g>
			<path style="fill:#D50000;" d="M258.88,357.82c-1.14,0-2.59-0.38-2.98-0.49c-0.03-0.01-0.05-0.02-0.07-0.03l0,0l0,0
				c-0.02-0.02-0.04-0.04-0.06-0.06l0,0c0,0,0,0,0,0c-0.01-0.02-0.02-0.03-0.02-0.05c0,0,0,0,0,0h0c-0.01-0.03-0.01-0.07-0.01-0.1
				c0.02-0.09,0.37-2.13,1.4-2.79c0.33-0.21,0.69-0.26,1.07-0.16c0.41,0.11,0.63,0.31,0.66,0.6c0.05,0.44-0.46,0.97-1.06,1.45
				c0.68-0.19,1.4-0.3,1.88-0.12c0.26,0.09,0.44,0.25,0.54,0.48c0.21,0.47,0.09,0.75-0.04,0.91
				C259.95,357.72,259.45,357.82,258.88,357.82z M256.63,357.06c1.3,0.3,2.89,0.49,3.22,0.1c0.03-0.03,0.12-0.14-0.02-0.44
				c-0.05-0.11-0.15-0.2-0.29-0.25C258.89,356.23,257.51,356.69,256.63,357.06z M257.84,354.52c-0.16,0-0.31,0.05-0.46,0.14
				c-0.56,0.36-0.92,1.35-1.1,2.02c1.14-0.68,2.2-1.53,2.16-1.9c-0.01-0.12-0.22-0.19-0.34-0.22
				C258.01,354.53,257.92,354.52,257.84,354.52z"/>
		</g>
		<polygon style="opacity:0.2;enable-background:new    ;" points="252.25,349.18 245.48,350.07 243.19,342.39 250.19,339.9 		"/>
		<polygon style="fill:#EBB376;" points="213.47,359.72 207.3,359.72 206.29,351.13 205.37,343.25 212.69,342.06 213.11,351.41 		
			"/>
		<path style="fill:#263238;" d="M205.98,359.32c0.02-0.68,8.37-0.15,8.37-0.15s5.14,5.23,10.13,6.4c4.99,1.17,2.2,4.17-3.38,4.17
			c-5.58,0-9.84,0-13.8,0C203.33,369.75,205.81,366.37,205.98,359.32z"/>
		<g>
			<path style="fill:#D50000;" d="M218.74,361.31c-1.17,0-3.02-0.85-3.46-1.06c-0.03-0.01-0.05-0.03-0.07-0.06l0,0h0
				c-0.01-0.01-0.02-0.03-0.03-0.05c-0.02-0.05-0.03-0.11-0.01-0.17c0.03-0.08,0.73-2.03,1.86-2.5c0.36-0.15,0.72-0.14,1.08,0.03
				c0.38,0.18,0.57,0.42,0.55,0.7c-0.02,0.44-0.62,0.88-1.3,1.24c0.71-0.07,1.43-0.05,1.87,0.2c0.24,0.14,0.39,0.33,0.45,0.57
				c0.13,0.5-0.04,0.76-0.2,0.89C219.31,361.26,219.05,361.31,218.74,361.31z M216.05,360.11c1.23,0.52,2.76,0.98,3.16,0.66
				c0.03-0.03,0.14-0.11,0.06-0.44c-0.03-0.12-0.11-0.22-0.24-0.29C218.42,359.69,216.98,359.91,216.05,360.11z M217.54,357.81
				c-0.11,0-0.22,0.02-0.34,0.07c-0.62,0.26-1.14,1.16-1.43,1.8c1.24-0.47,2.43-1.12,2.45-1.5c0.01-0.12-0.18-0.23-0.3-0.28
				C217.8,357.84,217.67,357.81,217.54,357.81z"/>
		</g>
		<polygon style="opacity:0.2;enable-background:new    ;" points="213.11,351.6 206.29,351.3 205.37,343.33 212.69,342.1 		"/>
		<g>
			<path style="fill:#D50000;" d="M252.82,344.36l-9.99,1.76c-10.08-25.1-17.24-46.06-22.3-63.45c-2.73-9.38-4.85-17.73-6.48-25.13
				l0.46,27.33v62.08h-10.14c-24.67-117.63-7.19-144.51-7.19-144.51l29.51-5.04c1.12,4.4,1.97,11.54,2.47,16.51l1.33,9.76
				l11.54,59.56L252.82,344.36z"/>
		</g>
		<polygon style="fill:#D50000;" points="241.27,344.89 253.66,340.78 253.49,346.05 243.25,349.32 		"/>
		<polygon style="fill:#D50000;" points="203.04,345.46 215.95,343.57 214.87,348.73 204.22,350.17 		"/>
		<path style="fill:#263238;" d="M224.03,138.06c-0.04,0-0.09-0.01-0.13-0.04c-3.76-2.27-7.12-10.63-7.26-10.98
			c-0.05-0.13,0.01-0.27,0.14-0.32c0.13-0.05,0.27,0.01,0.32,0.14c0.03,0.08,3.44,8.55,7.06,10.74c0.12,0.07,0.16,0.23,0.08,0.34
			C224.19,138.02,224.11,138.06,224.03,138.06z"/>
		<path style="fill:#263238;" d="M193.76,116.12c0,0,1.47-4.99,11.27-5.84c9.8-0.85,14.67,8.8,12.36,15.98c0,0,2.06,9.77,6.01,12.63
			c0,0-18.85,8.52-28.37,8.57c-2.12,0.01-6.65-10.51-7.23-18.09C187.23,122.07,189.44,116.35,193.76,116.12z"/>
		<polygon style="fill:#263238;" points="197.18,198.03 197.18,202.43 227.27,200.12 227.27,194.91 		"/>
		<polygon style="opacity:0.3;fill:#FFFFFF;enable-background:new    ;" points="197.18,198.03 197.18,202.43 227.27,200.12 
			227.27,194.91 		"/>
		
			<rect x="213.94" y="196.27" transform="matrix(0.996 -0.0892 0.0892 0.996 -16.8654 20.1713)" style="fill:#FFFFFF;" width="6.61" height="5.01"/>
		<g>
			
				<rect x="205.98" y="196.21" transform="matrix(0.9987 -0.0511 0.0511 0.9987 -9.9422 10.8155)" style="fill:#D50000;" width="1.49" height="7.61"/>
		</g>
		<g>
			
				<rect x="224.37" y="194.19" transform="matrix(0.9987 -0.0509 0.0509 0.9987 -9.7915 11.7217)" style="fill:#D50000;" width="1.49" height="7.61"/>
		</g>
		<path style="fill:#263238;" d="M227.4,195.44l-30.1,2.6c-0.29-4.55-0.58-8.45-1.27-12.82c-0.44-2.8-1.05-5.8-1.93-9.29
			c-0.68-2.73-1.53-5.77-2.61-9.25c-0.05-0.19-0.11-0.38-0.17-0.57c-0.62-1.99-5.03-0.47-5.43-2.86
			c-1.74-10.64,9.74-11.42,13.97-12.12c4.46-0.79,8.99-1.27,13.52-1.42c5.85-0.05,12.58,0.61,12.58,0.61s0.96,0.23,1.56,6.44
			C228.07,162.58,228.61,174.24,227.4,195.44z"/>
		<path style="fill:#EBB376;" d="M210.89,156.36c-7.42-0.95-9.65-4.12-9.65-4.12c4.71-4.44,0.8-12.14,0.8-12.14l8.93,1.67
			c-0.23,1.48-0.33,2.71-0.35,3.76C210.55,150.95,213,151,213,151C214.57,153.94,210.89,156.36,210.89,156.36z"/>
		<path style="opacity:0.2;enable-background:new    ;" d="M210.97,141.77c-0.23,1.48-0.33,2.71-0.35,3.76
			c-6.03,0-8.58-5.43-8.58-5.43L210.97,141.77z"/>
		<g>
			<path style="fill:#EBB376;" d="M204.12,116.78c7.58-1.72,10.94,1.79,13.27,9.48c2.91,9.61,2.31,17.03-7.64,17.09
				C196.23,143.43,191.53,119.63,204.12,116.78z"/>
			<path style="fill:#D58745;" d="M212.39,126.94c0,0,1.5,1.74,2.92,2.64c0,0-0.42,1.18-1.8,1.31L212.39,126.94z"/>
			<g>
				<path style="fill:#263238;" d="M207.61,127.37c0.16,0.62-0.05,1.21-0.47,1.31c-0.41,0.1-0.87-0.31-1.03-0.93
					c-0.16-0.62,0.05-1.21,0.47-1.31C206.99,126.34,207.45,126.75,207.61,127.37z"/>
				<path style="fill:#263238;" d="M206.42,126.51l1.21-0.87C207.63,125.65,207.24,126.95,206.42,126.51z"/>
			</g>
			<g>
				<path style="fill:#263238;" d="M215.28,125.31c0.16,0.62-0.05,1.21-0.47,1.31c-0.41,0.1-0.87-0.31-1.03-0.93
					c-0.16-0.62,0.05-1.21,0.47-1.31C214.66,124.27,215.12,124.69,215.28,125.31z"/>
				<path style="fill:#263238;" d="M214.08,124.45l1.21-0.87C215.3,123.58,214.91,124.89,214.08,124.45z"/>
			</g>
			<path style="fill:#263238;" d="M203.32,124.41c-0.05,0-0.11-0.01-0.16-0.04c-0.18-0.09-0.25-0.31-0.16-0.49
				c0.91-1.85,3.22-2.08,3.32-2.09c0.2-0.02,0.38,0.13,0.39,0.33c0.02,0.2-0.13,0.38-0.33,0.4c-0.02,0-2,0.21-2.74,1.69
				C203.58,124.34,203.45,124.41,203.32,124.41z"/>
			<path style="fill:#263238;" d="M211.79,120.95c-0.12,0-0.24-0.06-0.31-0.17c-0.11-0.17-0.06-0.39,0.11-0.5
				c0.06-0.04,1.41-0.89,3.49-0.1c0.19,0.07,0.28,0.28,0.21,0.47c-0.07,0.19-0.28,0.28-0.47,0.21c-1.72-0.66-2.79,0-2.84,0.03
				C211.92,120.93,211.85,120.95,211.79,120.95z"/>
			<path style="fill:#263238;" d="M213.07,134.13c-0.23,1.01-0.29,2.83-0.29,2.83c-0.17,0.02-0.33,0.05-0.5,0.07
				c-2.26,0.28-3.4-0.34-3.97-1.11c-0.31-0.42-0.46-0.89-0.52-1.29c-0.08-0.45-0.03-0.79-0.03-0.79c1.28,0.57,3.41,0.47,4.54,0.37
				C212.78,134.18,213.07,134.13,213.07,134.13z"/>
			<path style="fill:#FFFFFF;" d="M212.3,134.21l-0.11,0.83c-2.13,0.26-3.66,0.15-4.4-0.41c-0.08-0.45-0.03-0.79-0.03-0.79
				C209.05,134.41,211.17,134.31,212.3,134.21z"/>
			<path style="fill:#DE5753;" d="M212.29,137.03c-2.26,0.28-3.4-0.34-3.97-1.11c0.77-0.06,1.71-0.06,2.57,0.19
				C211.54,136.29,211.98,136.65,212.29,137.03z"/>
			<path style="fill:#263238;" d="M198.73,131.43c0,0,2.13-7.03,0.51-11.72c0,0,13.63-9.54,17.83,5.54c0,0-1.6-13.87-14.7-11.22
				c-13.08,2.65-8.73,21.7-0.71,25.86C201.66,139.89,197.42,135.83,198.73,131.43z"/>
			<path style="fill:#EBB376;" d="M200.33,132.75c-0.33-1.21-2.05-2.99-4.27-2.23c-2.29,0.79-2.32,5.87,3.79,5.7
				C200.73,136.2,201.01,135.28,200.33,132.75z"/>
		</g>
		<path style="fill:#263238;" d="M199.24,119.72c0,0,7.86-2.89,12.28-0.71c0,0-4.77-4.28-12.84-0.25L199.24,119.72z"/>
		<path style="fill:#EBB376;" d="M194.36,153.06c0,0,8.71,7.07,16.82,6.95c8.11-0.11,10.96-9.23,10.96-9.23
			S209.56,147.06,194.36,153.06z"/>
		<path style="opacity:0.2;enable-background:new    ;" d="M220.53,282.67c-2.73-9.38-4.85-17.73-6.48-25.13
			c0,0,0.16-14.39,1.91-26.21C215.95,231.33,220.28,265.14,220.53,282.67z"/>
		<path style="fill:#EBB376;" d="M170,168.72c0,0-5.97-9.51-7.2-15.6c0,0,1.65-2.87,1.13-4.66c-0.52-1.8-4.63-7.56-6.22-6.9
			c-1.6,0.66-4.47,4.04-4.01,5.84c0.45,1.8,4.75,6.25,4.75,6.25s3.39,14,6.62,17.72C168.3,175.1,170,168.72,170,168.72z"/>
		<path style="fill:#263238;" d="M186.25,158.04c3.03-0.42,9.16,5.5,8.22,10.62c-0.93,5.12-9.51,19.52-16.12,18.4
			c-9.35-1.58-19.62-26.23-19.62-26.23l5.13-4.47c0,0,12.11,20.97,14.49,20.56C180.73,176.51,186.25,158.04,186.25,158.04z"/>
		<path style="opacity:0.05;fill:#FFFFFF;enable-background:new    ;" d="M186.25,158.04c3.03-0.42,9.16,5.5,8.22,10.62
			c-0.93,5.12-9.51,19.52-16.12,18.4c-9.35-1.58-19.62-26.23-19.62-26.23l5.13-4.47c0,0,12.11,20.97,14.49,20.56
			C180.73,176.51,186.25,158.04,186.25,158.04z"/>
		<polygon style="fill:#263238;" points="156.63,159.32 164.12,154.83 165.31,156.77 158.24,163.02 		"/>
		<polygon style="fill:#263238;" points="251.15,165.04 257.22,172.54 258.27,170.19 252.82,163.85 		"/>
		<g>
			<path style="fill:#D50000;" d="M254.18,154.88l9.59-11.68c0.33-0.4,0.94-0.44,1.32-0.08l4.27,4.03c0.34,0.32,0.38,0.86,0.08,1.23
				l-9.73,11.94c-0.34,0.42-0.98,0.45-1.35,0.05l-4.12-4.3C253.91,155.75,253.89,155.23,254.18,154.88z"/>
			<path style="opacity:0.3;enable-background:new    ;" d="M254.18,154.88l9.59-11.68c0.33-0.4,0.94-0.44,1.32-0.08l4.27,4.03
				c0.34,0.32,0.38,0.86,0.08,1.23l-9.73,11.94c-0.34,0.42-0.98,0.45-1.35,0.05l-4.12-4.3
				C253.91,155.75,253.89,155.23,254.18,154.88z"/>
			<path style="fill:#D50000;" d="M253.8,154.41l9.59-11.68c0.33-0.4,0.94-0.44,1.32-0.08l4.27,4.03c0.34,0.32,0.38,0.86,0.08,1.23
				l-9.73,11.94c-0.34,0.42-0.98,0.45-1.35,0.05l-4.12-4.3C253.53,155.28,253.51,154.76,253.8,154.41z"/>
			<polygon style="opacity:0.6;fill:#FFFFFF;enable-background:new    ;" points="263.77,143.2 268.51,147.79 259.24,159.19 
				254.62,154.35 			"/>
		</g>
	</g>
</g>
</svg>
