<svg xmlns="http://www.w3.org/2000/svg" viewBox="0 0 1440 320"><path fill="#d50000" fill-opacity="1" d="M0,96L14.1,96C28.2,96,56,96,85,133.3C112.9,171,141,245,169,272C197.6,299,226,277,254,224C282.4,171,311,85,339,80C367.1,75,395,149,424,202.7C451.8,256,480,288,508,277.3C536.5,267,565,213,593,208C621.2,203,649,245,678,240C705.9,235,734,181,762,149.3C790.6,117,819,107,847,90.7C875.3,75,904,53,932,58.7C960,64,988,96,1016,96C1044.7,96,1073,64,1101,85.3C1129.4,107,1158,181,1186,192C1214.1,203,1242,149,1271,128C1298.8,107,1327,117,1355,138.7C1383.5,160,1412,192,1426,208L1440,224L1440,0L1425.9,0C1411.8,0,1384,0,1355,0C1327.1,0,1299,0,1271,0C1242.4,0,1214,0,1186,0C1157.6,0,1129,0,1101,0C1072.9,0,1045,0,1016,0C988.2,0,960,0,932,0C903.5,0,875,0,847,0C818.8,0,791,0,762,0C734.1,0,706,0,678,0C649.4,0,621,0,593,0C564.7,0,536,0,508,0C480,0,452,0,424,0C395.3,0,367,0,339,0C310.6,0,282,0,254,0C225.9,0,198,0,169,0C141.2,0,113,0,85,0C56.5,0,28,0,14,0L0,0Z"></path></svg>